<!DOCTYPE svg PUBLIC "-//W3C//DTD SVG 20010904//EN" "http://www.w3.org/TR/2001/REC-SVG-20010904/DTD/svg10.dtd">
<svg version="1.0" xmlns="http://www.w3.org/2000/svg" width="647px" height="472px" viewBox="0 0 6470 4720" preserveAspectRatio="xMidYMid meet">
<g id="layer101" fill="#000000" stroke="none">
<path d="M3454 4710 c-29 -11 -33 -48 -16 -155 15 -101 11 -221 -14 -398 -27 -195 -23 -283 18 -427 20 -69 39 -138 42 -155 5 -27 3 -26 -14 10 -11 22 -20 47 -20 56 0 11 -26 24 -87 42 -192 58 -322 69 -465 38 -89 -18 -102 -19 -153 -6 -31 8 -60 15 -64 15 -4 0 -11 -47 -14 -104 -6 -104 -39 -232 -72 -280 -23 -32 -18 -4 10 57 34 74 57 186 54 267 -1 36 4 100 11 143 17 105 8 232 -24 323 -24 68 -25 76 -18 229 l7 160 43 23 c46 26 70 65 52 87 -26 31 -193 46 -272 24 -21 -5 -49 -20 -62 -32 -23 -20 -24 -26 -16 -72 13 -75 11 -321 -4 -395 -12 -60 -14 -63 -24 -39 -5 14 -24 32 -42 39 -76 31 -134 145 -111 220 10 36 69 100 91 100 6 0 10 11 10 25 0 35 -51 47 -147 35 -114 -15 -150 -27 -157 -53 -11 -41 -6 -181 9 -252 24 -114 72 -197 175 -302 l90 -92 24 32 c41 56 51 80 57 152 l6 70 1 -65 c2 -77 -13 -115 -91 -226 -29 -44 -78 -123 -107 -177 -28 -54 -54 -96 -57 -93 -6 5 3 24 77 154 29 51 51 94 49 96 -2 2 -73 15 -157 30 -173 29 -189 34 -583 180 -156 57 -331 118 -389 136 -149 44 -328 71 -525 77 -200 7 -289 -7 -400 -61 -66 -33 -165 -114 -165 -136 0 -5 24 -1 53 11 127 51 188 69 271 80 108 14 280 7 359 -15 176 -49 395 -148 607 -276 193 -116 204 -126 799 -683 106 -100 239 -227 295 -283 147 -146 409 -329 601 -420 196 -93 336 -125 620 -144 187 -12 217 -18 269 -53 21 -15 44 -27 51 -27 63 0 412 -332 675 -642 152 -180 323 -413 512 -703 88 -134 291 -406 358 -478 70 -77 147 -130 305 -211 122 -63 138 -68 255 -87 81 -13 139 -28 165 -43 40 -22 42 -22 81 -5 35 14 44 25 64 74 17 43 33 63 62 81 21 14 44 35 50 48 24 54 -31 117 -84 97 -13 -5 -120 -11 -238 -12 -210 -4 -216 -3 -265 20 -32 15 -87 62 -150 125 -95 95 -110 117 -247 346 -80 135 -178 304 -218 375 -40 72 -226 360 -413 640 -416 624 -519 773 -612 884 l-71 86 24 55 c37 80 34 142 -11 271 -20 58 -37 124 -37 145 0 22 -5 55 -11 74 -6 19 -15 103 -19 185 -4 83 -18 222 -30 310 -20 145 -21 174 -11 310 6 83 13 195 17 250 5 91 9 105 40 155 40 65 43 96 12 106 -42 14 -181 8 -222 -10 l-39 -16 8 -63 c10 -91 8 -113 -20 -206 -16 -55 -27 -120 -31 -190 -6 -117 9 -574 21 -606 3 -11 -6 5 -22 35 -16 30 -37 69 -46 85 -9 17 -17 39 -17 49 0 11 -13 47 -29 80 -50 103 -64 195 -65 426 -1 113 -5 232 -10 265 -8 60 -8 61 28 104 44 52 46 91 6 102 -36 10 -221 9 -246 -1z m65 -1235 c0 -13 -5 -8 -14 15 -18 46 -18 61 0 30 8 -14 14 -34 14 -45z m427 -31 c35 -33 64 -66 64 -72 0 -6 -29 17 -64 51 -59 59 -86 95 -86 114 0 4 5 -1 11 -12 6 -11 40 -47 75 -81z m-398 -164 c0 -8 -8 3 -19 25 -10 22 -18 51 -18 65 0 18 6 12 19 -25 10 -27 18 -57 18 -65z"/>
</g>


</svg>