<?xml version="1.0" encoding="UTF-8" standalone="no"?>
<!-- Created with Inkscape (http://www.inkscape.org/) -->

<svg
   xmlns:svg="http://www.w3.org/2000/svg"
   xmlns="http://www.w3.org/2000/svg"
   version="1.1"
   width="118"
   height="52"
   id="svg2855">
  <defs
     id="defs2859" />
  <path
     d="m 57.851669,44.436716 c -0.638044,-0.638044 -1.160081,-2.107655 -1.160081,-3.265801 0,-2.268157 4.102309,-8.412403 6.520066,-9.765447 3.786917,-2.119266 -0.285618,-6.728833 -5.944899,-6.728833 -2.072044,0 -6.289217,0.733126 -9.371495,1.629169 -8.524071,2.478014 -19.9714,1.440738 -26.052959,-2.360735 -7.910907,-4.944965 -12.896697,-7.39373 -17.650717,-8.669115 -1.1,-0.295103 -0.33549,-0.357696 1.69891,-0.139096 2.0344,0.2186 5.1844,1.070892 7,1.893983 13.913245,6.307484 14.991508,6.645794 21.181506,6.645794 5.921662,0 10.401235,-0.914054 15.119588,-3.085142 12.211714,-5.61906 26.06308,-7.391577 34.5,-4.414858 2.338299,0.825 5.684804,1.5 7.436677,1.5 2.986141,0 3.265583,-0.313544 4.470925,-5.016543 1.349648,-5.2660534 3.196758,-6.9834564 7.51088,-6.9834564 2.68583,0 9.56958,5.3452704 8.39561,6.5192394 -0.37649,0.37649 -3.01644,-0.09001 -5.86655,-1.036665 -5.688372,-1.8893714 -6.901422,-1.3089214 -6.932232,3.317085 -0.0248,3.719332 -2.693281,7.82431 -5.968152,9.180806 -1.675937,0.694196 -3.047158,1.512309 -3.047158,1.818028 0,0.30572 1.425916,1.746262 3.168703,3.201204 1.885517,1.5741 2.874008,3.122177 2.440983,3.822826 -1.135065,1.836574 -2.609686,1.384827 -2.609686,-0.799471 0,-2.007831 -4.564382,-5.792005 -5.662118,-4.694269 -0.329835,0.329836 0.157686,2.195776 1.083381,4.146533 1.65215,3.481647 1.449621,5.524683 -0.547668,5.524683 -0.554604,0 -0.77144,-0.7875 -0.481859,-1.75 0.846648,-2.814057 -3.547978,-6.931652 -8.24495,-7.725201 -4.733205,-0.79967 -4.687508,-0.862971 -5.571099,7.717384 -0.504265,4.896804 -0.295725,6.037779 1.416496,7.75 1.192059,1.192059 1.499954,2.001596 0.757817,1.992504 -3.305188,-0.04049 -4.083333,-1.831184 -4.083333,-9.39671 0,-8.611769 -1.106773,-9.607528 -4.821603,-4.337977 -1.260119,1.7875 -3.265191,4.030383 -4.455717,4.984184 -2.604915,2.086953 -4.009292,6.764635 -2.340575,7.795959 0.685313,0.423547 0.775077,0.960691 0.218072,1.304938 -0.520675,0.321795 -1.468718,0.06304 -2.106763,-0.575 z"
     id="path2877"
     style="fill:#000000" />
</svg>
