<!DOCTYPE svg PUBLIC "-//W3C//DTD SVG 20010904//EN" "http://www.w3.org/TR/2001/REC-SVG-20010904/DTD/svg10.dtd">
<svg version="1.0" xmlns="http://www.w3.org/2000/svg" width="672px" height="458px" viewBox="0 0 6720 4580" preserveAspectRatio="xMidYMid meet">
<g id="layer101" fill="#000000" stroke="none">
<path d="M0 2290 l0 -2290 3360 0 3360 0 0 2290 0 2290 -3360 0 -3360 0 0 -2290z"/>
</g>
<g id="layer102" fill="#ffffff" stroke="none">
<path d="M0 2290 l0 -2290 3360 0 3360 0 0 2290 0 2290 -3360 0 -3360 0 0 -2290z m3073 2218 l99 4 43 -42 c32 -31 47 -56 55 -91 7 -27 16 -51 21 -54 5 -3 13 -24 20 -47 14 -55 29 -33 29 47 0 73 9 113 21 94 6 -11 13 -9 31 7 36 32 46 36 69 24 17 -10 20 -18 15 -43 -4 -18 -11 -70 -17 -117 -13 -110 -23 -149 -55 -195 -27 -40 -25 -56 6 -37 11 7 32 12 47 12 l28 0 -31 -19 c-38 -23 -79 -104 -128 -251 -19 -58 -45 -132 -56 -165 -17 -46 -20 -71 -15 -113 8 -63 29 -130 37 -116 7 11 44 191 53 259 4 28 10 55 15 60 4 6 13 28 20 50 14 46 37 85 49 85 5 0 1 -20 -8 -45 -13 -37 -14 -49 -3 -65 6 -11 12 -39 12 -62 0 -72 -21 -239 -41 -320 -11 -43 -19 -89 -19 -103 0 -14 -11 -53 -25 -87 -14 -34 -25 -77 -25 -97 0 -49 28 -217 45 -272 20 -62 19 -108 -3 -140 -9 -15 -30 -46 -47 -70 -29 -42 -30 -48 -26 -129 8 -160 6 -247 -5 -261 -6 -8 -14 -26 -17 -40 -6 -23 0 -28 76 -68 139 -72 256 -158 517 -381 52 -44 127 -105 165 -134 39 -30 97 -77 130 -105 33 -28 85 -68 115 -89 30 -20 84 -61 120 -90 145 -118 126 -106 255 -163 28 -12 77 -34 110 -49 121 -55 226 -77 407 -85 135 -6 182 0 433 54 28 6 75 16 105 22 30 5 71 17 90 25 19 8 76 25 125 38 50 13 185 56 300 94 193 65 379 125 422 137 52 15 -116 -56 -277 -117 -102 -38 -221 -87 -265 -107 -44 -21 -91 -42 -105 -46 -14 -4 -66 -27 -117 -51 -50 -24 -97 -44 -103 -44 -14 0 -152 -46 -195 -65 -37 -16 -100 -29 -239 -51 -190 -30 -446 -2 -736 79 -30 9 -88 25 -129 36 -41 11 -87 29 -102 40 -16 12 -65 35 -109 51 -88 32 -150 62 -193 92 -15 11 -35 17 -43 14 -9 -3 -27 3 -41 14 -14 11 -31 20 -37 20 -6 0 -27 10 -46 22 -19 13 -51 24 -70 25 -19 1 -43 3 -52 3 -10 1 -18 6 -18 11 0 6 -8 8 -18 4 -11 -3 -29 3 -45 15 -27 22 -47 26 -47 10 0 -7 -6 -7 -17 -1 -25 13 -121 29 -225 37 -65 5 -106 2 -165 -10 -132 -29 -157 -37 -194 -61 -20 -13 -69 -40 -109 -60 -65 -33 -84 -37 -169 -42 -82 -4 -116 -12 -231 -53 -211 -76 -380 -101 -535 -78 -159 22 -308 9 -393 -36 -47 -25 -105 -86 -130 -137 -28 -58 -77 -260 -92 -375 -6 -50 -23 -127 -38 -172 -36 -108 -107 -185 -216 -236 -42 -19 -76 -39 -76 -44 0 -5 -12 -9 -27 -10 -16 0 -57 -3 -93 -7 -103 -12 -139 -9 -209 18 -36 14 -100 35 -141 48 -74 22 -117 46 -175 100 -16 15 -71 48 -121 74 -135 68 -156 89 -161 156 -5 50 -3 56 26 83 41 39 84 44 371 45 186 1 239 4 306 21 104 25 185 60 211 93 11 15 38 79 58 144 78 240 126 358 197 478 39 66 78 128 86 137 12 14 13 25 4 60 -26 99 -32 162 -21 221 12 68 69 178 106 205 l26 19 -43 40 c-39 36 -44 45 -47 94 -6 74 15 120 73 160 26 18 63 57 85 92 22 34 59 80 84 103 24 24 53 61 64 83 22 42 98 107 137 117 22 6 77 -17 89 -36 4 -6 27 4 57 27 41 30 59 37 99 37 42 1 49 4 49 21 0 11 -6 30 -14 41 -8 11 -16 40 -18 64 -4 53 -24 70 -68 53 -46 -17 -35 -4 15 18 54 24 75 19 124 -27 20 -18 47 -42 59 -51 32 -25 46 -100 28 -145 -8 -18 -16 -55 -20 -83 -19 -144 -19 -132 -1 -110 38 47 66 106 76 161 6 32 17 70 26 82 8 13 23 48 33 78 11 30 30 69 44 87 14 19 26 39 26 45 0 14 120 122 135 122 7 0 18 6 24 14 7 8 26 17 44 21 57 12 150 77 172 120 12 22 28 51 37 65 9 14 20 48 24 75 7 45 9 47 13 20 l6 -29 17 39 c9 22 29 79 43 127 17 53 40 104 60 130 47 61 60 115 44 194 -13 67 -2 152 25 189 11 15 12 10 9 -36 -2 -30 1 -61 7 -69 18 -26 50 23 50 79 -1 85 -29 356 -40 388 -11 30 -71 73 -102 73 -16 0 -119 50 -140 68 -10 8 -18 20 -18 26 0 6 5 5 12 -2 18 -18 52 -15 44 3 -19 47 -17 49 15 19 l34 -31 98 5z"/>
<path d="M3061 3128 c-65 -88 -83 -123 -90 -173 -4 -27 -14 -60 -21 -72 -19 -30 -3 -43 20 -15 27 33 35 27 10 -9 -22 -30 -20 -53 2 -31 26 26 30 10 5 -16 -26 -27 -35 -52 -19 -52 4 0 13 5 20 12 9 9 12 9 12 0 0 -6 -16 -22 -35 -34 -35 -23 -44 -38 -23 -38 7 0 -8 -14 -32 -32 -41 -31 -42 -51 -1 -29 11 6 28 11 38 10 14 0 13 -2 -5 -10 -23 -9 -22 -29 1 -29 7 0 29 -14 49 -30 22 -18 43 -28 52 -24 24 9 63 102 70 168 3 32 11 67 17 79 12 22 8 142 -10 265 -15 106 -21 112 -60 60z"/>
<path d="M2110 2605 c0 -14 31 -65 40 -65 15 0 21 18 14 45 -4 18 -13 25 -30 25 -13 0 -24 -2 -24 -5z"/>
<path d="M1860 2571 c-13 -26 -13 -41 3 -41 19 1 59 38 52 50 -10 17 -44 11 -55 -9z"/>
<path d="M2000 2460 c-14 -4 -51 -16 -83 -25 -32 -10 -68 -27 -81 -39 -12 -11 -31 -26 -42 -32 -27 -16 -12 -27 20 -15 18 8 26 7 26 -1 0 -6 8 -4 18 5 23 21 32 21 32 1 0 -16 7 -16 55 1 12 4 5 -7 -19 -29 -44 -40 -41 -60 5 -33 50 28 92 18 54 -13 -20 -17 -19 -34 1 -26 13 5 15 1 10 -19 -6 -22 -3 -25 18 -25 28 0 32 8 45 103 8 53 7 73 -5 95 -7 15 -14 35 -14 45 0 19 -3 19 -40 7z"/>
</g>


</svg>