<?xml version="1.0" standalone="yes"?>
<svg xmlns="http://www.w3.org/2000/svg" width="694" height="242">
<path style="fill:#ffffff; stroke:none;" d="M0 0L0 242L451 242C448.189 240.817 443.914 241.51 442.028 238.682C438.962 234.087 441 223.362 441 218C441 205.757 441.01 193.179 442.17 181C442.809 174.29 444.467 167.701 445 161C438.181 160.999 428.512 158.003 422.108 160.742C417.853 162.562 417.025 168.094 415.655 172C412.435 181.179 400.462 193.02 405.457 203C409.304 210.687 417.864 213.048 423.981 218.329C426.422 220.437 429.368 223.442 428.338 226.985C427.128 231.146 422.768 232.544 419 233.242C410.22 234.87 400.953 236.528 392 235.91C389.154 235.714 384.739 235.56 382.603 233.4C379.551 230.315 380.091 223.024 378.532 219C376.542 213.861 372.572 209.435 371.39 204C370.291 198.944 372.106 194.025 371.671 189C371.096 182.349 368.109 176.235 366 170C361.271 171.969 356.822 174.548 352 176.305C343.422 179.429 334.565 180.647 328.329 188.015C322.875 194.461 322.588 202.505 319.525 210C315.74 219.258 305.391 229.036 295.985 232.601C292.467 233.934 286.709 235.077 283.318 232.821C281.256 231.449 281.306 229.153 280.421 227.086C278.044 221.541 275.132 219.565 276.928 213C279.734 202.749 289.315 196.799 294.517 188C298.271 181.651 296.674 173.79 299.482 167C302.027 160.846 308.099 157.731 311 152C304.184 150.066 297.184 146.805 290 147.043C278.65 147.419 267.439 153.187 257 157.049C244.336 161.735 231.196 165.677 218 168.576C187.893 175.189 156.817 180.611 126 181.961C108.959 182.707 92.0096 180 75 180C71.0813 180 66.8553 179.575 63 180.39C53.2558 182.449 42.307 187.995 32 185.697C26.324 184.431 21.0099 179.301 16 176.427C8.0535 171.869 0.598606 167.568 2.21451 157C3.63316 147.722 11.4049 148.175 18 144.468C22.5073 141.934 26.0209 137.963 31 136.249C46.2732 130.993 72.0064 136.888 73 156C103.926 156 137.526 152.566 167 142.644C176.662 139.392 185.763 134.55 195 130.309C208.34 124.183 223.587 118.379 235 109C234.16 107.017 233.346 105.166 233.134 102.995C232.975 101.359 233.027 99.5968 233.514 98.0154C237.238 85.9184 250.533 95.1856 258 91.821C265.44 88.4685 271.578 80.6338 278 75.6505C280.659 73.5867 283.47 71.6202 285.582 68.9606C287.967 65.9576 288.895 62.3128 292.108 59.966C298.699 55.1527 307.086 53.1219 313.96 48.9144C318.872 45.9077 321.01 40.1049 326.004 37.0741C343.452 26.4842 361.194 17.0854 381 11.8843C391.948 9.00925 403.032 8.82071 414 6.52161C420.007 5.26247 424.737 1.55025 431 1C427.041 -0.661102 422.26 0 418 0L393 0L305 0L0 0z"/>
<path style="fill:#000000; stroke:none;" d="M235 108C223.726 118.12 207.649 124.042 194 130.309C184.763 134.55 175.662 139.392 166 142.644C136.879 152.447 103.566 156 73 156C72.529 135.968 45.6854 130.851 30 136.249C25.388 137.836 22.0639 141.348 18 143.87C11.6937 147.785 3.63626 146.974 2.21373 156C0.380101 167.634 7.09562 171.799 16 177.012C20.695 179.76 25.6425 184.494 31 185.697C45.4224 188.935 60.6292 179.999 75 180C92.3469 180.001 109.605 182.722 127 181.961C157.229 180.637 187.408 175.124 217 168.997C230.899 166.119 244.701 161.97 258 157.049C268.1 153.312 279.033 147.623 290 147.105C297.077 146.77 304.134 150.579 311 152C307.267 156.881 301.917 160.112 299.482 166C296.674 172.79 298.271 180.651 294.517 187C289.314 195.8 279.738 201.749 276.928 212C275.092 218.698 277.072 221.443 279.996 227.086C281.089 229.195 280.947 232.052 283.318 233.258C286.724 234.989 292.53 234.069 295.985 232.942C305.444 229.857 315.799 220.114 319.525 211C322.598 203.481 322.917 195.507 328.329 189.004C337.488 178.001 353.998 177.005 366 170C367.519 176.409 370.881 182.355 371.471 189C371.975 194.659 370.019 200.365 371.638 206C373.077 211.008 376.655 215.154 378.532 220C380.008 223.81 379.52 230.255 382.024 233.4C384.135 236.053 389.944 235.91 393 235.985C401.748 236.2 410.4 234.914 419 233.413C422.748 232.758 426.886 231.99 428.392 227.956C429.968 223.733 427.088 220.043 423.981 217.529C417.648 212.405 409.317 209.798 405.458 202C402.472 195.968 406.567 191.041 409.548 186C412.556 180.912 414.77 175.58 416.667 170C417.916 166.329 419.124 162.337 423.044 160.742C429.165 158.252 438.458 161 445 161C442.539 180.059 441 198.733 441 218C441 223.643 439.084 233.561 441.603 238.682C443.078 241.679 448.182 241.204 451 241.576C458.332 242.542 464.875 240.955 472 239.514C475.662 238.773 479.167 239.255 481.712 236.022C487.028 229.27 478.151 224.739 474.558 219.985C471.168 215.5 470.221 209.479 471.344 204C472.654 197.612 478.391 194.539 483 190.675C489.652 185.099 495.146 178.355 501 172C504.509 191.441 531.896 194.782 548 195.91C553.913 196.325 559.628 196.496 565 199.417C572.381 203.431 578.618 209.731 586 213.985C588.909 215.662 592.456 217.8 595.956 217.586C599.327 217.381 600.372 214.587 602.479 212.479C604.075 210.884 606.304 209.945 607.254 207.776C611.049 199.113 598.035 188.785 592.83 183.715C587.796 178.809 582.682 174.297 577 170.151C568.701 164.096 560.235 155.281 551 151C552.808 147.906 554.257 143.935 557.213 141.738C561.142 138.819 567.346 139.043 572 138.424C586.607 136.483 603.266 140.45 617 145.348C621.101 146.81 624.836 149.143 629 150.427C635.495 152.429 642.467 151.97 649 153.764C658.359 156.334 669.077 173.598 679.362 161.772C685.746 154.431 684.694 143.829 684.089 135C683.477 126.063 683.48 118.642 677.956 111.015C672.441 103.401 663.312 99.6184 656.039 94.0725C647.18 87.3171 639.547 78.4666 630 72.5633C626.843 70.6112 623.295 70.2806 620 68.7292C610.828 64.4109 601.784 58.6767 593 53.5756C586.468 49.7828 575.72 45.2387 572.514 37.9961C568.831 29.6751 573.64 15.1683 563.956 10.3441C550.373 3.57751 552.206 24.9832 541 22.9182C534.051 21.6377 529.679 13.2246 523.83 10.027C518.719 7.23276 514.773 11.9877 510 10.9823C503.788 9.67369 500.457 2.01358 494 0.418976C488.077 -1.04384 484.404 3.58189 479 3.31328C475.972 3.16278 473.044 1.5473 470 1.17053C462.95 0.297913 456.857 1.69356 450 1.53703C444.577 1.41325 439.528 -0.295776 434 0.0895081C426.22 0.63176 420.351 4.98061 413 6.52161C404.087 8.38991 394.944 8.4489 386 10.4244C370.6 13.8257 357.78 19.399 344 26.7415C337.371 30.2739 328.865 33.6719 323.093 38.4182C319.275 41.5584 317.332 46.3153 312.985 48.9144C306.005 53.0884 296.446 54.9412 290.418 60.6373C287.972 62.9487 286.991 66.4193 284.775 68.9606C280.873 73.4381 275.522 76.6309 271 80.439C266.789 83.9859 262.92 88.6561 258 91.2577C252.087 94.3843 244.67 89.6077 238.094 92.2639C232.114 94.6795 231.502 103.382 235 108z"/>
<path style="fill:#ffffff; stroke:none;" d="M443 0C447.62 2.22047 452.069 1.61989 457 1C452.783 -0.769318 447.541 0 443 0M463 0C465.591 1.08963 468.243 0.923004 471 1.47839C477.142 2.71582 481.178 5.463 486 0L463 0M495 0C498.701 3.58847 504.851 10.7208 510 11.7485C514.654 12.6774 517.885 7.3938 522.911 10.0278C529.113 13.2788 534.962 24.5604 542.996 23.3333C552.707 21.8502 552.437 3.11464 564.891 11.4383C575.504 18.5314 566.467 36.223 577.019 44.2145C589.38 53.576 604.989 62.1329 619 68.7292C622.295 70.2806 625.843 70.6112 629 72.5633C638.532 78.4579 646.322 87.21 655.089 94.0725C662.348 99.7546 671.495 103.507 677.239 111.015C684.797 120.895 686.195 137.017 684.076 149C683.178 154.079 681.355 160.154 676.895 163.262C666.47 170.525 659.735 156.895 651 154.059C644.221 151.858 636.817 152.528 630 150.427C625.505 149.041 621.457 146.529 617 145.005C604.026 140.568 589.726 137.678 576 138.015C570.509 138.149 560.841 138.163 556.39 141.738C553.648 143.942 552.309 147.856 551 151C560.553 157.65 569.664 165.358 579 172.375C588.407 179.446 601.711 189.998 606.579 201C609.206 206.938 605.369 208.675 601.796 212.479C599.975 214.417 598.928 216.929 595.956 217.238C592.478 217.598 588.836 215.072 586 213.395C579.017 209.266 573.036 203.243 566 199.417C560.265 196.299 554.264 196.429 548 195.83C531.07 194.213 506.622 191.105 501 172C494.36 177.078 489.312 184.259 483 189.816C478.795 193.518 473.231 196.229 471.573 202C469.846 208.008 470.724 215.988 474.558 220.961C476.955 224.07 481.191 226.242 482.688 229.975C484.043 233.352 480.931 237.188 477.896 238.401C475.477 239.368 472.542 239.167 470 239.745C467.279 240.364 464.793 240.872 462 241C466.969 243.085 473.65 242 479 242L513 242L640 242L677 242C681.608 242 688.878 240.42 693 242C695.599 235.806 694 226.686 694 220L694 171L694 0L495 0z"/>
<path style="fill:#000000; stroke:none;" d="M691 240L691 242L693 242L693 240L691 240z"/>
</svg>
