<?xml version="1.0" encoding="UTF-8" standalone="no"?>
<!-- Created with Inkscape (http://www.inkscape.org/) -->

<svg
   xmlns:svg="http://www.w3.org/2000/svg"
   xmlns="http://www.w3.org/2000/svg"
   version="1.1"
   width="1188.2919"
   height="488.35638"
   id="svg2">
  <defs
     id="defs4" />
  <g
     transform="translate(204.90766,-338.23154)"
     id="layer1">
    <path
       d="m 913.65918,338.23966 c -26.14793,0.42367 -54.40101,17.44947 -94.0625,53.28125 l -60.71875,54.84375 -96.1875,-14.65625 c -52.91096,-8.0599 -134.08019,-9.46628 -180.375,-3.125 -46.29479,6.34129 -201.95228,7.89669 -345.875,3.46875 -235.210446,-7.23651 -359.41095,0.24546 -339.21875,20.4375 3.9682,3.96839 69.0597,9.50439 144.625004,12.3125 75.5653,2.80812 178.146396,17.03512 227.968746,31.59375 108.15097,31.60277 266.5625,101.42779 266.5625,117.5 0,6.29642 -20.13558,25.82572 -44.78125,43.375 -45.45129,32.36417 -87.78453,133.97708 -70.15625,162.50025 5.30384,8.58178 27.49285,6.62475 49.34375,6.62475 38.58765,0 38.96584,-0.87075 12.40625,-30.21875 -25.60667,-28.29506 -25.74715,-32.67996 -2.03125,-68.875 13.92928,-21.25877 33.76625,-38.81284 44.09375,-39 10.32751,-0.18718 36.01942,-13.78985 57.0625,-30.25 41.75155,-32.65853 63.3546,-38.74553 57.375,-16.15625 -5.51947,20.85107 99.71717,152.62443 122.4375,153.3125 32.95832,0.99813 21.16608,-24.58744 -37.75,-81.8125 -49.61491,-48.19087 -54.02335,-57.99488 -34.4375,-76.625 12.35243,-11.74968 38.67819,-26.22804 58.5,-32.1875 34.80336,-10.46369 35.67652,-8.69802 25.4375,51.90625 -7.0136,41.51313 -4.98205,62.78125 6.03125,62.78125 9.1571,0 16.65625,-6.89526 16.65625,-15.3125 0,-8.41724 14.04328,-15.3125 31.21875,-15.3125 26.71848,0 30.7119,-8.6488 27.6875,-59.90625 -4.76191,-80.70432 84.06167,-194.11874 163.71875,-209.0625 65.49163,-12.28629 81.83007,-35.14714 44.59375,-62.375 -17.48881,-12.78812 -33.36351,-19.33409 -50.125,-19.0625 z m -204.06047,286.5974 14.5708,-6.3474 -5.97137,44.44075 -15.32021,0.74675 6.72078,-38.8401 z"
       id="path2879"
       style="fill:#000000" />
  </g>
</svg>
