<?xml version="1.0" standalone="yes"?>
<svg xmlns="http://www.w3.org/2000/svg" width="1336" height="471">
<path style="fill:#ffffff; stroke:none;" d="M0 0L0 179C0 188.306 -0.382066 197.704 0.0393519 207C0.17629 210.021 1.19555 212.987 1.16127 216C1.12312 219.351 0.0494853 222.605 0.00385802 226C-1.09319 307.633 0 389.358 0 471L1336 471L1336 0L0 0z"/>
<path style="fill:#695944; stroke:none;" d="M14 181C8.97192 195.258 28.762 198.862 39 196.239C47.4083 194.085 54.0224 188.114 62 185.563C67.9368 183.665 76.8159 184.666 83 185.09C91.3515 185.661 101.178 186.682 109 189.761C115.482 192.312 121.042 196.636 127 200.139C139.687 207.599 152.178 215.332 165 222.576C177.279 229.513 189.996 236.498 203 241.985C217.646 248.166 233.078 252.582 248 258.053C262.234 263.272 277.025 271.423 292 274C293.463 293.212 286.223 309.629 271.961 322.714C261.395 332.407 248.421 339.696 239.379 351C228.868 364.139 226.131 381.813 217.648 396C213.182 403.469 202.363 407.19 201 416C208.703 416.159 218.663 419.29 225.892 415.427C229.608 413.442 230.219 409.628 231.544 406C233.757 399.938 237.032 394.463 238 388L241 392C245.496 387.597 244.235 379.925 245.209 374C246.09 368.643 249.644 361.271 253.39 357.329C257.51 352.995 264.034 350.308 269 347C281.407 338.737 294.239 330.914 307 323.204C314.979 318.383 327.261 313.198 330.991 304C332.606 300.016 332 295.211 332 291C340.304 294.179 349.212 295.905 358 297.13C363.108 297.842 369.571 297.62 373.985 300.589C382.015 305.989 387.549 317.854 392.396 326C405.894 348.687 420.1 372.497 422.095 399.385C422.843 409.465 406.785 407.178 409 417C414.681 415.945 420.24 416 426 416C428.626 416 432.248 416.587 434.683 415.397C437.714 413.915 437.58 408.862 438.084 406C438.837 401.723 440.395 397.394 439.783 393C439.1 388.094 436.037 383.84 435 379C440.319 378.109 439.517 374.856 436.745 371C430.816 362.756 426.219 354.816 423.205 345C418.611 330.035 417.997 313.762 413 299C436.684 299 459.785 294.802 483 290.46C493.704 288.458 504.582 287.31 515 284C520.007 295.605 528.887 305.6 537.155 315C542.128 320.653 548.598 327.216 549.787 335C550.882 342.165 547.729 358.325 540 361C539.439 365.247 535.323 367.689 532 370.076C521.466 377.645 509.024 377.007 498 382.785C495.575 384.056 483.497 391.125 488.623 394.883C491.84 397.242 500.899 393.887 505 394.426C509.336 394.995 513.627 395.812 518 396C513.653 399.314 509.865 402.397 509 408C514.729 408 520.306 407.154 526 407.015C535.701 406.777 546.168 408.067 554.996 403.034C562.945 398.503 568.16 389.88 569.561 381C570.135 377.365 569.628 373.557 570.637 370C573.674 359.3 580.794 350.287 582.674 339C583.962 331.269 581.598 323.705 581.71 316C581.84 307.063 584.208 298.657 586 290C591.872 290.979 596.641 294.767 602 297C606.282 298.784 610.714 300.214 615 302C631.66 308.942 648.824 314.912 665 323C670.593 325.796 676.393 328.197 682 331C684.031 332.016 686.126 332.5 688 334L687 335L690 334L689 336C697.645 336.677 710.816 347.135 712 356C715.17 356 716.064 362.084 716.833 365C718.981 373.139 719.35 387.921 713.833 395C709.124 401.042 699.08 401.111 693 405.333C688.976 408.128 686.169 412.361 688 417C698.303 414.575 710.241 420.208 720 415C721.194 425.377 731.957 418.205 737 414.319C747.197 406.462 759.651 391.925 758.787 378C758.146 367.678 750.174 358.276 744.667 350C737.482 339.203 730.938 325.58 721.674 316.465C711.751 306.7 699.318 300.169 690.518 289C676.885 271.698 675.55 249.22 664 231C674.486 227.979 684.443 221.478 694 216.309C710.099 207.602 725.751 198.655 741 188.485C747.706 184.012 753.858 178.143 761 174.402C766.596 171.471 773.029 170.188 779 168.255C789.384 164.892 799.602 161.003 810 157.656C833.665 150.037 857.058 141.146 881 134.428C896.716 130.018 913.855 129.368 930 127.83C946.011 126.306 961.995 124.379 978 122.83C1043.26 116.515 1108.62 112.388 1174 107.91C1206.63 105.676 1239.26 104.386 1272 103.996C1280.02 103.901 1287.92 102.817 1296 103.015C1305.62 103.25 1315.41 104.047 1325 104.826C1327.73 105.048 1333.36 104.985 1333.36 100.999C1333.36 95.0568 1319.9 95.0348 1316 94.1011C1297.45 89.6627 1278.73 87.755 1260 84.3858C1212.86 75.9052 1164.64 70.6122 1117 65.831C1083.62 62.4803 1050.47 57.3645 1017 54.9113C992.935 53.1472 969.02 49.4957 945 47.1698C931.355 45.8484 917.616 45.3647 904 43.7145C867.583 39.3006 831.514 32.0892 795 28.1659C726.848 20.8432 658.425 15.9572 590 12.9606C517.848 9.8009 444.162 8.6019 373 23.2855C351.608 27.6994 328.328 35.6971 311 49.375C297.748 59.8355 289.926 76.7019 275.999 85.892C268.265 90.9959 257.989 92.2846 249 93.5717C224.811 97.0353 199.424 92.4694 176 86.2654C160.085 82.0503 144.601 76.2275 128 75.0895C119.143 74.4824 109.541 74.4296 101 77.0394C96.1246 78.5291 91.889 82.1299 87 83.2616C81.5747 84.5174 75.4766 81.4379 70.1088 83.7423C65.9287 85.5368 65.8994 90.33 64.3873 94C62.8068 97.8364 60.0508 100.977 56.9853 103.711C49.9221 110.009 40.5201 114.814 32 118.88C27.1452 121.198 21.2675 122.77 17.1852 126.394C12.4917 130.559 10.1447 137.144 8.42438 143C4.99858 154.661 -4.55164 179.368 14 181z"/>
<path style="fill:#ffffff; stroke:none;" d="M39 157C36.1732 163.56 31.8991 169.08 28 175C33.7697 171.757 43.9087 164.356 39 157M15.6667 180.333C15.2223 180.778 16.2778 180.722 16.3333 180.667C16.7778 180.222 15.7222 180.278 15.6667 180.333z"/>
<path style="fill:#695944; stroke:none;" d="M0 211L0 220C2.00525 216.933 1.68733 214.198 0 211z"/>
<path style="fill:#ffffff; stroke:none;" d="M434 378L435 379L434 378z"/>
</svg>
