<?xml version="1.0" encoding="utf-8"?>
<!-- Generator: Adobe Illustrator 23.0.1, SVG Export Plug-In . SVG Version: 6.00 Build 0)  -->
<svg version="1.1" id="Layer_1" xmlns="http://www.w3.org/2000/svg" xmlns:xlink="http://www.w3.org/1999/xlink" x="0px" y="0px"
	 viewBox="0 0 478.47 274.89" style="enable-background:new 0 0 478.47 274.89;" xml:space="preserve">
<style type="text/css">
	.st0{fill:#6D5287;}
	.st1{fill:#896CA6;}
	.st2{fill:#2A363F;}
	.st3{fill:#FFFFFF;}
	.st4{fill:#826EAC;}
	.st5{fill:#8B7BAA;}
	.st6{fill:#8F463B;}
	.st7{fill:#D5D4D3;}
	.st8{fill:#69802B;}
	.st9{fill:#77912B;}
	.st10{fill:#85A429;}
	.st11{fill:#8EA63E;}
	.st12{fill:#B8C38B;}
	.st13{fill:#ADB393;}
	.st14{fill:#DD513F;}
	.st15{fill:#4D5138;}
	.st16{fill:#9AA962;}
	.st17{fill:#BAC09F;}
	.st18{fill:#E27533;}
	.st19{fill:#B8B0CC;}
	.st20{fill:#473D54;}
	.st21{fill:#CE5720;}
	.st22{fill:#C4805F;}
	.st23{fill:#218B57;}
	.st24{fill:#39AA6E;}
	.st25{fill:#89C8A5;}
	.st26{fill:#64BFB3;}
	.st27{fill:#318876;}
	.st28{fill:#A14525;}
	.st29{fill:#617729;}
	.st30{fill:#718A2B;}
	.st31{fill:#A49035;}
	.st32{fill:#A7B86A;}
	.st33{fill:#8B975F;}
	.st34{fill:#704D19;}
	.st35{fill:#E08276;}
	.st36{fill:#7F885A;}
	.st37{fill:#B4BB9A;}
	.st38{fill:#CC8455;}
	.st39{fill:#CA6222;}
	.st40{fill:#CD4433;}
	.st41{fill:#492917;}
	.st42{fill:#EFAE82;}
	.st43{fill:#BA7A50;}
	.st44{fill:#D39266;}
	.st45{fill:#DF864C;}
	.st46{fill:#8F98AD;}
	.st47{fill:#AEB8D1;}
	.st48{fill:#5C698B;}
	.st49{fill:#6F7D9D;}
	.st50{fill:#6E717D;}
	.st51{fill:#5B6681;}
	.st52{fill:#66779C;}
	.st53{fill:#8B95AD;}
	.st54{fill:#8C93A5;}
	.st55{fill:#D46D2E;}
	.st56{fill:#5E331A;}
	.st57{fill:#EEA34F;}
	.st58{fill:#894216;}
	.st59{fill:#E5AA25;}
	.st60{fill:#964F34;}
	.st61{fill:#AB5D41;}
	.st62{fill:#C69886;}
	.st63{fill:#80452F;}
	.st64{fill:#F3CC40;}
	.st65{fill:#C0502D;}
	.st66{fill:#DE653F;}
	.st67{fill:#F5CCBF;}
	.st68{fill:#532919;}
	.st69{fill:#C48F6C;}
	.st70{fill:#CD3F2E;}
	.st71{fill:#DC4632;}
	.st72{fill:#E96251;}
	.st73{fill:#A82B17;}
	.st74{fill:#E77767;}
	.st75{fill:#319885;}
	.st76{fill:#45AE9A;}
	.st77{fill:#369482;}
</style>
<g id="_x31_0-parasaurolophus_1_">
	<g id="_x31_0-parasaurolophus">
		<path class="st0" d="M118.2,122.04c0,0-3.32,4.31-4.69,9c-1.37,4.69-1.45,8.97-1.45,8.97s-10.97-2.46-16.19-3.19
			c-5.22-0.74-16.62,2.15-19.23,2.67c-2.61,0.52-3.46,2.65-3.46,2.65s3.76-0.91,4.54-0.39c0,0-3.27,1.46-4.21,4.19
			c0,0,5.02-1.61,6.4-0.99c0,0-0.63,1.23-0.5,2.84c0,0,8.47-4.4,12.07-3.68c3.6,0.73,19.27,8.24,25.1,9.22
			c5.83,0.98,8.92-4.3,10.06-8.22c1.14-3.93,2.88-11.15,1.72-16.21C127.2,123.83,125.14,118.74,118.2,122.04z"/>
		<path class="st0" d="M211.43,123.6c-5.63,7.87-12.1,21.15-12,35.01c0.09,13.86,0,23.21,4.44,31.51
			c4.45,8.3,20.14,31.94,21.82,38.98c1.68,7.04,1.35,9.53,0,14.31c-1.35,4.78-7.47,12.69-9.2,15.43c-1.73,2.74,5.92,1.67,5.92,1.67
			s0.63,2.01,2.76,2.46c2.12,0.45,4.81-1.64,4.81-1.64s1.78-2.36,3.96-2.37c2.17-0.01,4.29-5.27,3.79-8.04
			c-0.5-2.77,0.05-4.22,0.32-8.31c0.28-4.09,3.47-10.42,3.05-17.33c-0.42-6.91-4.96-9.09-5.59-15.03c-0.63-5.94-3.26-14.99-4.94-23
			c-1.68-8.01,1.48-10.94,6.2-14.31c4.72-3.36,16.4-8.33,22.04-21.85c5.64-13.52-2.75-29.95-12.55-35.34
			C236.47,110.38,217.06,115.73,211.43,123.6z"/>
		<path class="st1" d="M105.35,73.78c18.37-13.45,40.42-20.01,95.53-2.62s105.22,57.74,151.98,81.36
			c46.76,23.62,116.57-0.66,121.92-2.95c5.34-2.3,12.64,2-40.1,20.71c-51.5,18.27-111.71,6.7-138.77,0.47
			c-27.06-6.23-56.28-5.43-56.28-5.43s-55.45,0.98-78.16-4.26s-56.45-23.62-64.8-42.98C88.31,98.72,97.4,79.6,105.35,73.78z"/>
		<path class="st1" d="M202.1,113.94c-8.41,7.01-19.26,19.71-23.1,34.9c-3.84,15.2-0.33,23.88,2.17,34.24
			c2.51,10.35,6.18,32.73,6.01,40.92c-0.17,8.18-2.17,24.38-5.01,29.23c-2.84,4.84-10.35,7.68-13.03,10.19
			c-2.67,2.51,6.01,3.51,6.01,3.51s0.12,2.38,2.32,3.48c2.2,1.1,5.74-0.43,5.74-0.43s2.62-2.08,5-1.46c2.38,0.61,4.7,1.28,4.7,1.28
			s5.25-0.92,5.49-4.09c0.24-3.17-2.5-9.52-1.04-13.92s6.77-10.42,8.27-18.1c1.5-7.68-2.84-11.36-1.84-18.04
			c1-6.68,4.54-12.97,4.98-22.21c0.45-9.24,0.89-15.92,7.01-18.26c6.12-2.34,20.32-4.45,30.34-17.65
			c10.02-13.19,5.51-33.57-3.67-42.25C233.28,106.59,210.51,106.93,202.1,113.94z"/>
		<path class="st1" d="M119.75,122.41c0,0-0.13,6.19,1.78,11.4c1.91,5.21,4.72,9.19,4.72,9.19s-11.7,5.15-16.98,8
			c-5.28,2.85-13.77,13.18-15.81,15.41c-2.04,2.23-1.38,4.76-1.38,4.76s2.82-3.37,3.89-3.41c0,0-2.01,3.54-1.03,6.68
			c0,0,3.51-4.86,5.2-5.22c0,0,0.25,1.56,1.46,2.94c0,0,4.78-9.75,8.57-11.51c3.78-1.76,23.2-5.46,29.2-8.5
			c6-3.04,5.27-9.95,3.66-14.32c-1.61-4.37-4.88-12.16-9.36-16C129.19,117.98,123.88,114.71,119.75,122.41z"/>
		<path class="st1" d="M107.69,71.63c0,0-7.57,3.12-14.92,0c-7.35-3.12-12.47-15.59-15.59-26.28c-3.12-10.69-6.24-17.15-9.8-20.26
			c-3.56-3.12-4.95-7.85,1.89-11.52s21.88-4.01,27.39-2c5.51,2,7.18,5.34,10.69,4.01c3.51-1.34,5.01-4.68,2.34-7.68
			c-2.67-3.01-9.19-7.35-22.38-7.85c-13.19-0.5-35.07,3.84-46.43,7.85S16.17,19.75,9.15,25.26C2.14,30.77-1.04,34.61,0.3,37.28
			c1.34,2.67,3.17,4.68,6.18,5.01c3.01,0.33,10.86-0.67,15.2-0.17c4.34,0.5,15.1,3.64,21.21,12.86
			c10.19,15.36,15.37,36.91,32.07,48.93c16.7,12.02,28.22,14.36,28.22,14.36S117.21,76.09,107.69,71.63z"/>
		<path class="st18" d="M107.35,15.58c-3.51,1.33-5.17-2.01-10.69-4.01c-5.51-2-20.54-1.67-27.39,2c-2.35,1.26-3.73,2.65-4.38,4.05
			c-4.01-0.36-9.53-3.18-11.6-5.6c-2.86-3.34-19.19,4.53-25.39,8.35c-5.27,3.25-19.55,16.69-24.19,21
			c-1.47-0.89-2.55-2.35-3.41-4.07c-1.33-2.68,1.84-6.52,8.86-12.02c7.01-5.52,20.37-13.36,31.73-17.37
			c11.36-4.01,33.23-8.35,46.43-7.85c13.19,0.5,19.71,4.84,22.38,7.85C112.36,10.9,110.86,14.24,107.35,15.58z"/>
		<g>
			<path class="st2" d="M45.74,23.06c0.04,2.48-0.86,4.51-2.02,4.53c-1.16,0.02-2.13-1.97-2.18-4.45c-0.04-2.48,0.86-4.51,2.02-4.53
				C44.72,18.59,45.69,20.58,45.74,23.06z"/>
			<path class="st3" d="M45.13,20.48c0.01,0.63-0.49,1.15-1.12,1.16c-0.63,0.01-1.15-0.49-1.16-1.12c-0.01-0.63,0.49-1.15,1.12-1.16
				C44.6,19.35,45.12,19.85,45.13,20.48z"/>
		</g>
		<path class="st2" d="M40.35,16.68c0.37-1.42,1.69-2.54,3.14-2.74c1.32-0.18,3.21,0.33,3.68,1.72c0.07,0.2-0.14,0.41-0.34,0.35
			c-1.02-0.3-1.8-0.93-2.95-0.84c-1.31,0.11-2.2,0.84-3.01,1.8C40.67,17.21,40.28,16.96,40.35,16.68z"/>
		<path class="st2" d="M26.35,37.28c-4.71,1.13-10.15,1.84-14.38,4.29c-0.35,0.2-0.12,0.81,0.28,0.67
			c4.68-1.61,10.05-1.84,14.48-4.05C27.25,37.93,26.88,37.15,26.35,37.28z"/>
		<path class="st4" d="M209.79,110.94c-4.48,1.75-8.48,5.64-11.9,8.93c-3.69,3.55-7.07,7.42-9.92,11.67
			c-2.97,4.43-5.35,9.29-6.9,14.39c-1.41,4.64-2.85,10.73-1.46,15.5c0.34,1.18,2.29,1.33,2.54,0c0.93-4.88,0.7-9.74,2.18-14.6
			c1.53-5.03,3.94-9.74,6.91-14.07c2.85-4.15,6.21-7.92,9.83-11.41c3.15-3.03,7.05-5.68,9.7-9.15
			C211.2,111.62,210.46,110.68,209.79,110.94z"/>
		<path class="st4" d="M223.16,109.26c-2.46-1.03-5.63-0.44-8.16,0.04c-1.43,0.27-0.82,2.42,0.6,2.18c2.49-0.42,5.11-0.09,7.56-0.65
			C224.03,110.64,223.82,109.55,223.16,109.26z"/>
		<path class="st5" d="M253.24,139.87c-0.42-0.6-1.41-0.41-1.42,0.38c-0.05,4.54-1.85,9.27-3.64,13.41
			c-0.84,1.93-1.79,3.84-2.97,5.59c-2,2.98-6.7,5.68-6.41,5.72c1.77,0.24,3.87-0.25,5.75-1.76c2.86-2.3,5.32-6.28,6.2-8.27
			C252.5,150.97,256.06,143.96,253.24,139.87z"/>
		<path class="st4" d="M127.83,142.69c-4.29-6.95-7.74-13.28-5.23-21.64c0.22-0.72-0.79-1.1-1.18-0.5c-4.89,7.52,0,17.07,5.25,23.03
			C127.22,144.22,128.26,143.4,127.83,142.69z"/>
		<path class="st4" d="M124.41,143.67c-0.87,0-1.64,0.7-2.31,1.2c-0.67,0.5-1.34,1.01-1.81,1.71c-0.27,0.4,0.18,0.8,0.57,0.74
			c0.82-0.13,1.58-0.54,2.3-0.93c0.68-0.37,1.62-0.76,1.96-1.48C125.39,144.36,125.08,143.66,124.41,143.67z"/>
		<path class="st5" d="M139.78,130.87c-0.11-0.15-0.35-0.02-0.25,0.15c3.57,6.17,6.73,15.01,0.63,20.62
			c-0.43,0.4,0.03,1.04,0.54,0.93c3.62-0.77,4.82-4.85,4.78-8.15C145.44,139.46,142.64,134.76,139.78,130.87z"/>
		<path class="st5" d="M138.79,127.5c-0.22-0.4-0.93-0.12-0.76,0.32c0.3,0.75,0.56,1.45,1.09,2.07c0.23,0.26,0.57-0.03,0.52-0.3
			C139.53,128.81,139.16,128.18,138.79,127.5z"/>
		<g>
			<path class="st5" d="M208.58,127.15c-1.46,0.56-2.84,1.1-4.16,1.95c-1.11,0.72-2.78,1.42-3,2.87c-0.1,0.61,0.15,1.16,0.77,1.36
				c1.43,0.46,2.74-0.66,3.91-1.36c1.36-0.81,2.46-1.79,3.62-2.86C210.55,128.35,209.69,126.72,208.58,127.15z"/>
			<path class="st5" d="M215.16,129.45c-0.19,0.06-0.4,0.16-0.6,0.2c-0.25,0.05-0.43,0.03-0.67,0.16c-0.38,0.2-0.73,0.45-1.09,0.68
				c-0.68,0.44-0.26,1.68,0.58,1.38c0.4-0.14,0.79-0.29,1.18-0.45c0.43-0.17,0.71-0.53,1.08-0.79
				C216.2,130.23,215.89,129.21,215.16,129.45z"/>
			<path class="st5" d="M206.2,136.53c-0.22,0.32-0.45,0.57-0.79,0.77c-0.02,0.01-0.04,0.02-0.07,0.03c-0.02,0-0.03,0-0.07,0
				c-0.1,0.01-0.21,0.03-0.31,0.04c-0.18,0.04-0.33,0.12-0.5,0.2c-0.19,0.09,0.06,0-0.16,0.08c-1.14,0.41-0.92,1.97,0.28,2.07
				c0.44,0.04,0.9,0,1.27-0.24c0.29-0.19,0.52-0.49,0.73-0.75c0.44-0.54,0.75-1.19,0.73-1.9
				C207.3,136.22,206.53,136.03,206.2,136.53z"/>
			<path class="st5" d="M199.2,141.62c-0.77-0.07-1.78,0.48-2.46,0.84c-0.79,0.43-1.49,0.96-2.17,1.54
				c-0.79,0.67,0.05,2.06,1.01,1.74c0.85-0.29,1.67-0.62,2.44-1.09c0.67-0.4,1.62-0.96,1.96-1.67
				C200.29,142.33,199.91,141.69,199.2,141.62z"/>
			<path class="st5" d="M212.07,138.24c-0.83-0.09-1.49,0.56-2.07,1.07c-0.53,0.48-0.99,1.02-1.42,1.59
				c-0.35,0.47-0.12,1.22,0.31,1.54c0.43,0.32,1.18,0.37,1.56-0.09c0.38-0.47,0.81-0.91,1.28-1.3c0.18-0.15,0.36-0.27,0.55-0.4
				c0.42-0.29,0.63-0.58,0.81-1.06C213.34,138.87,212.69,138.3,212.07,138.24z"/>
			<path class="st5" d="M225.06,128.16c-0.46,0.32-0.85,0.68-1.25,1.08c-0.57,0.57,0.31,1.44,0.88,0.88c0.4-0.4,0.76-0.79,1.08-1.25
				C226.07,128.45,225.48,127.87,225.06,128.16z"/>
			<path class="st5" d="M217.22,143.46c-0.41,0.1-0.79,0.21-1.15,0.45c-0.31,0.2-0.62,0.4-0.93,0.61c-0.49,0.31-0.69,0.95-0.39,1.47
				c0.3,0.51,0.96,0.67,1.47,0.38c0.32-0.18,0.65-0.36,0.97-0.54c0.38-0.21,0.65-0.48,0.94-0.8
				C218.75,144.33,218.15,143.23,217.22,143.46z"/>
			<path class="st5" d="M204.42,147.95c-0.73-0.22-1.61-0.18-2.27,0.23c-0.72,0.45-1.15,1.19-1.43,1.97
				c-0.35,0.97,1.06,1.77,1.74,1.01c0.36-0.4,0.75-0.64,1.15-0.96c0.4-0.32,0.74-0.72,1.14-1.05
				C205.17,148.79,204.9,148.09,204.42,147.95z"/>
		</g>
		<g>
			<path class="st19" d="M171.94,103.05c-0.77-10.24-2.21-21.11-6.5-30.52c-1.07-2.35-4.16-0.52-3.84,1.62
				c1.53,10.13,4.07,19.95,4.71,30.23c0.3,4.89,0.33,9.78,0.13,14.67c-0.19,4.63-1.64,10.02-0.61,14.54
				c0.43,1.88,3.17,2.17,4.09,0.53c2.24-4.01,2.02-9.9,2.25-14.4C172.47,114.17,172.36,108.59,171.94,103.05z"/>
			<path class="st19" d="M197.49,84.21c-1.11-5.01-2.24-10.97-5.16-15.28c-0.61-0.9-2.37-0.68-2.25,0.61
				c0.46,4.85,2.44,9.63,3.53,14.38c1.15,5.01,1.24,10.64,3,15.46c0.4,1.1,2.36,1.44,2.59,0C199.98,94.46,198.55,89.01,197.49,84.21
				z"/>
			<path class="st19" d="M137.72,81.19c-1.08-5.12-2.07-11.17-4.86-15.66c-0.62-1-2.49-0.68-2.37,0.64
				c0.43,5.16,2.48,10.27,3.47,15.36c1.06,5.43,1.79,10.97,3.19,16.32c0.28,1.06,1.7,0.73,1.8-0.24
				C139.54,92.13,138.85,86.56,137.72,81.19z"/>
			<path class="st19" d="M277.96,151.98c-0.07-2.26,0.33-4.46,0.38-6.72c0.1-4.7-0.18-9.46-0.52-14.15
				c-0.31-4.26-0.75-8.55-1.62-12.74c-0.82-3.93-1.92-9.16-5.24-11.75c-1.01-0.78-2.56-0.35-2.59,1.07
				c-0.09,4.01,1.97,8.14,2.74,12.08c0.93,4.75,1.19,9.58,1.46,14.4c0.24,4.29,0.22,8.73,1.16,12.93c0.48,2.16,1.2,4.27,1.71,6.44
				c0.48,2.03,0.73,4.2,1.91,5.95c0.37,0.55,1.09,0.29,1.17-0.32C278.81,156.79,278.04,154.4,277.96,151.98z"/>
			<path class="st19" d="M308.82,156c-0.29-4.51,0.41-8.86,0.03-13.35c-0.16-1.85-0.3-17.82-4.47-16.02
				c-2.34,1.01-1.96,4.07-1.86,6.18c0.18,3.75,0.65,7.51,1.06,11.25c0.41,3.85,1.85,7.38,2.3,11.25c0.19,1.67,0.63,3.47,0.54,5.14
				c-0.09,1.52-0.52,3.01-0.61,4.54c-0.08,1.37,1.8,1.71,2.46,0.67C310.01,162.86,309.03,159.13,308.82,156z"/>
			<path class="st19" d="M239.01,105.72c-0.84-6.16-1.98-12.24-3.16-18.34c-0.46-2.35-3.99-1.34-3.58,0.99
				c1.08,6.11,2.2,12.18,3.57,18.23c1.24,5.45,1.43,11.86,3.95,16.87c0.35,0.69,1.21,0.26,1.29-0.35
				C241.82,117.53,239.76,111.24,239.01,105.72z"/>
			<path class="st19" d="M350.97,163.6c-0.09-3.99,0.16-8.96-1.9-12.51c-0.74-1.28-2.7-0.98-3.11,0.41
				c-1.11,3.76-0.17,8.2-0.31,12.1c-0.12,3.44-1.21,7.95,0.77,10.99c0.5,0.77,1.53,0.93,2.21,0.29
				C351.44,172.22,351.05,167.17,350.97,163.6z"/>
			<path class="st19" d="M118.56,94.2c-0.84-6.24-1.49-14.85-5.64-19.85c-0.54-0.65-1.41-0.04-1.49,0.62
				c-0.4,3.19,0.64,6.58,1.22,9.71c0.67,3.58,1.25,7.16,1.66,10.78c0.74,6.46,0.36,13.53,2.15,19.77c0.23,0.81,1.29,0.72,1.55,0
				C120.39,108.82,119.46,100.84,118.56,94.2z"/>
			<path class="st19" d="M380.49,164.3c-0.3-1.2-1.93-4.9-3.75-3.23c-1.39,1.28-1.1,3.54-0.97,5.25c0.14,1.78,0.51,4.01,1.77,5.35
				c0.47,0.5,1.27,0.44,1.74,0C381.12,169.96,381.06,166.55,380.49,164.3z"/>
			<path class="st19" d="M403.16,167.6c-0.47-1.4-1.21-3.53-2.79-3.95c-0.36-0.1-0.64,0.12-0.77,0.44
				c-0.56,1.36,0.37,3.24,0.68,4.61c0.37,1.66,0.22,3.36,1.33,4.73c0.51,0.63,1.57,0.38,1.94-0.25
				C404.53,171.48,403.74,169.33,403.16,167.6z"/>
			<path class="st19" d="M426.48,165.31c-0.47-1.11-0.89-2.17-1.73-3.06c-0.75-0.8-2.28-0.21-2.22,0.92
				c0.06,1.22,0.51,2.28,0.91,3.42c0.38,1.08,0.74,2.27,1.76,2.89c0.76,0.46,1.62-0.01,1.9-0.77
				C427.5,167.59,426.92,166.35,426.48,165.31z"/>
			<path class="st19" d="M442.48,159.86c-1-1.19-2.96,0.08-2.55,1.48c0.4,1.35,0.58,3.44,2.08,3.98c0.66,0.4,1.67,0.3,1.86-0.57
				C445.05,163.25,443.5,161.07,442.48,159.86z"/>
		</g>
		<path class="st20" d="M198.02,265.02c0,0,3,4.5,0,8.84l-5.1-3.9C192.93,269.97,192.18,263.37,198.02,265.02z"/>
		<path class="st20" d="M174.92,267.2c0,0-0.55-4.71-3.18-4.71c-2.63,0-9,5.26-6.92,6.09C166.89,269.41,174.09,268.44,174.92,267.2z
			"/>
		<path class="st20" d="M174.96,274.87c0.63,0.28,6.9-3.2,7.07-4.38s-1.18-3.87-3.53-4.38c-2.36-0.51-3.37-0.84-3.87,0.84
			C174.12,268.65,173.45,274.2,174.96,274.87z"/>
		<path class="st20" d="M222.54,259.34c0,0-0.9-3.73-3.01-3.47c-2.11,0.26-6.72,5.1-4.97,5.56
			C216.3,261.89,221.99,260.42,222.54,259.34z"/>
		<path class="st20" d="M224.51,265.14c0.54,0.16,5.23-3.24,5.25-4.2c0.02-0.96-1.32-3-3.26-3.17c-1.94-0.18-2.79-0.35-3.03,1.05
			C223.22,260.22,223.22,264.75,224.51,265.14z"/>
	</g>
	<path id="_x31_0-silhouette" d="M474.77,149.57c-5.34,2.3-75.15,26.57-121.92,2.95c-46.76-23.62-96.87-63.97-151.98-81.36
		c-52.43-16.54-74.93-11.4-92.81,0.72c-0.13-0.08-0.24-0.18-0.38-0.24c0,0-7.57,3.12-14.92,0c-7.35-3.12-12.47-15.59-15.59-26.28
		c-3.12-10.69-6.23-17.15-9.8-20.26c-2.37-2.07-3.76-4.86-2.42-7.58c0.14-0.28,0.31-0.56,0.51-0.84c0.03-0.04,0.05-0.09,0.09-0.13
		c0.23-0.31,0.51-0.61,0.82-0.92c0.09-0.08,0.19-0.17,0.28-0.25c0.25-0.22,0.52-0.44,0.81-0.65c0.13-0.1,0.27-0.2,0.41-0.3
		c0.38-0.26,0.79-0.51,1.24-0.76c0.06-0.03,0.1-0.06,0.16-0.09c6.85-3.67,21.88-4.01,27.39-2c4.41,1.6,6.37,4.02,8.77,4.26
		c0.6,0.06,1.22,0.02,1.91-0.25c2.63-1,4.14-3.13,3.6-5.4c-0.18-0.76-0.59-1.53-1.26-2.28c-0.53-0.6-1.22-1.25-2.07-1.91
		c-3.45-2.67-9.73-5.54-20.3-5.94c-9.26-0.35-22.77,1.68-33.95,4.31c-4.76,1.12-9.09,2.34-12.49,3.54c-3.22,1.14-6.61,2.59-9.96,4.2
		c-6.78,3.26-13.44,7.21-18.4,10.68c-1.23,0.86-2.37,1.7-3.37,2.48c-1.53,1.2-2.84,2.31-4,3.36C1,32.38-0.74,35.19,0.3,37.29
		c0.04,0.08,0.09,0.15,0.13,0.23c0.16,0.3,0.32,0.59,0.49,0.87c0.07,0.12,0.15,0.23,0.23,0.35c0.16,0.25,0.33,0.48,0.5,0.71
		c0.08,0.1,0.16,0.2,0.24,0.3c0.22,0.27,0.46,0.52,0.71,0.75c0.04,0.03,0.07,0.07,0.11,0.11c0.31,0.28,0.64,0.52,0.99,0.74
		c0.01,0,0.01,0.01,0.02,0.02c0,0,0,0,0,0c0.8,0.49,1.71,0.82,2.77,0.94c1.23,0.14,3.29,0.05,5.57-0.07
		c0.06,0.02,0.13,0.04,0.21,0.01c0.03-0.01,0.06-0.02,0.1-0.03c3.22-0.17,6.84-0.37,9.32-0.08c4.34,0.5,15.1,3.64,21.21,12.86
		c10.19,15.36,15.36,36.91,32.07,48.93c8.64,6.22,15.87,9.83,20.86,11.89c0.27,0.75,0.53,1.51,0.85,2.26
		c2.81,6.51,8.5,12.91,15.67,18.74c-0.24,1.9-0.27,3.19-0.27,3.19s-10.97-2.46-16.19-3.19s-16.62,2.15-19.23,2.67
		c-2.61,0.52-3.46,2.65-3.46,2.65s3.76-0.91,4.54-0.39c0,0-3.27,1.46-4.21,4.19c0,0,5.02-1.61,6.4-0.99c0,0-0.63,1.23-0.5,2.84
		c0,0,8.47-4.4,12.07-3.68c2.51,0.51,10.92,4.32,17.75,6.91c-5.28,2.88-13.73,13.16-15.76,15.39c-2.04,2.23-1.38,4.76-1.38,4.76
		s2.82-3.36,3.89-3.41c0,0-2.01,3.54-1.03,6.68c0,0,3.51-4.86,5.2-5.22c0,0,0.25,1.56,1.46,2.94c0,0,4.78-9.75,8.57-11.51
		c3.56-1.66,20.92-5.02,27.97-7.94c8.11,3.81,16.25,6.72,23.32,8.35c4.31,1,9.8,1.77,15.87,2.36c0.28,7.26,2.26,13.14,3.84,19.67
		c2.51,10.35,6.18,32.73,6.01,40.92c-0.17,8.18-2.17,24.38-5.01,29.23c-2.81,4.79-10.17,7.62-12.92,10.1
		c-2.8,1.52-5.99,4.63-4.43,5.25c1.87,0.75,7.86,0.04,9.65-1.02c-0.47,2.12-0.88,6.7,0.49,7.31c0.63,0.28,6.9-3.2,7.07-4.38
		c0-0.03,0-0.08,0-0.11c0.7-0.2,1.18-0.41,1.18-0.41s2.62-2.08,5-1.46c2.38,0.61,4.7,1.28,4.7,1.28c0.01,0.1,0.01,0.17,0.01,0.17
		l5.1,3.9c2.29-3.33,1.08-6.73,0.38-8.15c0,0,0,0,0-0.01c0.24-3.17-2.5-9.52-1.04-13.92c1.46-4.39,6.77-10.42,8.27-18.1
		c1.5-7.68-2.84-11.36-1.84-18.04c0.84-5.58,3.42-10.92,4.52-17.91c6.38,10.53,16.07,25.92,17.37,31.37c1.68,7.04,1.35,9.53,0,14.31
		c-1.06,3.75-5.06,9.43-7.56,13.02c-2.22,1.35-4.98,4.61-3.56,4.99c1.03,0.27,3.4-0.12,5.31-0.72c1.34-0.03,2.54-0.2,2.54-0.2
		s0.26,0.81,0.99,1.52c0.11,1.48,0.42,2.9,1.11,3.11c0.41,0.13,3.28-1.86,4.59-3.22c0.53-0.32,0.89-0.59,0.89-0.59
		s1.78-2.36,3.96-2.37c2.17-0.01,4.29-5.27,3.79-8.04c-0.5-2.77,0.05-4.22,0.32-8.31c0.28-4.09,3.47-10.42,3.05-17.33
		c-0.42-6.91-4.96-9.09-5.59-15.03c-0.63-5.94-3.26-14.99-4.94-23c-1.67-8.01,1.48-10.94,6.2-14.31c2.47-1.76,6.86-3.98,11.28-7.62
		c10.63,0.22,29.72,1.23,47.85,5.41c27.06,6.23,87.27,17.8,138.77-0.47C487.41,151.57,480.12,147.27,474.77,149.57z"/>
</g>
</svg>
