<?xml version="1.0" encoding="UTF-8" standalone="no"?>
<!-- Created with Inkscape (http://www.inkscape.org/) -->

<svg
   xmlns:dc="http://purl.org/dc/elements/1.1/"
   xmlns:cc="http://creativecommons.org/ns#"
   xmlns:rdf="http://www.w3.org/1999/02/22-rdf-syntax-ns#"
   xmlns:svg="http://www.w3.org/2000/svg"
   xmlns="http://www.w3.org/2000/svg"
   xmlns:sodipodi="http://sodipodi.sourceforge.net/DTD/sodipodi-0.dtd"
   xmlns:inkscape="http://www.inkscape.org/namespaces/inkscape"
   width="927.37128mm"
   height="236.4117mm"
   viewBox="0 0 3285.9613 837.67923"
   id="svg2"
   version="1.1"
   inkscape:version="0.91 r13725"
   sodipodi:docname="Tenontosaurus Silhouette.svg">
  <defs
     id="defs4" />
  <sodipodi:namedview
     id="base"
     pagecolor="#ffffff"
     bordercolor="#666666"
     borderopacity="1.0"
     inkscape:pageopacity="0.0"
     inkscape:pageshadow="2"
     inkscape:zoom="1.4"
     inkscape:cx="1790.5623"
     inkscape:cy="88.288703"
     inkscape:document-units="px"
     inkscape:current-layer="layer1"
     showgrid="false"
     inkscape:window-width="1366"
     inkscape:window-height="709"
     inkscape:window-x="0"
     inkscape:window-y="0"
     inkscape:window-maximized="1"
     fit-margin-top="0"
     fit-margin-left="0"
     fit-margin-right="0"
     fit-margin-bottom="0" />
  <metadata
     id="metadata7">
    <rdf:RDF>
      <cc:Work
         rdf:about="">
        <dc:format>image/svg+xml</dc:format>
        <dc:type
           rdf:resource="http://purl.org/dc/dcmitype/StillImage" />
        <dc:title />
      </cc:Work>
    </rdf:RDF>
  </metadata>
  <g
     inkscape:label="Layer 1"
     inkscape:groupmode="layer"
     id="layer1"
     transform="translate(2042.8856,-236.48023)">
    <path
       style="color:#000000;clip-rule:nonzero;display:inline;overflow:visible;visibility:visible;opacity:1;isolation:auto;mix-blend-mode:normal;color-interpolation:sRGB;color-interpolation-filters:linearRGB;solid-color:#000000;solid-opacity:1;fill:#000000;fill-opacity:1;fill-rule:evenodd;stroke:none;stroke-width:1.30599999;stroke-linecap:round;stroke-linejoin:miter;stroke-miterlimit:4;stroke-dasharray:none;stroke-dashoffset:0;stroke-opacity:1;color-rendering:auto;image-rendering:auto;shape-rendering:auto;text-rendering:auto;enable-background:accumulate"
       d="m 174.44543,723.18449 c 0,0 132.07206,7.09855 197.98119,3.55416 42.56352,-2.28894 126.87097,-15.99358 126.87097,-15.99358 0,0 -22.89144,54.87776 -26.04191,84.03341 -1.53005,14.15958 0.66376,28.64277 3.63734,42.57088 3.31621,15.53288 11.74408,29.60693 15.6853,44.99311 8.43892,32.94481 9.92505,67.32908 16.86682,100.62153 2.50183,11.99866 7.62492,23.4836 8.92042,35.6717 0.67621,6.3618 0.87931,16.0761 4.28785,21.4902 1.93218,3.0689 5.0356,2.0664 5.0356,2.0664 l 5.01438,1.1774 c 0,0 5.0193,14.7911 9.32052,17.6048 3.2861,2.1496 5.85379,-10.7792 5.85379,-10.7792 2.22517,4.347 3.69107,9.0737 8.4514,12.1532 l -6.32626,7.8752 12.62132,-1.6844 c 0,0 8.72436,5.5984 14.53696,5.62 7.26868,0.027 21.3694,-4.3426 21.3694,-4.3426 0,0 8.13189,1.527 14.25905,-1.3475 3.67075,-1.722 4.78027,-6.9498 8.37903,-8.8176 3.34138,-1.7343 7.17271,-1.6498 7.17271,-1.6498 0,0 -4.6159,-8.505 -9.76485,-11.5758 -4.29918,-2.5639 -5.06529,-4.5003 -9.96639,-5.5182 -2.96714,-0.6161 -4.46348,1.2157 -7.08634,-0.3023 -3.15228,-1.8244 -5.7553,-9.2877 -5.7553,-9.2877 0,0 2.31645,-5.2331 2.28789,-8.0096 -0.10624,-10.3285 -4.84635,-20.2115 -9.12194,-29.61411 -3.01525,-6.63096 -6.45981,-16.55542 -6.45981,-16.55542 0,0 -7.7978,-86.97064 -14.11934,-128.06887 -1.65243,-10.7429 -5.95099,-30.10065 -5.95099,-30.10065 0,0 1.94599,-17.76866 4.91162,-26.1151 2.52086,-7.09469 10.76767,-19.85601 10.76767,-19.85601 0,0 10.26918,47.31164 20.99257,66.22119 7.75527,13.67557 16.46087,20.13961 28.34919,30.42714 33.12508,28.66468 71.29135,50.99282 105.54117,78.3037 8.42861,6.72099 16.77896,13.57888 24.56812,21.03154 5.50508,5.26727 10.70025,10.8699 15.61613,16.69089 7.56654,8.95967 9.67916,29.5426 21.30423,27.998 6.7586,-0.8981 7.7053,-18.94724 7.7053,-18.94724 0,0 13.76276,7.75054 19.78885,12.78684 3.65385,3.0537 5.79415,8.4549 10.52147,9.0277 4.08031,0.4946 7.55137,-1.7467 9.56965,-5.3272 0.66137,-1.1733 0.13434,-4.0384 0.13434,-4.0384 0,0 12.46267,6.1515 18.9136,8.715 9.80082,3.8945 29.98555,10.0939 29.98555,10.0939 0,0 -8.49981,-20.2711 -15.21309,-28.80603 -6.21031,-7.89552 -22.58252,-19.95479 -22.58252,-19.95479 0,0 27.34787,13.82893 37.88096,17.97286 11.10481,4.36884 26.97016,7.43096 26.97016,7.43096 0,0 -13.23283,-20.78851 -20.51586,-28.68643 -10.8899,-11.80931 -35.25092,-26.73651 -35.25092,-26.73651 0,0 14.72755,3.32964 22.14389,2.75809 9.87388,-0.76094 28.57091,-8.14593 28.57091,-8.14593 0,0 -16.61833,-4.56549 -23.96156,-8.88283 -5.57584,-3.27823 -9.18965,-9.29917 -14.74087,-12.61893 -12.24696,-7.32394 -26.93245,-9.55164 -39.91356,-15.47776 -13.28827,-6.06635 -26.42631,-12.6277 -38.73603,-20.49216 -43.14513,-27.56468 -122.23404,-93.00898 -122.23404,-93.00898 l -5.66255,-133.60229 14.73889,-17.70249 c 4.91295,-5.90081 8.85355,-12.77094 14.73886,-17.70247 15.75818,-13.20438 35.18755,-21.36123 53.57366,-30.56051 44.98924,-22.50988 91.17054,-42.87879 138.44472,-60.07987 51.0314,-18.56816 106.79816,-23.76003 156.18075,-46.35057 28.6228,-13.0937 79.5189,-50.92232 79.5189,-50.92232 0,0 17.6698,-3.28264 26.4509,-5.18433 22.5132,-4.87553 36.3593,-10.2327 60.8127,-16.16973 12.4383,-3.0199 24.7301,-33.54148 24.7301,-33.54148 l 6.0576,0.20151 c 0,0 -6.478,-30.80312 -21.648,-45.88511 -19.3478,-19.23535 -54.4853,-38.81328 -80.3606,-47.46173 -26.1986,-8.75648 -54.0073,-11.85289 -81.3405,-15.84523 -20.7003,-3.02353 -41.7441,-9.03159 -62.46047,-6.12074 -16.72538,2.35008 -31.58064,12.01329 -47.11306,18.64691 -18.69529,7.98442 -38.34029,14.42807 -55.42492,25.44537 -32.43802,20.91819 -53.58635,57.36101 -87.42562,75.92708 -21.47095,11.78013 -45.99724,22.51392 -70.43448,20.9032 C 697.6854,402.74523 657.99411,371.40402 621.4569,357.01716 565.75923,335.08566 514.61067,314.71603 459.4252,299.06981 394.60788,280.69275 328.04704,268.88577 261.7107,257.1175 c -39.68809,-7.04078 -79.46228,-14.83361 -119.70507,-17.12151 -92.624511,-5.26593 -185.445901,6.52124 -278.20933,7.92684 -38.40501,0.58195 -77.0582,4.49256 -115.22806,0.20953 -12.27184,-1.37702 -23.83167,-6.96098 -36.11029,-8.27628 -51.94721,-5.56462 -104.78143,-3.76344 -156.72217,1.86127 -41.32767,4.47541 -80.89732,19.93195 -122.1253,25.24786 -81.78574,10.54543 -164.61887,10.59018 -247.04626,13.00639 -94.3131,2.76461 -188.71012,0.47296 -283.05572,1.70134 -75.8627,0.98772 -152.299,-5.01464 -227.5617,4.55818 -91.4038,11.6258 -179.6645,41.07083 -268.9511,63.82396 -119.5147,30.45626 -240.4826,56.80252 -356.9852,97.28092 -30.8787,10.72868 -68.1842,14.29327 -90.2214,38.43774 -1.6525,1.81057 -3.5287,4.90597 -2.2543,6.99999 2.649,4.35272 9.9954,2.14347 15.0767,2.52299 6.7241,0.50221 13.5255,0.41953 20.2256,-0.33787 123.0227,-13.90679 241.2126,-56.77952 363.3806,-76.85393 108.5484,-17.83648 217.8227,-34.36678 327.7446,-38.62169 50.471,-1.95365 101.5045,-1.76374 151.4056,6.04756 63.661,9.96521 123.2369,38.31963 186.27306,51.67879 81.22869,17.21464 164.72921,21.57502 246.41012,36.49731 95.63468,17.4715 190.10497,40.81674 284.97821,62.03744 39.50425,8.83607 79.3406,16.40525 118.35961,27.18385 51.67059,14.27347 152.99008,49.56086 152.99008,49.56086 0,0 -17.15506,16.07091 -24.09391,25.47695 -16.00377,21.69414 -24.0193,48.53805 -39.73962,70.43848 -14.35509,19.99851 -29.41721,35.35006 -45.02466,54.38731 -8.5871,10.47418 -19.35164,23.2542 -28.63611,33.11552 -6.53664,6.94276 -15.9237,10.99822 -21.83961,18.47697 -6.91576,8.74273 -14.25195,25.21497 -13.21399,36.31388 2.43795,26.06881 2.51949,72.48717 2.51949,72.48717 0,0 -2.14388,11.51168 -5.58535,15.98556 -2.79238,3.6301 -8.88275,3.86443 -11.37422,7.70731 -1.29525,1.99782 -1.24469,7.03357 -1.24469,7.03357 0,0 -5.45735,12.13361 -10.63333,15.81764 -5.72811,4.077 -20.3934,5.38584 -20.3934,5.38584 0,0 16.74237,5.04192 25.1391,3.86844 5.21972,-0.72947 9.30588,-5.13464 14.36941,-6.59695 5.90328,-1.70482 18.27346,-2.42423 18.27346,-2.42423 0,0 -3.93186,12.63574 -5.68611,19.01437 -3.38004,12.29013 -10.79616,21.18153 -7.77294,33.56433 2.09024,8.5612 12.12038,18.791 20.31888,22.0235 36.42815,14.3629 42.65846,30.5192 114.13432,30.5843 7.38477,0.01 14.80999,-2.4285 21.92272,-4.4146 6.93301,-1.9357 12.71111,-3.1611 19.90725,-3.333 9.11368,-0.2177 27.19186,2.926 27.19186,2.926 l -0.11098,-4.8374 c 0,0 6.05234,-0.8664 7.37966,-0.9851 4.49959,-0.4025 11.91361,6.4606 11.91361,6.4606 0,0 -2.75217,-12.3021 -6.93812,-16.6981 -5.13986,-5.398 -13.14049,-7.3815 -19.87198,-10.5819 -3.81034,-1.8116 -6.63133,-2.7128 -10.54688,-4.2841 -9.56048,-3.8366 -19.78547,-6.9396 -30.0863,-7.0652 -24.94027,-0.304 -38.09557,-4.12 -54.51361,-12.4046 -10.09095,-5.092 -18.47515,-19.6146 -21.17914,-30.58929 -7.16957,-29.09898 -8.85164,-53.18797 -10.47141,-80.19456 -1.34945,-22.49953 18.33662,-65.08622 18.33662,-65.08622 0,0 22.83212,-30.43731 73.5956,-55.16223 42.13066,-20.5202 92.129778,-32.30071 155.169209,-76.70556 9.017251,-6.35174 28.8396017,-16.22269 28.8396017,-16.22269 l 42.0670853,11.50658 c 0,0 -3.856916,17.33605 -3.902029,26.14867 -0.141685,27.67814 13.136982,54.62251 11.413818,82.24734 -1.291554,20.70549 -13.349647,39.54949 -16.149501,60.10543 -1.818311,13.34964 -10.901675,32.06027 -0.33388,40.41735 30.397723,24.03866 95.274186,56.92206 95.274186,56.92206 0,0 8.95526,6.19063 9.62572,11.9448 0.49293,4.23057 -4.34508,7.7227 -4.44141,11.98081 -0.11326,5.00441 -0.3598,4.24711 -0.47298,9.25151 -0.12042,5.3227 -1.87037,8.1779 -5.04669,12.4506 -5.42771,7.3012 -17.73184,12.4172 -17.73184,12.4172 0,0 22.66944,-1.7413 35.09718,-6.7669 5.8065,-2.3481 8.82481,-7.6325 8.82481,-7.6325 0,0 1.19758,-0.321 2.01864,-0.9099 4.24876,-3.045 5.12598,-8.9488 6.68504,-13.9381 1.2422,-3.97551 0.90977,-3.62959 0.90977,-3.62959 0,0 36.48588,26.76079 49.41561,40.77759 2.97672,3.227 9.20162,7.8234 13.59129,7.895 6.0974,0.099 13.47592,1.6229 19.57265,1.4884 6.39608,-0.1413 11.53444,-3.2896 17.8495,-2.2649 7.90036,1.2817 23.01914,6.83 23.01914,6.83 l -3.42648,-9.629 c 0,0 7.82626,-3.5014 11.93985,-3.2269 7.54999,0.5038 20.9328,8.782 20.9328,8.782 0,0 -17.51699,-27.5975 -31.16508,-35.401 -5.62269,-3.2148 -13.30163,-0.744 -19.08152,-3.6669 -30.19813,-15.27091 -46.29286,-50.27739 -74.5206,-68.94078 -14.26476,-9.43145 -31.8051,-12.79304 -46.80463,-21.00581 -15.90477,-8.70841 -45.500899,-29.81361 -45.500899,-29.81361 0,0 2.966451,-14.98941 5.786869,-22.04313 15.71039,-39.29089 43.35048,-72.84435 61.30854,-111.16011 5.15227,-10.99303 13.25706,-33.92317 13.25706,-33.92317 z"
       id="path4147"
       inkscape:connector-curvature="0"
       sodipodi:nodetypes="cscssssssccsccccscsscssscsscscscsssssscssscscscscscscssssccssssscssccssssssssssssssssssssssssssssssssscsssssscsscscsscssssssccscssssssscssccsssscsssscscsscssssccscsssscsscc" />
  </g>
</svg>
