<?xml version="1.0" encoding="utf-8"?>
<!-- Generator: Adobe Illustrator 23.0.1, SVG Export Plug-In . SVG Version: 6.00 Build 0)  -->
<svg version="1.1" id="Layer_1" xmlns="http://www.w3.org/2000/svg" xmlns:xlink="http://www.w3.org/1999/xlink" x="0px" y="0px"
	 viewBox="0 0 483.73 216.31" style="enable-background:new 0 0 483.73 216.31;" xml:space="preserve">
<style type="text/css">
	.st0{fill:#6D5287;}
	.st1{fill:#896CA6;}
	.st2{fill:#2A363F;}
	.st3{fill:#FFFFFF;}
	.st4{fill:#826EAC;}
	.st5{fill:#8B7BAA;}
	.st6{fill:#8F463B;}
	.st7{fill:#D5D4D3;}
	.st8{fill:#69802B;}
	.st9{fill:#77912B;}
	.st10{fill:#85A429;}
	.st11{fill:#8EA63E;}
	.st12{fill:#B8C38B;}
	.st13{fill:#ADB393;}
	.st14{fill:#DD513F;}
	.st15{fill:#4D5138;}
	.st16{fill:#9AA962;}
	.st17{fill:#BAC09F;}
	.st18{fill:#E27533;}
	.st19{fill:#B8B0CC;}
	.st20{fill:#473D54;}
	.st21{fill:#CE5720;}
	.st22{fill:#C4805F;}
	.st23{fill:#218B57;}
	.st24{fill:#39AA6E;}
	.st25{fill:#89C8A5;}
	.st26{fill:#64BFB3;}
	.st27{fill:#318876;}
	.st28{fill:#A14525;}
	.st29{fill:#617729;}
	.st30{fill:#718A2B;}
	.st31{fill:#A49035;}
	.st32{fill:#A7B86A;}
	.st33{fill:#8B975F;}
	.st34{fill:#704D19;}
	.st35{fill:#E08276;}
	.st36{fill:#7F885A;}
	.st37{fill:#B4BB9A;}
	.st38{fill:#CC8455;}
	.st39{fill:#CA6222;}
	.st40{fill:#CD4433;}
	.st41{fill:#492917;}
	.st42{fill:#EFAE82;}
	.st43{fill:#BA7A50;}
	.st44{fill:#D39266;}
	.st45{fill:#DF864C;}
	.st46{fill:#8F98AD;}
	.st47{fill:#AEB8D1;}
	.st48{fill:#5C698B;}
	.st49{fill:#6F7D9D;}
	.st50{fill:#6E717D;}
	.st51{fill:#5B6681;}
	.st52{fill:#66779C;}
	.st53{fill:#8B95AD;}
	.st54{fill:#8C93A5;}
	.st55{fill:#D46D2E;}
	.st56{fill:#5E331A;}
	.st57{fill:#EEA34F;}
	.st58{fill:#894216;}
	.st59{fill:#E5AA25;}
	.st60{fill:#964F34;}
	.st61{fill:#AB5D41;}
	.st62{fill:#C69886;}
	.st63{fill:#80452F;}
	.st64{fill:#F3CC40;}
	.st65{fill:#C0502D;}
	.st66{fill:#DE653F;}
	.st67{fill:#F5CCBF;}
	.st68{fill:#532919;}
	.st69{fill:#C48F6C;}
	.st70{fill:#CD3F2E;}
	.st71{fill:#DC4632;}
	.st72{fill:#E96251;}
	.st73{fill:#A82B17;}
	.st74{fill:#E77767;}
	.st75{fill:#319885;}
	.st76{fill:#45AE9A;}
	.st77{fill:#369482;}
</style>
<g id="_x30_4-triceratops_1_">
	<g id="_x30_4-triceratops">
		<path class="st59" d="M419.81,63.76c0,0,40.67-10.85,55.58-16.17c1.5-0.54,2.4,0.38,1.01,1.64c0,0-40.21,23.59-47.88,25.26
			c-4.04,0.88-8.47-1.28-9.47-3.54C418.26,69.19,417.15,64.52,419.81,63.76z"/>
		<g>
			<path class="st60" d="M167.83,123.03c0,0-6.17,12.34-7.66,18.3c-1.49,5.96-2.55,17.24-5.96,21.71c-3.4,4.47-5.75,5.11-7.02,9.58
				c-1.28,4.47,1.7,25.75,2.98,30.01c1.28,4.26,2.34,5.53,6.17,5.75c3.83,0.21,17.66,2.55,20,2.77c2.34,0.21,6.81-2.34,6.81-2.34
				s8.09,0.43,7.87-2.13s-6.17-11.28-10.43-13.83c-4.26-2.55-6.6-2.77-7.87-6.38c-1.28-3.62-1.06-9.58,0.85-10.43
				c1.92-0.85,20.43-19.15,23.2-25.32c2.77-6.17,13.62-23.83,6.81-30.22C196.77,114.09,172.72,115.58,167.83,123.03z"/>
			<path class="st60" d="M392.81,119.68c0.45,5.19-11.61-2.53-20.26,3.8c-8.65,6.33-12.66,19.2-12.66,19.2s0,11.82-3.38,17.73
				c-3.38,5.91-2.74,5.91-2.95,11.18c-0.21,5.28,0.63,10.97,1.69,13.3c1.06,2.32,14.14,11.61,15.19,17.94c0,0-0.42,1.9-4.43,1.69
				c-4.01-0.21-7.39-1.06-7.39-1.06s1.27,1.27-1.69,2.32c-2.95,1.05-16.04,0.21-21.1-1.69c-5.06-1.9-6.96-4.01-7.81-6.96
				c-0.84-2.95-0.21-10.97-2.53-14.77s-3.8-6.75-3.17-12.87c0.63-6.12,3.8-13.93,4.01-18.99c0.21-5.06,1.05-13.93,7.17-20.68
				c6.12-6.75,17.73-23.85,26.8-27.65C369.38,98.36,391.12,100.26,392.81,119.68z"/>
			<path class="st61" d="M364.14,48.44c-24.53-12.9-64.8-41.82-116.83-43.09c-52.03-1.28-78.21,14.93-95.56,28.6
				c-25.01,19.71-48.63,72.22-73.52,83.37c-29.61,13.27-64.15,1.88-70.96-0.25c-6.81-2.13-12.24-1.06,0.11,7.45
				c12.34,8.51,29.79,20.43,75.33,18.73c45.54-1.7,65.54-22.56,78.31-19.15c12.77,3.4,28.52,18.3,80.44,27.24
				c51.93,8.94,77.04,7.66,95.34-0.43c18.3-8.09,30.64-20.85,40.43-27.24C387.02,117.29,391.06,62.59,364.14,48.44z"/>
			<path class="st61" d="M222.41,67.28c9.17,16.3,12.13,43.41,9.26,59.37c-2.87,15.96-17.88,44.99-17.88,54.27
				c0,5.96,0,7.66,4.47,10.21c4.47,2.55,17.45,11.49,18.94,16.17c1.49,4.68-5.11,4.04-5.11,4.04s1.49,1.28-2.34,2.13
				c-2.69,0.6-8.65,0.36-11.95,0.16c-1.39-0.08,1.29,1.96-3.81,2.6c-5.11,0.64-14.46-2.76-17.44-6.59
				c-2.98-3.83-3.4-13.83-5.32-18.3c-1.92-4.47-4.47-9.36-3.4-13.41c1.06-4.04,3.4-13.83,3.19-20.22s-2.55-20-0.43-25.54
				c0,0-24.05-15.96-27.88-38.31c-3.83-22.34,5.32-41.07,26.39-44.48C210.17,46,219.54,62.17,222.41,67.28z"/>
			<path class="st61" d="M353.82,126.86c0.46,5.24-4.04,9.15-12.77,15.54s-19.58,10.64-19.58,10.64s0.43,9.58-2.98,15.53
				c-3.4,5.96-4.04,5.32-4.26,10.64c-0.21,5.32,0.64,11.07,1.7,13.41c1.06,2.34,14.26,11.7,15.32,18.09c0,0-0.43,1.92-4.47,1.7
				c-4.04-0.21-7.45-1.06-7.45-1.06s1.28,1.28-1.7,2.34c-2.98,1.06-16.17,0.21-21.28-1.7c-5.11-1.92-7.02-4.04-7.87-7.02
				c-0.85-2.98-0.21-11.07-2.55-14.9c-2.34-3.83-3.83-6.81-3.19-12.98s3.83-14.05,4.04-19.15c0.21-5.11,1.06-14.05,7.24-20.86
				c6.17-6.81,17.88-24.05,27.03-27.88C330.2,105.37,352.12,107.28,353.82,126.86z"/>
		</g>
		<path class="st61" d="M383.08,110.46c-6.43-2.14-12.82-2-17.82,1.57c-5,3.57-5.48,5.72-8.57,4.76c-3.1-0.95-4.29-6.19-4.29-6.19
			s-3.93,0.36-5.18-2.5c-1.25-2.86-0.18-8.4-0.18-8.4s-4.82-1.07-6.07-3.75c-1.25-2.68,0.71-8.04,0.71-8.04s-5-4.47-5-8.22
			c0-3.75,3.93-6.25,3.93-6.25s-3.57-3.93-4.11-6.25c-0.54-2.32,4.47-5.54,4.47-5.54s-3.93-4.64-3.39-8.04
			c0.54-3.39,6.79-4.82,6.79-4.82s-3.04-7.68-1.25-9.47c1.79-1.79,7.5-1.79,7.5-1.79s-3.04-7.32-1.79-9.65
			c1.25-2.32,5.9-1.97,5.9-1.97s-2.14-5-0.36-6.97c1.79-1.97,9.29-0.54,9.29-0.54s-0.71-7.32,1.07-8.4s7.5,0,7.5,0
			s2.68-6.07,4.82-6.43c2.14-0.36,5.9,2.5,5.9,2.5s1.07-4.82,2.86-4.82c1.79,0,4.47,2.14,4.47,2.14s1.79-3.75,4.29-3.39
			s3.57,3.57,3.57,3.57s5.9-1.07,7.15,0.54c1.25,1.61,0.89,5.36,0.89,5.36l5.72,3.75l-0.36,4.47L415.1,22l0.18,5.36
			c0,0,1.07,1.61,1.07,6.79s0,17.15,2.32,21.62c2.32,4.47,18.94,16.44,21.97,21.26c3.04,4.82,0.89,11.43,2.86,15.54
			c1.96,4.11,5.18,7.68,13.58,13.58c8.4,5.9,14.65,12.33,15.18,20.01c0.54,7.68-3.39,23.94-10.9,26.8c0,0-3.39-2.14-4.29-5.18
			c0,0-3.57,1.25-9.47-0.71c-5.9-1.97-19.29-8.75-21.97-9.29c-2.68-0.54-5.18-1.25-10.54-3.39c-5.36-2.14-10.18-6.25-14.47-6.79
			c-4.29-0.54-8.04-0.36-8.04-0.36s-4.82,3.39-6.61,2.14c-1.79-1.25-0.71-3.22-0.71-3.22s-10.39,2.85-12.86-0.36
			C367.26,119.12,383.08,110.46,383.08,110.46z"/>
		<path class="st62" d="M384.96,67.56c-11.16-3.8-19.87-8.8-29.16-16.01c-0.29-0.22-0.81,0.06-0.56,0.43
			c6.45,9.52,18.12,16.2,29.44,17.64C385.91,69.78,386.01,67.92,384.96,67.56z"/>
		<path class="st62" d="M385.4,81.37c-9.42,2.87-18.19,4.32-27.96,2.2c-0.84-0.18-1.17,1.01-0.35,1.28
			c9.42,3.16,20.21,3.16,28.95-1.97C386.83,82.41,386.31,81.09,385.4,81.37z"/>
		<path class="st62" d="M397.25,53.25c-2.55-4.88-5.89-9.27-8.52-14.11c-3.02-5.56-4.64-11.13-5.77-17.29
			c-0.12-0.68-1.08-0.45-1.13,0.15c-0.93,11.77,6.46,23.9,14.46,31.98C396.79,54.49,397.56,53.86,397.25,53.25z"/>
		<path class="st62" d="M410.81,31.08c-0.1-0.29-0.63-0.38-0.68,0c-0.75,5.57,0.7,11.74,1.6,17.24c0.09,0.53,0.95,0.4,0.93-0.13
			C412.45,42.67,412.66,36.37,410.81,31.08z"/>
		<g>
			<path class="st59" d="M361.39,115.17c-1.78,1.55-2.68,2.25-4.71,1.63c-3.09-0.95-4.29-6.19-4.29-6.19
				C355.53,109.13,359.51,113.02,361.39,115.17z"/>
			<path class="st59" d="M352.39,110.61c0,0-3.93,0.36-5.18-2.5c-1.25-2.86-0.18-8.39-0.18-8.39
				C351.79,102.27,352.39,110.61,352.39,110.61z"/>
			<path class="st59" d="M347.03,99.71c0,0-4.82-1.07-6.07-3.75c-1.25-2.68,0.71-8.04,0.71-8.04C344.8,90,347.03,99.71,347.03,99.71
				z"/>
			<path class="st59" d="M341.67,87.92c0,0-5-4.47-5-8.22c0-3.75,3.93-6.25,3.93-6.25C342.08,77.24,341.67,87.92,341.67,87.92z"/>
			<path class="st59" d="M340.61,73.45c0,0-3.57-3.93-4.11-6.25c-0.53-2.33,4.47-5.54,4.47-5.54
				C343.08,64.83,340.61,73.45,340.61,73.45z"/>
			<path class="st59" d="M340.96,61.66c0,0-3.93-4.65-3.39-8.04s6.79-4.82,6.79-4.82C345,58.5,340.96,61.66,340.96,61.66z"/>
			<path class="st59" d="M350.6,37.55c-0.83,9.72-6.25,11.25-6.25,11.25s-3.03-7.69-1.25-9.47C344.89,37.55,350.6,37.55,350.6,37.55
				z"/>
			<path class="st59" d="M350.6,37.55c0,0-3.03-7.33-1.79-9.65c1.25-2.33,5.89-1.97,5.89-1.97C355.73,34.68,350.6,37.55,350.6,37.55
				z"/>
			<path class="st59" d="M363.64,18.42c-3.25,7.04-8.93,7.51-8.93,7.51s-2.14-5-0.35-6.97C356.15,17,363.64,18.42,363.64,18.42z"/>
			<path class="st59" d="M372.22,10.03c-1.33,7.66-8.57,8.39-8.57,8.39s-0.71-7.32,1.07-8.39C366.51,8.96,372.22,10.03,372.22,10.03
				z"/>
			<path class="st59" d="M382.94,6.1c-3.39,6.63-10.72,3.93-10.72,3.93s2.68-6.07,4.83-6.43C379.19,3.24,382.94,6.1,382.94,6.1z"/>
			<path class="st59" d="M390.27,3.42c-2.3,2.98-7.33,2.67-7.33,2.67s1.07-4.82,2.86-4.82C387.59,1.28,390.27,3.42,390.27,3.42z"/>
			<path class="st59" d="M398.13,3.6c-2.6,1.67-7.86-0.17-7.86-0.17s1.79-3.75,4.29-3.4C397.05,0.38,398.13,3.6,398.13,3.6z"/>
			<path class="st59" d="M406.17,9.5c-4.55-0.82-8.04-5.9-8.04-5.9s5.89-1.07,7.15,0.54C406.52,5.74,406.17,9.5,406.17,9.5z"/>
			<path class="st59" d="M411.88,13.24l-0.35,4.47c-3.59-2.48-5.36-8.21-5.36-8.21L411.88,13.24z"/>
			<path class="st59" d="M415.27,27.36c-1.81-2.31-3.62-9.2-3.74-9.63L415.1,22L415.27,27.36z"/>
		</g>
		<path class="st62" d="M229.89,104.86c-0.2-6.34-0.9-12.68-2.3-18.87c-1.24-5.52-3.07-12.98-7.45-16.91
			c-0.83-0.74-2.61-0.32-2.46,1.02c0.64,5.57,3.66,11.09,5.09,16.54c1.67,6.4,2.56,12.94,2.84,19.54
			c0.29,6.73-0.01,13.46-0.59,20.16c-0.6,6.98-1.86,13.99-2.07,21c-0.04,1.48,2.21,1.78,2.58,0.35
			C229.08,134.14,230.34,118.81,229.89,104.86z"/>
		<path class="st63" d="M326.72,108.66c-4.16-1.02-8.83,2.12-11.94,4.59c-4.45,3.53-7.75,8.2-11.02,12.79
			c-3.73,5.23-7.81,10.35-11.11,15.87c-2.53,4.22-4.91,8.9-4.23,13.92c0.08,0.59,1.02,0.67,1.27,0.17
			c2.11-4.34,3.59-8.82,6.11-12.99c2.72-4.49,5.82-8.74,8.84-13.03c2.97-4.2,5.83-8.56,9.5-12.19c1.9-1.88,4.01-3.57,6.4-4.8
			c2.08-1.08,4.41-1.41,6.41-2.63C327.6,109.94,327.51,108.85,326.72,108.66z"/>
		<path class="st63" d="M190.42,127.99c-2.69-3.27-6.12-5.87-8.88-9.09c-2.88-3.37-5.41-7.1-7.51-11
			c-4.26-7.9-5.44-16.18-7.87-24.65c-0.33-1.13-2.25-1.3-2.47,0c-1.53,9.05,2.17,19.09,6.43,26.94c4.12,7.59,10.7,16.74,18.96,20.13
			C190.5,130.89,191.19,128.92,190.42,127.99z"/>
		<path class="st63" d="M166.44,66.79c-1.5,2.82-3.2,7.54-1.33,10.59c0.44,0.71,1.69,0.86,2.09,0c0.69-1.49,0.52-3.1,0.65-4.72
			c0.15-1.78,0.27-3.6,0.47-5.36C168.44,66.29,166.89,65.95,166.44,66.79z"/>
		<g>
			<path class="st2" d="M423.79,88.09c-0.06,3.65,1.27,6.63,2.97,6.66c1.71,0.03,3.14-2.9,3.2-6.55c0.06-3.65-1.27-6.63-2.97-6.66
				C425.29,81.5,423.86,84.44,423.79,88.09z"/>
			<path class="st3" d="M424.69,84.29c-0.02,0.92,0.72,1.69,1.64,1.7c0.92,0.02,1.69-0.72,1.7-1.64c0.02-0.92-0.72-1.69-1.64-1.7
				C425.47,82.63,424.71,83.36,424.69,84.29z"/>
		</g>
		<path class="st2" d="M431.72,78.69c-0.55-2.08-2.49-3.74-4.62-4.03c-1.94-0.26-4.73,0.48-5.41,2.53c-0.1,0.29,0.2,0.6,0.5,0.51
			c1.51-0.44,2.65-1.37,4.34-1.23c1.93,0.16,3.24,1.24,4.44,2.65C431.25,79.47,431.83,79.11,431.72,78.69z"/>
		<path class="st2" d="M462.25,129.2c0,1.81-0.68,3.28-1.52,3.28c-0.84,0-1.52-1.47-1.52-3.28c0-1.81,0.68-3.28,1.52-3.28
			C461.57,125.91,462.25,127.38,462.25,129.2z"/>
		<path class="st64" d="M415.26,58.2c0,0,40.67-10.85,55.58-16.17c1.51-0.54,2.4,0.38,1.01,1.64c0,0-40.21,23.59-47.88,25.26
			c-4.04,0.88-8.47-1.28-9.47-3.54C413.71,63.63,412.61,58.96,415.26,58.2z"/>
		<path class="st2" d="M457.9,147.38c-1.91-4.56-7.27-6.78-11.49-8.68c-5.93-2.68-10.85-6.12-16.12-9.86
			c-0.66-0.47-1.29,0.51-0.82,1.06c3.55,4.09,8.47,7.01,13.32,9.29c2.45,1.15,4.96,2.16,7.35,3.43c2.64,1.41,4.71,3.33,7.01,5.2
			C457.45,148.06,458.1,147.84,457.9,147.38z"/>
		<path class="st64" d="M452.71,103.05c0,0,16.99,0.63,26.47-4.29c0,0,4.55-3.03,4.55,1.52c0,4.55-12.51,17.05-15.16,17.81
			C465.92,118.84,453.09,112.14,452.71,103.05z"/>
		<g>
			<path class="st62" d="M267.18,12.76c-2.21-0.23-4.75-0.03-6.71,1.08c-2.07,1.17-1.2,4.62,1.23,4.54c1.12-0.04,2.2-0.32,3.33-0.37
				c1.13-0.05,2.26,0.12,3.37,0.06c1.25-0.06,3.43-0.47,3.43-2.09C271.82,13.83,268.82,12.93,267.18,12.76z"/>
			<path class="st62" d="M283.4,20.43c-0.9,0.09-1.8,0.12-2.69,0.21c-0.88,0.08-1.78,0-2.65,0.18c-0.86,0.17-0.98,1.45-0.24,1.85
				c1.84,1,4.32,0.53,6.07-0.44C284.67,21.77,284.37,20.33,283.4,20.43z"/>
			<path class="st62" d="M250.38,19.02c-0.82-0.17-1.62-0.51-2.45-0.53c-0.81-0.02-1.64,0.06-2.45,0.09c-2.22,0.09-2.22,3.36,0,3.45
				c0.81,0.03,1.64,0.11,2.45,0.09c0.84-0.02,1.63-0.36,2.45-0.53C251.65,21.33,251.65,19.28,250.38,19.02z"/>
			<path class="st62" d="M236.03,12.76c-0.72-0.52-1.54-0.32-2.36-0.21l-2.33,0.3c-0.8,0.1-1.49,0.61-1.49,1.49
				c0,0.74,0.69,1.58,1.49,1.49c0.83-0.09,1.66-0.18,2.49-0.27c0.89-0.1,1.83-0.07,2.46-0.8C236.87,14.1,236.73,13.26,236.03,12.76z
				"/>
			<path class="st62" d="M268.72,26.11c-0.26-0.03-0.52-0.06-0.77-0.09c-0.61-0.4-1.57-0.23-2.26-0.23c-1.39,0-1.4,2.17,0,2.17
				c0.69,0,1.65,0.17,2.26-0.23c0.26-0.03,0.52-0.06,0.77-0.09C269.7,27.52,269.7,26.23,268.72,26.11z"/>
			<path class="st62" d="M304.81,24.28c-3.3-0.74-6.89-1.18-10.27-0.78c-0.53,0.06-1.03,0.77-0.5,1.21
				c3.07,2.54,7.46,2.73,10.95,0.86C305.5,25.3,305.4,24.42,304.81,24.28z"/>
			<path class="st62" d="M291.29,31.59c-0.51-0.65-1.44-0.63-2.2-0.67c-0.72-0.04-1.45-0.01-2.18-0.02c-1.97-0.02-1.97,3.07,0,3.06
				c0.72-0.01,1.45,0.02,2.18-0.02c0.76-0.04,1.69-0.02,2.2-0.67C291.73,32.72,291.73,32.15,291.29,31.59z"/>
			<path class="st62" d="M217.43,11.29c-0.76,0.1-1.54,0.01-2.28,0.18c-0.74,0.17-1.43,0.46-2.08,0.86
				c-1.01,0.62-0.59,2.19,0.6,2.22c0.76,0.02,1.51-0.08,2.24-0.31c0.72-0.23,1.34-0.7,2.05-0.99
				C219.18,12.74,218.73,11.12,217.43,11.29z"/>
			<path class="st62" d="M232.68,21.61c-1.07-0.3-2.09,0.17-3.18,0.21c-1.11,0.04-2.31,0-3.4-0.19c-1.33-0.23-2.43,1.68-1,2.37
				c2.33,1.13,6.52,1.83,8.33-0.54C233.94,22.8,233.38,21.81,232.68,21.61z"/>
			<path class="st62" d="M212.51,21.03c-0.97-0.3-1.88,0-2.81,0.3c-0.42,0.13-0.85,0.25-1.25,0.43c-0.48,0.22-0.74,0.55-1.09,0.92
				c-0.57,0.59-0.31,1.58,0.48,1.81c0.41,0.12,0.77,0.29,1.22,0.27c0.5-0.01,1.03-0.18,1.52-0.29c0.94-0.2,1.88-0.4,2.56-1.13
				C213.84,22.57,213.52,21.35,212.51,21.03z"/>
		</g>
		<g>
			<path class="st62" d="M211.8,82.68c-0.67-1.71-1.64-2.72-3.08-3.81c-1.04-0.79-2.15,0.69-1.65,1.65
				c0.55,1.07,0.91,2.39,1.19,3.57c0.27,1.15,0.29,2.61,1.17,3.45c0.59,0.57,1.49,0.55,2.09,0
				C212.76,86.39,212.35,84.09,211.8,82.68z"/>
			<path class="st62" d="M206.05,92.36c-0.37-1.03-0.66-2.08-0.87-3.16c-0.27-1.38-2.62-1.09-2.48,0.34
				c0.2,1.98,0.44,5.33,2.35,6.45c0.55,0.33,1.44,0.05,1.57-0.64C206.82,94.32,206.4,93.33,206.05,92.36z"/>
			<path class="st62" d="M197.31,86.17c-0.22-0.77-0.61-1.5-0.94-2.23c-0.43-0.93-2.12-0.5-1.99,0.54c0.1,0.79,0.15,1.62,0.37,2.39
				c0.22,0.78,0.34,1.71,1.15,2.09c0.56,0.26,1.16,0.14,1.51-0.4C197.91,87.8,197.54,86.97,197.31,86.17z"/>
		</g>
		<g>
			<path class="st62" d="M325.94,126.24c-0.46-0.58-1.35-0.83-2.01-0.4c-1.14,0.74-2.26,1.19-3.6,1.45
				c-0.79,0.16-1.28,1.05-1.17,1.79c0.13,0.84,0.77,1.36,1.61,1.42c1.87,0.14,3.9-0.72,5.06-2.21
				C326.3,127.68,326.47,126.9,325.94,126.24z"/>
			<path class="st62" d="M324.28,134.38c-1.46-0.01-2.85,1.37-3.87,2.28c-0.36,0.32,0.02,0.95,0.47,0.8
				c1.29-0.43,3.18-0.93,3.91-2.19C325.01,134.87,324.73,134.38,324.28,134.38z"/>
			<path class="st62" d="M313.98,131.52c-0.43-0.33-0.92-0.31-1.4-0.1c-0.04,0.02-0.09,0.04-0.13,0.06
				c-0.49,0.02-0.94,0.27-1.28,0.61c-0.65,0.65-0.7,1.84,0,2.49c0.69,0.63,1.81,0.71,2.49,0c0.19-0.2,0.35-0.41,0.46-0.67
				c0.08-0.14,0.12-0.28,0.12-0.44c0.02-0.07,0.02-0.15,0.02-0.22c0.01-0.01,0.01-0.02,0.02-0.04c0.05-0.11,0.1-0.23,0.14-0.35
				C314.62,132.38,314.33,131.79,313.98,131.52z"/>
		</g>
		<path class="st62" d="M383.11,111.29c-6.55-3.43-13.03,3.88-19.06,5.12c-1.13,0.23-0.74,1.78,0.25,1.87
			c4.18,0.41,6.74-1.6,10.32-3.45c3.65-1.9,8.51-2.72,10.19,2.28c0.84,2.49,0.06,5.14-0.11,7.66c-0.04,0.64,0.9,0.87,1.2,0.33
			C388.28,120.72,388.05,113.88,383.11,111.29z"/>
		<path class="st62" d="M405.67,119.59c-4.57,1.09-9.39,3.5-12.59,7c-0.23,0.25,0.06,0.65,0.37,0.47c4.17-2.39,8.11-4.81,12.51-6.79
			C406.36,120.1,406.07,119.49,405.67,119.59z"/>
	</g>
	<path id="_x30_4-silhoutte" d="M483.73,100.27c0-4.55-4.55-1.52-4.55-1.52c-8.98,4.67-24.69,4.35-26.3,4.3
		c-5.36-4.16-7.78-7.15-9.38-10.49c-1.96-4.11,0.18-10.72-2.86-15.54c-0.84-1.34-2.75-3.24-5.09-5.37
		c14-6.67,40.85-22.42,40.85-22.42c1.39-1.26,0.49-2.18-1.01-1.64c-5.31,1.89-13.88,4.49-22.72,7.04
		c10.25-5.72,19.19-10.96,19.19-10.96c1.39-1.26,0.49-2.18-1.01-1.64c-11.95,4.26-40.44,12.08-51.28,15.01
		c-0.38-0.47-0.7-0.91-0.89-1.28c-2.32-4.47-2.32-16.44-2.32-21.62c0-5.18-1.07-6.79-1.07-6.79l-0.07-2.11L415.1,22l-3.25-3.89
		l-0.33-0.39l0,0c0,0,0,0,0,0l0.22-2.73l0.14-1.73l0,0l0,0l-2.82-1.85l-2.89-1.9c0-0.01,0.14-1.47-0.06-2.96
		c-0.07-0.49-0.18-0.98-0.34-1.42c-0.03-0.09-0.06-0.2-0.09-0.29c-0.02-0.04-0.05-0.08-0.07-0.12c-0.1-0.21-0.2-0.41-0.33-0.57
		c0,0,0,0,0,0c0,0,0,0,0,0c-0.64-0.83-2.51-0.94-4.17-0.86c-1.58,0.07-2.97,0.32-2.97,0.32s0,0,0,0c0,0,0,0,0,0l0,0c0,0,0,0,0,0
		c0,0-1.07-3.21-3.57-3.57c-0.62-0.09-1.21,0.08-1.72,0.38c-1.56,0.9-2.56,3.01-2.56,3.01s-2.47-1.97-4.25-2.12
		c-0.07-0.01-0.14-0.03-0.21-0.03h0h0c-0.05,0-0.1,0.04-0.16,0.05c-1.69,0.28-2.7,4.77-2.7,4.77s0,0,0,0l0,0l0,0c0,0,0,0,0,0
		c0,0-3.75-2.85-5.89-2.5c-2.15,0.36-4.82,6.43-4.83,6.43c-0.01,0-0.55-0.1-1.35-0.21c-1.8-0.25-4.92-0.53-6.15,0.21
		c-1.79,1.07-1.07,8.39-1.07,8.39l0,0c0,0,0,0,0,0s0,0,0,0c0,0,0,0,0,0c0,0-3.98-0.75-6.83-0.4c-1.06,0.13-1.97,0.41-2.46,0.94
		c-0.49,0.53-0.68,1.3-0.7,2.12c-0.07,2.2,1.05,4.84,1.05,4.85c-0.01,0-1.16-0.09-2.47,0.11c-0.23,0.04-0.47,0.09-0.7,0.15
		c-0.1,0.02-0.2,0.04-0.3,0.06c-0.07,0.02-0.13,0.05-0.19,0.07c-0.92,0.29-1.78,0.76-2.22,1.57c0,0,0,0,0,0c0,0,0,0,0,0
		c-0.06,0.12-0.11,0.25-0.15,0.39c-0.01,0.03-0.03,0.06-0.04,0.1c-0.09,0.34-0.12,0.74-0.11,1.18c0,0.03,0,0.05,0,0.08
		c0,0.14,0.02,0.3,0.03,0.45c0.01,0.1,0.01,0.19,0.02,0.29c0.01,0.09,0.03,0.19,0.04,0.29c0.02,0.16,0.04,0.32,0.07,0.49
		c0.49,2.91,1.91,6.35,1.92,6.38c-0.02,0-2.62,0-4.85,0.55c-24.39-13.91-57.83-31.75-98.44-32.75
		c-52.03-1.28-78.21,14.93-95.56,28.6c-25.01,19.71-48.63,72.22-73.52,83.37c-29.61,13.27-64.15,1.88-70.96-0.25
		c-6.81-2.13-12.24-1.06,0.11,7.45c12.34,8.51,29.79,20.43,75.33,18.73c45.54-1.7,65.54-22.56,78.31-19.15
		c1.7,0.45,3.46,1.12,5.35,1.94c-1.92,4.04-5.18,11.19-6.2,15.3c-1.49,5.96-2.55,17.24-5.96,21.71c-3.4,4.47-5.75,5.11-7.02,9.58
		c-1.28,4.47,1.7,25.75,2.98,30.01c1.28,4.26,2.34,5.53,6.17,5.75c3.83,0.21,17.66,2.55,20,2.77c2.34,0.21,6.81-2.34,6.81-2.34
		s8.09,0.43,7.87-2.13s-6.17-11.28-10.43-13.83c-4.26-2.55-6.6-2.77-7.87-6.38c-1.28-3.62-1.06-9.58,0.85-10.43
		c1.35-0.6,10.94-9.87,17.46-17.45c0,6.37-2.18,15.5-3.2,19.37c-1.06,4.04,1.49,8.94,3.4,13.41c1.92,4.47,2.34,14.47,5.32,18.3
		c2.98,3.83,12.33,7.22,17.44,6.59s2.42-2.68,3.81-2.6c3.3,0.2,9.25,0.44,11.95-0.16c3.83-0.85,2.34-2.13,2.34-2.13
		s6.6,0.64,5.11-4.04s-14.47-13.62-18.94-16.17c-4.47-2.55-4.47-4.26-4.47-10.21c0-5.78,5.82-19.21,10.9-32.38
		c0.24-0.07,0.47-0.2,0.63-0.42c4.96,1.13,10.31,2.21,16.13,3.21c18.1,3.12,32.94,4.99,45.37,5.76c-0.02,0.29-0.03,0.57-0.04,0.83
		c-0.21,5.11-3.41,12.98-4.04,19.15s0.85,9.15,3.19,12.98c2.34,3.83,1.7,11.92,2.55,14.9c0.85,2.98,2.77,5.11,7.87,7.02
		c5.11,1.92,18.3,2.77,21.28,1.7c2.98-1.06,1.7-2.34,1.7-2.34s3.41,0.85,7.45,1.06c4.04,0.21,4.47-1.7,4.47-1.7
		c-1.06-6.38-14.26-15.75-15.32-18.09c-1.06-2.34-1.92-8.09-1.7-13.41c0.21-5.32,0.85-4.68,4.26-10.64
		c2.29-4.01,2.85-9.66,2.97-12.92c1.46-0.28,2.88-0.6,4.25-0.95c-1.01,4.63-2.91,10.18-3.39,14.78c-0.63,6.12,0.84,9.07,3.17,12.87
		c2.32,3.8,1.69,11.82,2.53,14.77c0.84,2.95,2.74,5.06,7.81,6.96c5.06,1.9,18.15,2.74,21.1,1.69c2.95-1.06,1.69-2.32,1.69-2.32
		s3.38,0.84,7.39,1.06c4.01,0.21,4.43-1.69,4.43-1.69c-1.06-6.33-14.14-15.62-15.19-17.94c-1.06-2.32-1.9-8.02-1.69-13.3
		c0.21-5.28-0.42-5.28,2.95-11.18c3.38-5.91,3.38-17.73,3.38-17.73s1.29-4.13,3.97-8.86c3.39-2.66,6.5-5.18,9.38-7.34
		c3.4,2.02,12.02-0.34,12.02-0.34s-1.07,1.96,0.71,3.22c1.79,1.25,6.61-2.14,6.61-2.14s3.75-0.18,8.04,0.36
		c4.29,0.54,9.11,4.64,14.47,6.79c5.36,2.14,7.86,2.86,10.54,3.39c2.68,0.54,16.08,7.32,21.97,9.29c5.9,1.96,9.47,0.71,9.47,0.71
		c0.89,3.04,4.29,5.18,4.29,5.18c7.5-2.86,11.43-19.11,10.9-26.8c-0.21-2.98-1.28-5.76-3-8.4
		C472.91,115.61,483.73,104.5,483.73,100.27z"/>
</g>
</svg>
