<?xml version="1.0" encoding="utf-8"?>
<!-- Generator: Adobe Illustrator 14.0.0, SVG Export Plug-In . SVG Version: 6.00 Build 43363)  -->
<!DOCTYPE svg PUBLIC "-//W3C//DTD SVG 1.1//EN" "http://www.w3.org/Graphics/SVG/1.1/DTD/svg11.dtd">
<svg version="1.1" id="silouhette2_xA0_Image_1_" xmlns="http://www.w3.org/2000/svg" xmlns:xlink="http://www.w3.org/1999/xlink"
	 x="0px" y="0px" width="720px" height="432px" viewBox="0 0 720 432" enable-background="new 0 0 720 432" xml:space="preserve">
<g>
	<path fill-rule="evenodd" clip-rule="evenodd" d="M93.84,105.36c-0.668,2.612-4.594,4.045-4.56,8.16
		c1.874-1.298,2.114-3.89,4.32-5.04c1.064-0.555,2.904-0.781,4.32-1.44c1.221-0.568,2.283-1.698,3.6-1.2
		c-0.862,1.058-2.965,0.875-2.88,2.88c2.372-0.444,4.575-3.13,7.68-2.4c-0.746,1.014-2.452,1.068-3.12,2.16
		c1.852,0.25,3.505-1.772,5.76-1.92c-0.076,0.564-1.138,0.142-0.96,0.96c1.427,0.665,3.892-0.854,5.52,0
		c1.15,0.084-0.513,0.719-0.48,1.2c2.444-0.301,5.124-0.417,6.96,0.48c-0.441,0.833,0.276,1.7,1.92,1.68
		c0.014,0.894-1.068,0.692-1.92,0.72c1.536,0.78,4.713,0.101,6,1.68c0.04,0.68-1.479-0.199-1.44,0.48
		c0.488,0.553,1.436,0.644,2.4,0.72c1.107,2.333,3.242,3.638,3.6,6.72c4.987,3.732,8.699,8.741,10.32,15.84
		c0.167,0.713,0.788,0.972,1.2,1.44c0.725,16.562,9.434,24.368,28.08,23.28c3.615-0.21,5.995-1.928,8.88-2.88
		c2.311-0.762,5.35-0.982,8.4-1.68c2.681-0.613,5.519-1.065,8.4-1.44c5.758-0.75,11.854-2.222,17.28-2.64
		c5.075-0.391,10.061-0.168,15.12-0.96c3.335-0.522,6.462-1.866,9.84-2.16c7.757-0.677,15.336-2.146,23.04-3.12
		c12.297-1.556,23.962-1.487,35.76-0.24c2.143,0.226,4.151,1.25,6.24,1.68c4.266,0.877,8.643,1.369,12.96,2.4
		c6.525,1.559,12.576,3,19.92,4.32c5.826,0.573,12.691,2.404,19.44,2.88c1.727,0.122,3.583-0.143,5.28,0
		c6.005,0.507,11.34,2.004,18,2.4c4.521,0.269,8.91,1.582,13.44,2.16c4.886,0.625,10.102,0.762,15.12,1.2
		c15.982,1.394,32.517,2.215,50.16,3.12c10.979,0.563,21.978,2.584,32.64,3.36c5.528,0.402,10.981,0.48,16.32,0.48
		c10.919,0,21.652,1.18,32.399,1.68c7.354,0.342,14.065,1.767,20.4,3.6c1.378,0.399,3.841,0.179,5.76,0.48
		c11.38,1.787,22.438,3.247,34.8,4.8c8.324,1.046,17.945,1.438,25.92,3.36c11.748,2.831,23.72,4.586,33.84,9.12
		c6.395,1.125,11.931,3.11,17.28,5.28c-3.266,5.028-13.472,9.426-20.16,5.76c0.222,2.54,1.882,7.256-0.479,10.56
		c-0.619,0.867-3.956,3.985-5.04,4.56c-1.712,0.908-5.255,1.95-7.68,2.16c-4.54,0.393-6.329-2.02-9.841-3.6
		c-0.792-1.849-1.061-4.219-4.319-3.601c-0.545-1.055-0.686-2.514-1.2-3.6c-0.779,0.139-1.116-0.164-1.68-0.24
		c-1.569,1.767-0.269,5.097-0.96,7.92c-1.176,4.8-6.002,5.237-10.801,7.2c-6.132-1.228-11.854-2.865-14.159-7.92
		c-1.963,0.837-2.501,3.1-3.12,5.28c-4.299,1.662-9.687,4.592-14.88,3.84c-3.21-0.465-4.191-3.588-7.2-4.08
		c-0.747-1.254-1.703-2.298-2.16-3.84c-0.208,2.433-2.289,2.99-2.4,5.52c-2.993,2.075-6.882,1.771-12,1.68
		c-2.114-1.337-3.1-2.411-5.52-2.159c-1.812,0.188-3.867,1.695-5.76,1.92c-1.733,0.205-3.384-0.424-4.801-1.2
		c-2.056,0.559-4.239,2.554-6.72,2.88c-4.168,0.548-6.389-1.614-8.4-4.08c-2.641,2.896-10.128,2.88-12.239-0.479
		c-3.892,1.709-11.241-0.082-11.521-5.04c-1.692,1.216-2.089-1.443-3.6-1.681c-1.612-0.252-2.748,0.981-4.08,1.92
		c-2.447-0.753-5.187-1.214-7.44-2.16c-0.316-1.843-0.955-3.365-1.92-4.56c-1.321,0.359-1.001,2.358-1.68,3.36
		c-5.936-1.38-11.204-4.603-17.04-6.48c-8.839-2.842-17.592-6.644-25.92-10.56c-2.724-1.281-5.522-2.814-8.16-3.84
		c-3.67-1.428-8.183-3.416-11.76-3.84c-2.584-0.306-5.207-0.144-6.72,0.72c-10.576-0.093-21.702,3.275-32.4,2.4
		c-5.784-0.473-13.186,2.051-19.44,2.16c-1.711,3.311-10.055,0.442-11.04,4.08c-0.64,0-1.28,0-1.92,0
		c-1.088,1.952-4.634,1.446-6.48,2.64c0.023,0.937,1.651,0.269,1.68,1.2c-0.103,1.337-1.912,0.968-3.12,1.2
		c-0.556,0.261,1.173,0.98,0.24,1.68c-2.022,0.589-3.918-0.162-6,0.24c0.819,1.021,3.052,0.628,4.08,1.44
		c-1.109,2.171-4.071,2.489-6,3.84c0.769,0.621,2.115-0.768,3.12,0c0.063,1.183-1.507,0.733-2.16,1.2
		c-1.259,1.381-2.449,2.831-4.08,3.84c0.417,0.623,1.639,0.44,1.44,1.68c-0.512,2.208-3.678,1.762-4.8,3.36
		c-4.34,0.46-9.649-0.05-12,2.399c-6.57,1.83-13.274,3.526-17.76,7.44c0.316,5.196-1.686,8.073-1.92,12.72
		c-3.243,2.917-2.81,9.51-3.6,14.88c0.253,0.893-0.809,0.471-0.96,0.96c-0.097,1.137,0.429,1.652,0.24,2.88
		c3.342,2.002,0.484,7.619,3.12,10.561c0.286,1.006-1.012,0.429-1.2,0.96c0.384,2.608,3.931,7.466,0,8.64
		c-3.199,8.245-9.832,16.363-9.84,27.601c-0.001,1.694,0.469,3.358,0.24,5.04c-0.299,2.195-2.215,5.029,0.96,6
		c0.485,2.791,0.057,5.289-0.48,7.68c-0.652-0.308-0.691-1.229-1.44-1.44c-0.006-3.993-3.016-4.983-4.32-7.68
		c-4.746,1.589-7.704,6.222-8.4,11.76c-0.274,2.182-0.193,3.626-1.44,5.04c-1.102,0.099-1.996,0.404-2.64,0.96
		c-7.933-1.823-18.45,2.287-24.96-0.479c-1.724,0.436-3.844,0.476-4.8,1.68c-0.646-0.283,0.001-1.251,0-1.68
		c-2.486-0.378-4.687,1.35-8.16,0.96c-1.135-0.128-2.282-1.068-3.84-1.2c-1.75-0.148-3.46,1.073-5.28,1.2
		c-1.322,0.092-2.487-0.616-3.84-0.72c-2.213-0.17-8.425,0.162-10.32,0.96c-0.966,0.406-1.42,1.497-2.4,1.68
		c-1.391-0.382-0.773-4.045,0-4.56c-1.866-0.103-3.561,3.315-5.28,3.359c-1.199-2.871,0.681-5.697,2.16-6.96
		c0.777-0.663,2.835-1.921,4.08-2.16c1.964-0.377,3.673,0.583,5.76,0.721c5.034,0.33,10.74-1.409,13.44-3.601
		c2.666,0.305,4.983-3.121,6.48-5.76c1.792-3.16,1.432-11.27-4.32-8.16c1.121-4.59,12.128-2.829,9.12,4.32
		c2.046-1.28,2.895-3.593,4.56-5.521c1.537-1.778,3.687-3.022,5.28-4.8c4.333-4.835,7.742-10.618,10.32-17.04
		c-2.08-0.56-2.654,0.888-4.8,0.96c-0.935-0.985-0.291-3.549-0.48-5.28c-0.407-0.473-1.116-0.644-1.92-0.72
		c-4.983-12.106-11.002-22.53-17.28-33.84c-2.835-5.107-7.03-9.901-10.08-15.6c-1.407-2.629-2.527-5.708-4.08-8.641
		c-2.331-4.399-4.223-7.832-5.04-13.44c-0.656-0.383-1.586-0.494-2.64-0.48c0.656,1.074,4.035,4.412,1.68,7.68
		c3.785,2.08,0.985,9.536,4.08,12c-0.222,0.419,0.008,1.289-0.72,1.2c5.15,2.051,4.278,10.122,5.04,16.561
		c-1.22-0.46-1.872-1.488-2.88-2.16c0.374,1.467,1.695,1.984,2.4,3.12c1.346,5.93,0.812,12.259-0.96,17.279
		c-0.477,0.4-0.305-0.021-0.96,0c0.606,2.162-1.23,3.864-1.92,5.521c-1.955-0.525-2.037-2.923-2.64-4.8
		c-0.48,0.32-0.031,1.568-1.2,1.2c-0.422,1.817-0.124,4.355-1.68,5.04c-1.435,0.148-1.669-2.163-1.44-2.881
		c-1.894-4.646-5.195-9.866-6.72-16.08c-0.154,2.486-1.127,4.153-2.4,5.521c0.872-3.021-0.929-4.772-1.68-7.2
		c-0.282-0.912,0.008-1.969-0.24-2.64c-0.514-1.392-2.06-2.101-2.64-3.36c-0.517-1.122-0.281-2.506-0.72-3.84
		c-0.668-2.028-2.038-3.849-2.88-6c-0.821-2.098-1.538-4.348-2.88-6c0.471,3.269,0.362,6.968-0.96,9.12
		c0.441-5.332-5.457-7.038-3.36-11.76c-2.717-1.131-2.622-4.341-4.08-6.48c-0.753-1.104-2.333-1.542-3.12-2.64
		c-1.652-2.302-2.449-5.958-6-6c-1.167-1.21-2.496-3.215-1.44-5.28c-15.803-0.469-21.652-7.659-29.04-16.56
		c-1.243-1.497-2.887-4.02-4.08-4.56c-3.339-1.51-7.502-0.176-11.04-0.48c-0.254,1.694,0.487,2.394,0.72,3.6
		c-1.179-1.141-1.524-3.115-2.4-4.56c-0.379,1.583,0.679,3.798,1.44,5.04c-0.399,0.613-0.645-0.937-1.44-0.72
		c0.085,1.194,0.838,1.722,0.72,3.12c-3.954-2.553-5.201-5.129-7.92-9.84c-0.336,3.378,2.485,5.674,3.84,8.16
		c-2.857,0.438-3.854-3.011-5.04-5.04c-0.858,0.203,0.617,1.237-0.24,1.44c-2.745-2.615-4.669-6.051-6.24-9.84
		c0.229,3.292,2.557,6.562,3.36,10.08c-2.183-1.577-2.539-4.981-3.6-7.68c-0.086,3.854,3.04,7.83,4.08,10.56
		c-1.933-0.87-2.521-2.337-4.08-3.12c-1.281-1.994-1.745-5.831-3.36-6.72c-0.183,2.665,1.355,5.684,2.64,7.68
		c-2.908-0.533-3.58-5.379-4.32-8.88c-0.242-0.293-0.415,0.514-0.96-0.24c-0.509-1.491-0.763-3.237-0.96-5.04
		c-0.61,1.734-0.08,4.397,0,6.24c-1.819-2.421-0.431-8.05-1.2-11.52c-1.644,2.13-1.049,7.46-0.96,10.56
		c-2.526-3.044-1.034-9.541-0.72-13.92c-0.024-0.463-0.895,0.373-1.2-0.24c-1.044,4.556-2.023,9.177-4.08,12.72
		c0.064-3.478,2.242-8.129,1.68-12.24c-1.986,2.254-1.488,6.992-2.88,9.84c-1.144-3.705,2.232-7.991,0.24-11.04
		c-1.091,0.509-0.061,3.14-1.44,3.36c-0.401-1.965,0.87-4.12-0.24-5.28c-1.165,0.355-0.702,2.338-0.96,3.6
		c-0.727-1.273,0.339-4.338-0.72-5.28c-0.29,0.925,0.321,3.505-0.24,4.8c-0.883-0.373,0.107-2.248-0.24-3.6
		c-0.814,1.026-0.83,2.85-1.92,3.6c-0.537-1.232,1.92-4.384,0-5.52c-1.168,1.631-0.623,4.978-2.88,5.52
		c-0.64-0.815,0.566-1.388,0.72-2.16c-0.739-0.179-0.461,0.659-1.2,0.48c0.032-1.385,0.352-1.192,0.48-2.64
		c0.09-0.509-1.299,1.473-1.44,0c-1.033-0.564,1.189-1.785,1.2-2.88c-3.176-3.405-12.129-1.302-18.72-0.48
		c-4.981,0.622-9.138,0.799-10.32-2.88c9.196-3.523,19.759-5.681,27.84-10.32c-1.125-0.381-2.742,0.098-3.84,0.48
		c-3.485,1.212-7.804,3.15-12.48,4.56c-2.009,0.605-4.456,1.203-6.72,1.92c-3.239,1.026-5.675,3.486-8.4,1.44
		c-0.376-3.79,0.992-9.035,5.04-8.4c3.641-2.599,7.756-4.724,11.52-7.2c0.169-0.825-0.005-1.675,1.2-1.92
		c-0.039-0.281-0.438-0.202-0.72-0.24c1.212-1.163,1.516-2.479,3.84-2.88c-0.196-0.583-1.265,0.476-1.68-0.24
		c4.8-1.919,7.849-5.591,11.52-8.64c-0.748-1.892-1.164-4.116-0.96-6.96c0.619,0.181-0.175,1.775,0.72,1.68
		c0.545-0.255,0.091-1.509,0.24-2.16c0.284-0.276,0.848-0.271,1.44-0.24c0.988-3.972,2.042-7.878,4.56-10.32
		c-0.283,2.518-2.82,4.858-2.64,8.64c1.659-3.062,2.807-6.633,4.56-9.6c0.771-0.21,0.498,0.623,0.96,0.72
		C91.104,107.745,92.365,106.445,93.84,105.36z M270.24,279.6c0.317,3.938,0.332,9.381-0.72,12.721
		c-0.758,0.118-0.089-1.191-0.96-0.96c-1.138,2.995-3.236,4.469-5.28,6.72c-1.414,1.558-2.75,3.134-4.08,4.8
		c-2.536,3.178-6.279,5.681-7.44,10.08c5.93-2.866,8.608,3.819,7.44,9.6c1.03,2.456,4.514,1.083,6.24,0.24
		c3.758-4.103,6.856-8.543,9.36-15.12c2.066-5.426,5.675-10.729,6.24-16.08c0.138-1.302,0.399-3.714-0.72-4.8
		c-0.111,0.341-1.739,0.208-1.68,0.48c-1.227-0.511-0.566,2.738-2.4,2.399c-0.668-2.211-0.875-4.886-1.68-6.96
		c-1.267,0.653-0.975,2.865-1.92,3.84c-0.05-3.869-0.1-7.74-1.44-10.319C271.405,277.886,271.089,279.009,270.24,279.6z
		 M249.6,327.12c-0.146-1.534-1.22-2.14-1.44-3.601c-3.057,2.224-5.225,5.336-7.2,8.641c3.653,0.477,6.229-1.096,10.32-0.48
		c1.675-0.725,2.693-2.106,4.8-2.399c-0.272-2.055-0.27-3.782-0.72-6c-0.129-0.639-0.67-1.093-0.72-1.681
		c-0.273-3.229,1.091-6.182-2.64-6.72C252.944,319.089,252.868,325.611,249.6,327.12z"/>
</g>
</svg>
