<!DOCTYPE svg PUBLIC "-//W3C//DTD SVG 20010904//EN" "http://www.w3.org/TR/2001/REC-SVG-20010904/DTD/svg10.dtd">
<svg version="1.0" xmlns="http://www.w3.org/2000/svg" width="580px" height="386px" viewBox="0 0 5800 3860" preserveAspectRatio="xMidYMid meet">
<g id="layer101" fill="#1f1c1d" stroke="none">
<path d="M0 1930 l0 -1930 2900 0 2900 0 0 1930 0 1930 -2900 0 -2900 0 0 -1930z"/>
</g>
<g id="layer102" fill="#231f20" stroke="none">
<path d="M0 1930 l0 -1930 2900 0 2900 0 0 1930 0 1930 -2900 0 -2900 0 0 -1930z m1465 1410 c3 -5 4 -10 1 -10 -3 0 -8 5 -11 10 -3 6 -4 10 -1 10 3 0 8 -4 11 -10z m-21 -22 c-5 -8 -1 -9 12 -4 14 5 16 4 7 -5 -13 -13 -37 -3 -28 12 4 5 8 9 11 9 3 0 2 -5 -2 -12z m91 -19 c1 -8 7 -13 14 -11 7 1 10 -2 6 -8 -3 -5 -1 -10 5 -10 6 0 8 -5 5 -11 -4 -6 0 -9 10 -7 10 2 20 -4 22 -12 4 -12 2 -12 -5 -2 -7 10 -11 10 -21 -2 -7 -8 -21 -14 -31 -13 -18 1 -18 3 -5 24 14 20 13 23 -16 46 -29 22 -29 24 -7 22 13 -1 23 -8 23 -16z m255 11 c-8 -5 -19 -10 -25 -10 -5 0 -3 5 5 10 8 5 20 10 25 10 6 0 3 -5 -5 -10z m74 -7 c4 -9 -1 -10 -19 -3 -15 6 -27 6 -30 0 -4 -6 -11 -10 -18 -10 -6 0 -3 6 7 13 22 16 54 16 60 0z m90 8 c-8 -8 -74 -8 -69 -1 2 4 20 7 40 7 19 0 32 -3 29 -6z m80 -31 c4 0 4 6 0 13 -4 6 -3 8 1 4 5 -4 10 -14 11 -22 2 -12 -2 -12 -17 -5 -10 6 -19 15 -19 20 0 5 -8 7 -17 4 -15 -5 -16 -4 -3 5 11 8 18 7 26 -4 6 -8 14 -15 18 -15z m-260 -1 c-4 -7 0 -9 13 -5 13 4 25 0 34 -11 11 -15 11 -16 -1 -5 -19 17 -31 15 -23 -4 5 -14 3 -14 -15 2 -18 15 -21 34 -6 34 3 0 2 -5 -2 -11z m76 5 c0 -8 -19 -13 -24 -6 -3 5 1 9 9 9 8 0 15 -2 15 -3z m185 -34 c3 -5 1 -10 -4 -10 -6 0 -11 5 -11 10 0 6 2 10 4 10 3 0 8 -4 11 -10z m949 -2 c-5 -7 -2 -9 9 -5 12 5 15 0 11 -25 -2 -17 -6 -33 -10 -37 -4 -3 -4 6 0 20 4 19 1 29 -10 33 -13 5 -12 26 2 26 3 0 2 -5 -2 -12z m161 2 c3 -5 1 -10 -4 -10 -6 0 -11 5 -11 10 0 6 2 10 4 10 3 0 8 -4 11 -10z m60 3 c-11 -3 -26 -10 -32 -15 -9 -8 -13 -6 -13 4 0 9 12 14 33 15 18 1 23 -1 12 -4z m70 -13 c-4 -6 -11 -8 -16 -5 -5 4 -9 1 -9 -6 0 -7 -3 -10 -6 -6 -9 9 5 27 22 27 8 0 12 -5 9 -10z m-1450 -10 c3 -5 4 -10 1 -10 -3 0 -8 5 -11 10 -3 6 -4 10 -1 10 3 0 8 -4 11 -10z m1208 -15 c-7 -21 -12 -19 -10 4 0 11 5 18 9 15 4 -3 5 -11 1 -19z m184 18 c-4 -3 -10 -3 -14 0 -3 4 0 7 7 7 7 0 10 -3 7 -7z m-1190 -20 c-4 -3 -7 0 -7 7 0 7 3 10 7 7 3 -4 3 -10 0 -14z m1278 8 c-9 -8 -36 -10 -30 -2 2 4 11 8 20 8 8 0 13 -3 10 -6z m-1695 -6 c0 -7 -30 -13 -34 -7 -3 4 4 9 15 9 10 1 19 0 19 -2z m221 -28 c-10 -9 -11 -8 -5 6 3 10 9 15 12 12 3 -3 0 -11 -7 -18z m-401 10 c0 -2 -10 -12 -22 -23 l-23 -19 19 23 c18 21 26 27 26 19z m587 -14 c-4 -3 -7 0 -7 7 0 7 3 10 7 7 3 -4 3 -10 0 -14z m1053 3 c-7 -7 -13 -7 -20 0 -6 6 -3 10 10 10 13 0 16 -4 10 -10z m280 10 c0 -3 -5 -8 -12 -12 -7 -4 -8 -3 -4 4 7 12 16 16 16 8z m-1705 -16 c3 -5 4 -10 1 -10 -3 0 -8 5 -11 10 -3 6 -4 10 -1 10 3 0 8 -4 11 -10z m1180 0 c3 -5 4 -10 1 -10 -3 0 -8 5 -11 10 -3 6 -4 10 -1 10 3 0 8 -4 11 -10z m-1177 -26 c2 -1 -10 -1 -25 -1 -15 0 -22 2 -15 4 6 3 9 10 5 16 -4 7 2 5 13 -3 10 -8 20 -15 22 -16z m1377 16 c-3 -5 -12 -10 -18 -10 -7 0 -6 4 3 10 19 12 23 12 15 0z m92 3 c-4 -3 -10 -3 -14 0 -3 4 0 7 7 7 7 0 10 -3 7 -7z m-1682 -23 c-1 -11 -5 -23 -10 -27 -4 -5 -5 -3 -1 4 8 15 -35 14 -47 -2 -5 -6 -7 -4 -4 5 2 8 11 15 20 15 9 0 22 6 29 13 15 15 15 16 13 -8z m1642 13 c-4 -3 -10 -3 -14 0 -3 4 0 7 7 7 7 0 10 -3 7 -7z m260 -10 c-4 -3 -7 0 -7 7 0 7 3 10 7 7 3 -4 3 -10 0 -14z m-511 -4 c4 -8 9 -7 16 2 8 11 9 11 5 -1 -2 -8 -12 -14 -21 -12 -15 3 -16 0 -6 -17 6 -12 8 -21 5 -21 -3 0 -8 0 -12 0 -5 0 -8 13 -9 30 0 30 9 39 22 19z m-1202 -23 c-2 -6 -14 -18 -27 -25 -21 -13 -22 -13 -4 6 9 11 15 22 12 25 -3 2 1 5 9 5 8 0 12 -5 10 -11z m1272 -16 c1 -6 2 -14 3 -20 0 -5 9 -7 19 -3 9 3 15 4 12 2 -3 -2 -17 -14 -31 -27 -25 -22 -27 -22 -40 -5 -12 16 -12 17 2 6 20 -16 33 -5 16 15 -9 13 -9 14 1 8 14 -8 12 19 -2 44 -7 12 -7 13 5 2 8 -7 15 -17 15 -22z m442 8 c-5 -14 -36 -20 -43 -8 -3 5 4 7 15 5 11 -2 20 0 20 6 0 5 3 9 6 9 3 0 4 -5 2 -12z m-1773 -8 c-3 -5 -12 -10 -18 -10 -7 0 -6 4 3 10 19 12 23 12 15 0z m442 -7 c-4 -3 -7 0 -7 7 0 7 3 10 7 7 3 -4 3 -10 0 -14z m1143 13 c0 -3 -5 -8 -12 -12 -7 -4 -8 -3 -4 4 7 12 16 16 16 8z m41 -13 c13 -16 12 -17 -3 -4 -17 13 -22 21 -14 21 2 0 10 -8 17 -17z m-1324 -10 c-4 -3 -7 0 -7 7 0 7 3 10 7 7 3 -4 3 -10 0 -14z m993 7 c0 -5 -10 -15 -22 -21 l-23 -12 20 21 c23 24 25 25 25 12z m309 -21 c-8 -5 -10 -9 -4 -9 5 0 4 -5 -3 -12 -7 -7 -12 -18 -12 -25 0 -11 5 -11 23 -3 19 9 20 9 6 -2 -9 -7 -15 -19 -13 -26 2 -8 0 -8 -3 -1 -4 8 -7 8 -13 0 -4 -7 -7 4 -8 24 -1 19 3 35 8 35 6 0 9 3 9 8 -3 20 2 32 12 26 8 -4 7 -9 -2 -15z m-1314 1 c3 -5 4 -10 1 -10 -3 0 -8 5 -11 10 -3 6 -4 10 -1 10 3 0 8 -4 11 -10z m1482 -10 c-2 -24 -12 -26 -21 -4 -3 8 -2 12 4 9 6 -3 10 -1 10 4 0 6 2 11 4 11 3 0 4 -9 3 -20z m-1783 -25 c-4 -8 -11 -12 -17 -8 -8 5 -7 8 1 11 7 2 9 9 6 14 -4 7 -2 8 4 4 6 -4 9 -13 6 -21z m472 0 c1 -8 -3 -18 -8 -22 -6 -3 -8 -1 -4 5 3 6 2 13 -4 17 -6 4 -8 11 -4 16 7 12 17 4 20 -16z m954 20 c0 -2 -6 -8 -13 -14 -10 -8 -14 -7 -14 2 0 8 6 14 14 14 7 0 13 -1 13 -2z m321 -28 c-10 -9 -11 -8 -5 6 3 10 9 15 12 12 3 -3 0 -11 -7 -18z m-1954 -22 c-15 -16 -19 -13 -11 9 3 9 10 13 15 10 5 -3 3 -11 -4 -19z m1998 4 c11 -16 1 -19 -13 -3 -7 8 -8 14 -3 14 5 0 13 -5 16 -11z m-468 -6 c-4 -3 -10 -3 -14 0 -3 4 0 7 7 7 7 0 10 -3 7 -7z m430 0 c-4 -3 -10 -3 -14 0 -3 4 0 7 7 7 7 0 10 -3 7 -7z m-1757 -45 c0 -4 -5 -8 -12 -8 -6 0 -8 3 -5 6 3 4 2 16 -4 28 -10 20 -10 20 5 2 9 -11 16 -23 16 -28z m1777 25 c-4 -3 -7 0 -7 7 0 7 3 10 7 7 3 -4 3 -10 0 -14z m-1972 -3 c-9 -15 15 -42 32 -36 8 3 19 -8 28 -27 12 -23 12 -27 2 -15 -16 20 -28 14 -21 -10 5 -14 4 -14 -6 1 -6 9 -8 22 -4 29 5 8 2 9 -10 5 -9 -4 -15 -3 -12 2 3 4 -3 16 -14 26 -16 14 -17 20 -8 27 17 10 20 10 13 -2z m690 -1 c11 -16 1 -19 -13 -3 -7 8 -8 14 -3 14 5 0 13 -5 16 -11z m1011 -4 c-1 -8 -5 -17 -8 -21 -5 -4 -4 16 1 34 3 9 9 -1 7 -13z m135 2 c-6 -8 -7 -18 -3 -22 4 -5 1 -5 -6 -1 -10 6 -10 11 -1 22 6 8 14 14 16 14 3 0 0 -6 -6 -13z m162 -26 c-3 -11 -15 -28 -26 -38 -22 -18 -22 -18 -4 3 19 23 22 44 6 44 -5 0 -8 -4 -5 -9 3 -5 -1 -14 -8 -20 -10 -9 -16 -9 -21 -1 -4 6 -1 9 6 8 7 -2 13 3 14 10 0 14 25 33 36 26 4 -2 5 -13 2 -23z m-1763 15 c0 -3 -5 -8 -12 -12 -7 -4 -8 -3 -4 4 7 12 16 16 16 8z m435 -6 c3 -5 4 -10 1 -10 -3 0 -8 5 -11 10 -3 6 -4 10 -1 10 3 0 8 -4 11 -10z m1110 0 c3 -5 4 -10 1 -10 -3 0 -8 5 -11 10 -3 6 -4 10 -1 10 3 0 8 -4 11 -10z m-1708 -27 c-4 -3 -7 0 -7 7 0 7 3 10 7 7 3 -4 3 -10 0 -14z m199 5 c4 -7 3 -8 -4 -4 -7 4 -12 2 -12 -5 0 -7 -3 -10 -6 -6 -6 5 3 27 11 27 2 0 7 -5 11 -12z m289 2 c3 -5 4 -10 1 -10 -3 0 -8 5 -11 10 -3 6 -4 10 -1 10 3 0 8 -4 11 -10z m-58 -27 c-4 -3 -7 0 -7 7 0 7 3 10 7 7 3 -4 3 -10 0 -14z m190 10 c-4 -3 -2 -12 3 -18 7 -9 5 -17 -7 -26 -16 -13 -17 -12 -5 3 9 11 10 18 2 23 -10 6 -5 25 7 25 4 0 3 -3 0 -7z m-420 -18 c0 -8 -4 -12 -9 -9 -5 3 -6 10 -3 15 9 13 12 11 12 -6z m20 -2 c-4 -3 -7 0 -7 7 0 7 3 10 7 7 3 -4 3 -10 0 -14z m1213 -2 c-6 -12 -6 -22 -1 -25 5 -4 12 0 15 6 2 7 4 3 2 -9 -1 -12 -5 -25 -9 -28 -4 -3 -5 -2 -2 2 3 3 -2 15 -11 25 -14 14 -14 20 -4 33 17 21 23 19 10 -4z m439 1 c7 -13 6 -19 -2 -19 -7 0 -13 9 -13 19 0 10 1 18 3 18 1 0 7 -8 12 -18z m-1611 -25 c17 -18 19 -24 7 -24 -8 0 -13 3 -10 5 3 3 0 11 -6 19 -10 11 -15 11 -28 1 -14 -12 -14 -11 -2 5 17 21 13 22 39 -6z m176 14 c3 -5 -1 -11 -9 -14 -9 -4 -12 -1 -8 9 6 16 10 17 17 5z m30 -7 c3 -8 2 -12 -4 -9 -6 3 -10 10 -10 16 0 14 7 11 14 -7z m-469 -14 c3 -5 4 -10 1 -10 -3 0 -8 5 -11 10 -3 6 -4 10 -1 10 3 0 8 -4 11 -10z m1404 -17 c-12 -15 -12 -16 5 -10 16 6 17 5 6 -8 -15 -18 -29 -20 -26 -2 2 15 15 37 23 37 3 0 -1 -8 -8 -17z m-1372 0 c-4 -3 -10 -3 -14 0 -3 4 0 7 7 7 7 0 10 -3 7 -7z m48 -3 c3 -5 4 -10 1 -10 -3 0 -8 5 -11 10 -3 6 -4 10 -1 10 3 0 8 -4 11 -10z m-22 -20 c3 6 4 5 3 -1 -3 -17 -43 -19 -43 -3 0 9 5 10 18 4 11 -6 19 -6 22 0z m244 -17 c-4 -3 -7 0 -7 7 0 7 3 10 7 7 3 -4 3 -10 0 -14z m1580 -10 c-4 -3 -7 0 -7 7 0 7 3 10 7 7 3 -4 3 -10 0 -14z m-1792 -3 c3 -5 4 -10 1 -10 -3 0 -8 5 -11 10 -3 6 -4 10 -1 10 3 0 8 -4 11 -10z m198 -28 c-6 -15 -5 -15 10 -3 9 7 15 17 12 21 -3 5 -1 11 4 14 13 9 8 -19 -8 -38 -15 -18 -35 -11 -27 9 2 7 -1 19 -7 26 -10 11 -9 11 5 0 10 -7 14 -19 11 -29z m384 21 c-4 -3 -7 0 -7 7 0 7 3 10 7 7 3 -4 3 -10 0 -14z m718 7 c3 -5 4 -10 1 -10 -3 0 -8 5 -11 10 -3 6 -4 10 -1 10 3 0 8 -4 11 -10z m32 3 c-4 -3 -10 -3 -14 0 -3 4 0 7 7 7 7 0 10 -3 7 -7z m-1340 -40 c-4 -3 -7 0 -7 7 0 7 3 10 7 7 3 -4 3 -10 0 -14z m1283 13 c0 -3 -4 -8 -10 -11 -5 -3 -10 -1 -10 4 0 6 5 11 10 11 6 0 10 -2 10 -4z m-1285 -35 c7 -12 -12 -24 -25 -16 -11 7 -4 25 10 25 5 0 11 -4 15 -9z m200 -1 c3 -5 4 -10 1 -10 -3 0 -8 5 -11 10 -3 6 -4 10 -1 10 3 0 8 -4 11 -10z m1069 -11 c-3 -5 -10 -7 -15 -4 -5 4 -9 1 -9 -6 0 -7 -3 -9 -6 -6 -9 9 16 38 27 31 5 -3 7 -10 3 -15z m-317 4 c-4 -3 -10 -3 -14 0 -3 4 0 7 7 7 7 0 10 -3 7 -7z m-60 -10 c-4 -3 -10 -3 -14 0 -3 4 0 7 7 7 7 0 10 -3 7 -7z m103 1 c0 -8 -19 -13 -24 -6 -3 5 1 9 9 9 8 0 15 -2 15 -3z m50 2 c0 -3 -5 -8 -12 -12 -7 -4 -8 -3 -4 4 7 12 16 16 16 8z m34 -4 c3 -5 -1 -9 -9 -9 -8 0 -12 4 -9 9 3 4 7 8 9 8 2 0 6 -4 9 -8z m-879 -12 c3 -5 4 -10 1 -10 -3 0 -8 5 -11 10 -3 6 -4 10 -1 10 3 0 8 -4 11 -10z m35 -5 c-5 -7 -7 -15 -3 -18 3 -4 -2 -9 -11 -13 -9 -3 -13 -10 -10 -15 3 -5 -1 -9 -8 -9 -8 0 -9 -3 -3 -8 17 -12 14 -48 -5 -48 -9 0 -17 6 -17 12 0 7 7 9 16 6 13 -5 13 -1 -3 22 -10 16 -14 26 -10 24 13 -7 41 26 38 44 -1 8 4 15 12 15 9 0 11 -4 4 -12z m95 5 c3 -5 4 -10 1 -10 -3 0 -8 5 -11 10 -3 6 -4 10 -1 10 3 0 8 -4 11 -10z m471 -2 c4 -7 3 -8 -4 -4 -7 4 -12 2 -12 -5 0 -7 -3 -10 -6 -6 -6 5 3 27 11 27 2 0 7 -5 11 -12z m-811 -7 c3 -5 2 -12 -3 -15 -5 -3 -9 1 -9 9 0 17 3 19 12 6z m757 -14 c-7 -8 -10 -16 -7 -19 3 -2 -1 -5 -9 -5 -17 0 -14 26 4 37 19 12 26 4 12 -13z m-219 -4 c-6 -16 -5 -17 13 -3 17 14 18 13 7 -1 -7 -9 -9 -20 -5 -25 4 -5 -2 -1 -14 9 -11 9 -23 16 -25 15 -2 -2 2 3 10 10 20 16 22 15 14 -5z m57 13 c0 -3 -5 -8 -12 -12 -7 -4 -8 -3 -4 4 7 12 16 16 16 8z m615 -6 c3 -5 4 -10 1 -10 -3 0 -8 5 -11 10 -3 6 -4 10 -1 10 3 0 8 -4 11 -10z m-20 -10 c3 -5 4 -10 1 -10 -3 0 -8 5 -11 10 -3 6 -4 10 -1 10 3 0 8 -4 11 -10z m-1191 -19 c3 -5 -2 -15 -12 -22 -15 -12 -16 -12 -5 2 7 9 10 19 6 22 -3 4 -4 7 0 7 3 0 8 -4 11 -9z m330 -32 c-10 -11 -20 -16 -23 -13 -3 3 2 11 11 18 14 10 15 15 5 26 -10 12 -9 12 6 1 16 -13 16 -15 1 -32z m243 24 c-4 -3 -7 0 -7 7 0 7 3 10 7 7 3 -4 3 -10 0 -14z m131 8 c11 -7 10 -9 -3 -14 -10 -4 -14 -3 -10 4 4 6 -3 8 -22 4 -21 -5 -24 -4 -13 4 18 13 31 13 48 2z m89 -8 c-4 -3 -7 0 -7 7 0 7 3 10 7 7 3 -4 3 -10 0 -14z m383 13 c0 -2 -7 -7 -16 -10 -8 -3 -12 -2 -9 4 6 10 25 14 25 6z m-530 -31 c0 -2 -8 -3 -18 -2 -10 0 -19 7 -19 13 0 9 5 10 19 3 10 -5 18 -12 18 -14z m1104 -17 c-8 -12 10 -10 26 5 12 10 12 9 2 -4 -6 -9 -8 -19 -4 -24 4 -4 -3 -3 -14 3 -12 6 -23 9 -26 7 -3 -3 -5 1 -5 8 0 8 6 14 13 14 7 0 11 -4 8 -9z m-1424 -22 c0 -2 -7 -7 -16 -10 -8 -3 -12 -2 -9 4 6 10 25 14 25 6z m-113 -23 c-4 -3 -10 -3 -14 0 -3 4 0 7 7 7 7 0 10 -3 7 -7z m130 0 c-4 -3 -10 -3 -14 0 -3 4 0 7 7 7 7 0 10 -3 7 -7z m1403 3 c0 -2 -8 -10 -17 -17 -16 -13 -17 -12 -4 4 13 16 21 21 21 13z m-1404 -18 c5 4 2 -2 -6 -13 -21 -30 -24 -32 -17 -12 6 16 -3 22 -26 18 -5 -1 -6 3 -2 9 4 7 12 7 24 0 10 -5 22 -6 27 -2z m-102 -14 c3 -8 2 -12 -4 -9 -6 3 -10 10 -10 16 0 14 7 11 14 -7z m1513 -16 c-3 -7 -5 -2 -5 12 0 14 2 19 5 13 2 -7 2 -19 0 -25z m-1820 5 c-4 -3 -7 0 -7 7 0 7 3 10 7 7 3 -4 3 -10 0 -14z m274 -13 c6 0 7 5 3 12 -5 7 -3 8 5 3 9 -5 9 -11 3 -17 -12 -12 -32 -2 -31 15 0 9 2 9 6 0 2 -7 9 -13 14 -13z m79 16 c0 -3 -5 -8 -12 -12 -7 -4 -8 -3 -4 4 7 12 16 16 16 8z m-33 -33 c-4 -3 -7 0 -7 7 0 7 3 10 7 7 3 -4 3 -10 0 -14z m43 13 c0 -3 -5 -8 -12 -12 -7 -4 -8 -3 -4 4 7 12 16 16 16 8z m-357 -29 c-4 -7 -8 -18 -9 -25 -4 -25 -11 -23 -11 3 0 14 4 25 9 25 5 0 6 5 2 12 -4 7 -3 8 5 4 6 -4 8 -13 4 -19z m1827 9 c0 -3 -5 -8 -12 -12 -7 -4 -8 -3 -4 4 7 12 16 16 16 8z m-1563 -13 c-4 -3 -10 -3 -14 0 -3 4 0 7 7 7 7 0 10 -3 7 -7z m38 -3 c3 -5 4 -10 1 -10 -3 0 -8 5 -11 10 -3 6 -4 10 -1 10 3 0 8 -4 11 -10z m70 0 c3 -6 -1 -7 -9 -4 -18 7 -21 14 -7 14 6 0 13 -4 16 -10z m1413 -15 c-3 -3 -9 2 -12 12 -6 14 -5 15 5 6 7 -7 10 -15 7 -18z m32 1 c0 -3 -5 -8 -12 -12 -7 -4 -8 -3 -4 4 7 12 16 16 16 8z m-8 -41 c12 -3 29 -12 37 -21 14 -14 12 -14 -11 1 -16 9 -28 13 -28 7 0 -5 -7 -13 -16 -16 -15 -6 -15 -4 -3 11 12 15 12 16 -2 11 -9 -4 -16 -1 -16 8 0 7 4 11 9 8 4 -3 18 -7 30 -9z m-1809 -8 c3 -8 2 -20 -3 -26 -5 -9 -7 -4 -7 13 0 29 2 32 10 13z m1897 -19 c0 -4 -4 -8 -9 -8 -6 0 -12 4 -15 8 -3 5 1 9 9 9 8 0 15 -4 15 -9z m45 -28 c-3 -4 0 -10 7 -12 8 -3 7 -6 -3 -10 -11 -4 -15 1 -15 17 0 13 4 21 8 19 5 -3 6 -9 3 -14z m-148 4 c-3 -3 -12 -4 -19 -1 -8 3 -5 6 6 6 11 1 17 -2 13 -5z m-1820 -21 c-4 -3 -7 0 -7 7 0 7 3 10 7 7 3 -4 3 -10 0 -14z m29 -29 c0 -13 -2 -22 -5 -19 -3 3 -6 17 -7 31 0 13 2 22 5 19 3 -3 6 -17 7 -31z m1980 27 c-3 -4 6 -13 20 -20 14 -6 24 -17 23 -23 -3 -28 1 -39 14 -32 7 5 7 1 -3 -12 -8 -10 -15 -21 -17 -23 -1 -2 -2 5 -3 15 -1 53 -5 64 -18 59 -7 -2 -10 0 -7 5 8 13 -1 13 -26 0 -21 -12 -23 3 -4 27 11 14 29 18 21 4z m-2028 -64 c-1 -2 3 -11 11 -21 10 -12 17 -14 27 -5 23 19 16 4 -8 -17 -12 -10 -18 -14 -15 -7 9 14 -9 27 -18 13 -3 -5 -12 -10 -18 -10 -7 1 -6 6 4 13 9 7 15 20 13 30 -1 11 0 17 3 14 2 -3 3 -7 1 -10z m2109 -29 c-3 -8 -6 -5 -6 6 -1 11 2 17 5 13 3 -3 4 -12 1 -19z m400 5 c-4 -3 -10 -3 -14 0 -3 4 0 7 7 7 7 0 10 -3 7 -7z m63 -5 c0 -4 -6 -8 -14 -8 -8 0 -17 4 -20 8 -2 4 4 8 15 8 10 0 19 -4 19 -8z m70 8 c0 -3 -5 -8 -12 -12 -7 -4 -8 -3 -4 4 7 12 16 16 16 8z m278 -6 c9 7 9 7 2 -2 -13 -16 -47 -17 -47 -2 0 9 6 10 17 4 10 -6 22 -5 28 0z m36 -5 c-4 -8 -11 -15 -16 -15 -6 0 -5 6 2 15 7 8 14 15 16 15 2 0 1 -7 -2 -15z m-607 -12 c-4 -3 -7 0 -7 7 0 7 3 10 7 7 3 -4 3 -10 0 -14z m99 -8 c1 -9 -4 -11 -14 -7 -10 4 -12 7 -4 10 7 2 9 9 5 15 -3 7 -2 8 2 4 5 -4 10 -14 11 -22z m159 15 c3 -6 -1 -7 -9 -4 -18 7 -21 14 -7 14 6 0 13 -4 16 -10z m48 -5 c-3 -9 -8 -14 -10 -11 -3 3 -2 9 2 15 9 16 15 13 8 -4z m392 5 c3 -6 -1 -7 -9 -4 -18 7 -21 14 -7 14 6 0 13 -4 16 -10z m-950 -10 c3 -5 4 -10 1 -10 -3 0 -8 5 -11 10 -3 6 -4 10 -1 10 3 0 8 -4 11 -10z m52 3 c-4 -3 -10 -3 -14 0 -3 4 0 7 7 7 7 0 10 -3 7 -7z m60 -10 c-4 -3 -7 0 -7 7 0 7 3 10 7 7 3 -4 3 -10 0 -14z m900 -10 c-4 -3 -7 0 -7 7 0 7 3 10 7 7 3 -4 3 -10 0 -14z m-3156 -37 c-21 -20 -22 -20 -15 -1 11 32 28 49 32 35 3 -7 -5 -22 -17 -34z m3176 27 c-4 -3 -7 0 -7 7 0 7 3 10 7 7 3 -4 3 -10 0 -14z m43 -4 c0 -6 -4 -7 -10 -4 -5 3 -10 11 -10 16 0 6 5 7 10 4 6 -3 10 -11 10 -16z m27 -14 c0 -8 -4 -15 -9 -15 -10 0 -11 14 -1 23 9 10 10 9 10 -8z m78 -7 c5 4 5 1 1 -6 -6 -10 -11 -10 -22 -1 -8 6 -14 14 -14 16 0 3 6 0 13 -6 8 -6 18 -7 22 -3z m503 -13 c1 -13 -2 -26 -7 -29 -6 -4 -8 37 -2 52 3 8 7 -1 9 -23z m25 10 c-3 -9 -8 -14 -10 -11 -3 3 -2 9 2 15 9 16 15 13 8 -4z m-676 -12 c-4 -3 -7 0 -7 7 0 7 3 10 7 7 3 -4 3 -10 0 -14z m180 0 c-4 -3 -10 -3 -14 0 -3 4 0 7 7 7 7 0 10 -3 7 -7z m-62 -13 c3 -5 4 -10 1 -10 -3 0 -8 5 -11 10 -3 6 -4 10 -1 10 3 0 8 -4 11 -10z m110 0 c3 -5 4 -10 1 -10 -3 0 -8 5 -11 10 -3 6 -4 10 -1 10 3 0 8 -4 11 -10z m-3399 -12 c4 -7 3 -8 -4 -4 -7 4 -12 2 -12 -5 0 -7 -3 -10 -6 -6 -6 5 3 27 11 27 2 0 7 -5 11 -12z m3776 -11 c-26 -27 -31 -57 -7 -37 8 7 15 10 15 6 0 -3 0 -9 0 -13 0 -4 -5 -8 -12 -9 -7 -1 -22 -5 -33 -9 -14 -5 -16 -4 -7 3 8 5 12 20 10 33 -2 14 2 24 9 24 7 0 18 6 25 13 22 22 22 13 0 -11z m-3830 -10 c-7 -8 -8 -18 -4 -23 4 -4 -1 -2 -11 6 -18 13 -18 15 -1 27 21 15 31 9 16 -10z m3528 13 c0 -5 -5 -10 -11 -10 -5 0 -7 5 -4 10 3 6 8 10 11 10 2 0 4 -4 4 -10z m30 -11 c0 -5 -4 -9 -8 -9 -5 0 -9 7 -9 15 0 8 4 12 9 9 4 -3 8 -9 8 -15z m340 17 c0 -3 -5 -8 -12 -12 -7 -4 -8 -3 -4 4 7 12 16 16 16 8z m-3723 -23 c-4 -3 -7 0 -7 7 0 7 3 10 7 7 3 -4 3 -10 0 -14z m3443 -8 c14 -19 14 -19 -2 -6 -10 7 -18 18 -18 24 0 6 1 8 3 6 1 -2 9 -13 17 -24z m46 6 c-4 -5 0 -12 6 -14 8 -3 6 -6 -4 -6 -18 -1 -24 10 -11 22 9 10 15 8 9 -2z m58 -4 c3 3 6 4 6 1 0 -3 -8 -12 -17 -19 -10 -7 -15 -9 -11 -5 4 5 0 15 -10 23 -15 13 -15 13 4 4 12 -6 24 -7 28 -4z m46 3 c-8 -5 -19 -10 -25 -10 -5 0 -3 5 5 10 8 5 20 10 25 10 6 0 3 -5 -5 -10z m-3840 -8 c0 -5 -7 -9 -15 -9 -8 0 -12 4 -9 9 3 4 9 8 15 8 5 0 9 -4 9 -8z m277 -9 c-4 -3 -7 0 -7 7 0 7 3 10 7 7 3 -4 3 -10 0 -14z m3688 7 c3 -5 4 -10 1 -10 -3 0 -8 5 -11 10 -3 6 -4 10 -1 10 3 0 8 -4 11 -10z m-3928 -7 c-4 -3 -10 -3 -14 0 -3 4 0 7 7 7 7 0 10 -3 7 -7z m70 -10 c-4 -3 -7 0 -7 7 0 7 3 10 7 7 3 -4 3 -10 0 -14z m-121 -5 c5 4 6 3 1 -2 -4 -6 -18 -11 -30 -12 -12 -2 -16 0 -9 2 6 3 9 11 5 17 -5 8 -2 8 9 0 8 -7 19 -9 24 -5z m261 -5 c-4 -3 -7 0 -7 7 0 7 3 10 7 7 3 -4 3 -10 0 -14z m3610 10 c-4 -3 -10 -3 -14 0 -3 4 0 7 7 7 7 0 10 -3 7 -7z m78 -13 c-3 -5 0 -10 7 -10 7 0 2 -7 -10 -16 -15 -10 -27 -12 -38 -6 -15 8 -15 10 0 15 11 5 15 3 10 -4 -4 -7 -1 -10 7 -7 8 3 15 10 15 16 2 19 4 22 10 22 3 0 2 -4 -1 -10z m45 4 c0 -8 -19 -13 -24 -6 -3 5 1 9 9 9 8 0 15 -2 15 -3z m-841 -48 c-3 -3 -11 5 -18 17 -13 21 -12 21 5 5 10 -10 16 -20 13 -22z m221 19 c0 -12 -19 -12 -23 0 -4 9 -1 12 9 8 7 -3 14 -7 14 -8z m28 -10 c-3 -3 -9 2 -12 12 -6 14 -5 15 5 6 7 -7 10 -15 7 -18z m27 15 c3 -5 4 -10 1 -10 -3 0 -8 5 -11 10 -3 6 -4 10 -1 10 3 0 8 -4 11 -10z m605 7 c0 -2 -8 -11 -18 -20 -15 -14 -19 -15 -19 -2 0 8 4 12 8 9 4 -2 10 0 14 6 6 10 15 14 15 7z m-834 -19 c4 -6 3 -8 -3 -5 -6 4 -13 0 -16 -7 -3 -8 -2 -16 4 -18 5 -2 -1 -9 -13 -17 -20 -12 -22 -12 -12 0 5 8 10 21 9 29 0 8 4 18 10 22 13 10 13 10 21 -4z m83 2 c-6 -5 -18 -6 -26 -3 -19 8 -16 11 13 11 17 0 22 -3 13 -8z m201 -16 c0 -2 -9 0 -20 6 -11 6 -20 13 -20 16 0 2 9 0 20 -6 11 -6 20 -13 20 -16z m25 17 c3 -5 2 -12 -3 -15 -5 -3 -9 1 -9 9 0 17 3 19 12 6z m372 -8 c0 -15 -13 -17 -22 -3 -4 6 -11 7 -17 4 -6 -4 -8 -3 -5 2 8 14 44 12 44 -3z m-3972 -28 c1 -14 -2 -22 -5 -19 -3 3 -5 16 -5 29 -1 14 2 22 5 19 3 -3 5 -16 5 -29z m4161 1 c1 -10 -4 -12 -14 -9 -11 5 -13 3 -7 -7 6 -9 4 -11 -5 -5 -10 6 -9 11 5 22 17 12 13 18 -8 14 -5 -1 -5 4 -2 10 9 13 28 -3 31 -25z m-938 -2 c0 -17 -3 -22 -8 -13 -5 6 -6 18 -3 26 8 19 11 16 11 -13z m127 16 c3 -5 4 -10 1 -10 -3 0 -8 5 -11 10 -3 6 -4 10 -1 10 3 0 8 -4 11 -10z m172 3 c-4 -3 -10 -3 -14 0 -3 4 0 7 7 7 7 0 10 -3 7 -7z m478 -3 c3 -5 4 -10 1 -10 -3 0 -8 5 -11 10 -3 6 -4 10 -1 10 3 0 8 -4 11 -10z m-4698 -7 c-4 -3 -10 -3 -14 0 -3 4 0 7 7 7 7 0 10 -3 7 -7z m68 -3 c3 -5 1 -10 -4 -10 -6 0 -11 5 -11 10 0 6 2 10 4 10 3 0 8 -4 11 -10z m575 0 c0 -5 -5 -10 -11 -10 -5 0 -7 5 -4 10 3 6 8 10 11 10 2 0 4 -4 4 -10z m27 3 c-4 -3 -10 -3 -14 0 -3 4 0 7 7 7 7 0 10 -3 7 -7z m3343 3 c0 -3 -4 -8 -10 -11 -5 -3 -10 -1 -10 4 0 6 5 11 10 11 6 0 10 -2 10 -4z m751 -20 c5 3 6 10 3 16 -4 7 -2 8 5 4 8 -6 9 -12 2 -20 -6 -7 -7 -17 -3 -22 4 -4 0 -3 -8 3 -8 6 -18 11 -22 10 -3 -1 -10 2 -15 7 -5 5 -3 6 5 2 7 -5 12 -1 13 11 1 17 2 17 6 0 2 -9 9 -15 14 -11z m49 20 c0 -3 -5 -8 -12 -12 -7 -4 -8 -3 -4 4 7 12 16 16 16 8z m-4848 -13 c-6 -2 -10 -9 -6 -14 3 -5 0 -9 -5 -9 -12 0 -14 13 -4 23 3 4 11 7 17 6 6 0 5 -3 -2 -6z m75 0 c-4 -3 -10 -3 -14 0 -3 4 0 7 7 7 7 0 10 -3 7 -7z m4175 0 c-6 -2 -9 -10 -6 -15 4 -7 2 -8 -5 -4 -13 9 -5 26 12 25 9 0 8 -2 -1 -6z m73 -3 c3 -5 4 -10 1 -10 -3 0 -8 5 -11 10 -3 6 -4 10 -1 10 3 0 8 -4 11 -10z m365 6 c0 -2 -7 -7 -16 -10 -8 -3 -12 -2 -9 4 6 10 25 14 25 6z m-4643 -13 c-4 -3 -10 -3 -14 0 -3 4 0 7 7 7 7 0 10 -3 7 -7z m107 -5 c-3 -4 -11 -5 -19 -1 -21 7 -19 12 4 10 11 0 18 -5 15 -9z m4011 -9 c-6 -30 -9 -31 -24 -7 -7 11 -8 17 -2 14 5 -4 12 -2 16 4 10 16 14 12 10 -11z m-3999 -74 c8 -17 9 -22 2 -11 -7 11 -25 34 -40 51 -16 18 -28 36 -28 39 0 13 52 -49 66 -79z m14 81 c0 -3 -5 -8 -12 -12 -7 -4 -8 -3 -4 4 7 12 16 16 16 8z m4675 -6 c3 -5 4 -10 1 -10 -3 0 -8 5 -11 10 -3 6 -4 10 -1 10 3 0 8 -4 11 -10z m-1098 -7 c-4 -3 -10 -3 -14 0 -3 4 0 7 7 7 7 0 10 -3 7 -7z m179 -5 c5 -7 3 -8 -6 -3 -10 6 -12 4 -7 -8 3 -10 2 -17 -3 -17 -11 0 -13 23 -3 33 9 9 11 9 19 -5z m999 -6 c-3 -3 -11 0 -18 7 -9 10 -8 11 6 5 10 -3 15 -9 12 -12z m-4280 -2 c3 -5 4 -10 1 -10 -3 0 -8 5 -11 10 -3 6 -4 10 -1 10 3 0 8 -4 11 -10z m3772 3 c-4 -3 -10 -3 -14 0 -3 4 0 7 7 7 7 0 10 -3 7 -7z m481 -6 c6 -5 12 -14 11 -20 0 -9 -2 -9 -6 0 -3 10 -10 9 -28 -3 -19 -13 -23 -13 -28 0 -4 10 0 12 16 8 19 -5 20 -3 9 10 -11 14 -11 16 0 14 7 -1 19 -5 26 -9z m-4723 -7 c9 8 14 6 19 -5 3 -9 11 -13 17 -9 8 5 9 3 4 -5 -5 -9 -10 -10 -18 -2 -15 15 -30 14 -21 -1 5 -9 2 -9 -9 1 -9 7 -17 19 -16 25 0 6 3 6 6 -2 4 -9 9 -10 18 -2z m443 -15 c-3 -3 -9 2 -12 12 -6 14 -5 15 5 6 7 -7 10 -15 7 -18z m3119 18 c-4 -3 -10 -3 -14 0 -3 4 0 7 7 7 7 0 10 -3 7 -7z m33 3 c0 -3 -5 -8 -12 -12 -7 -4 -8 -3 -4 4 7 12 16 16 16 8z m610 -7 c0 -5 4 -7 10 -4 6 4 7 -1 3 -11 -5 -15 -7 -15 -15 0 -5 9 -14 16 -19 16 -6 0 -8 -4 -5 -8 3 -5 -1 -9 -8 -9 -23 0 -13 23 11 25 13 1 23 -3 23 -9z m175 1 c3 -5 4 -10 1 -10 -3 0 -8 5 -11 10 -3 6 -4 10 -1 10 3 0 8 -4 11 -10z m-3990 -10 c4 -6 3 -10 -2 -9 -15 4 -43 -13 -37 -22 3 -5 -3 -6 -12 -2 -11 4 -13 8 -6 11 7 2 10 8 7 13 -4 5 0 6 8 3 8 -3 18 -1 22 5 8 14 12 14 20 1z m3145 6 c0 -3 -5 -8 -12 -12 -7 -4 -8 -3 -4 4 7 12 16 16 16 8z m460 0 c0 -3 -5 -8 -12 -12 -7 -4 -8 -3 -4 4 7 12 16 16 16 8z m267 -3 c-4 -3 -10 -3 -14 0 -3 4 0 7 7 7 7 0 10 -3 7 -7z m249 -29 c3 -16 2 -26 -1 -23 -3 4 -8 19 -11 35 -3 16 -2 26 1 23 3 -4 8 -19 11 -35z m259 26 c3 -5 4 -10 1 -10 -3 0 -8 5 -11 10 -3 6 -4 10 -1 10 3 0 8 -4 11 -10z m-4674 -17 c13 -16 12 -17 -3 -4 -10 7 -18 15 -18 17 0 8 8 3 21 -13z m3457 1 c-1 -5 -9 -9 -16 -10 -10 -2 -11 1 -1 12 12 14 24 13 17 -2z m297 6 c3 -5 4 -10 1 -10 -3 0 -8 5 -11 10 -3 6 -4 10 -1 10 3 0 8 -4 11 -10z m-3781 -8 c3 -5 -1 -9 -9 -9 -8 0 -12 4 -9 9 3 4 7 8 9 8 2 0 6 -4 9 -8z m66 4 c0 -3 -5 -8 -12 -12 -7 -4 -8 -3 -4 4 7 12 16 16 16 8z m167 -13 c-4 -3 -7 0 -7 7 0 7 3 10 7 7 3 -4 3 -10 0 -14z m3293 13 c0 -3 -5 -8 -12 -12 -7 -4 -8 -3 -4 4 7 12 16 16 16 8z m157 -11 c0 -8 -4 -12 -9 -9 -5 3 -6 10 -3 15 9 13 12 11 12 -6z m538 -33 c2 -13 0 -20 -6 -17 -5 4 -9 2 -9 -4 0 -5 5 -11 12 -13 8 -3 7 -6 -3 -10 -17 -6 -24 28 -8 37 5 4 5 14 -1 26 -6 11 -16 16 -22 13 -7 -5 -8 -2 -3 5 10 17 34 -6 40 -37z m-3855 34 c0 -3 -5 -8 -12 -12 -7 -4 -8 -3 -4 4 7 12 16 16 16 8z m3757 -11 c0 -8 -4 -12 -9 -9 -5 3 -6 10 -3 15 9 13 12 11 12 -6z m528 5 c3 -6 -1 -7 -9 -4 -18 7 -21 14 -7 14 6 0 13 -4 16 -10z m59 -12 c-5 -7 2 -9 20 -6 18 4 24 2 18 -4 -15 -15 -45 -5 -48 15 -1 9 2 15 7 11 5 -3 6 -10 3 -16z m-1274 -13 c0 -2 -9 -3 -19 -2 -11 0 -18 5 -15 9 4 6 34 0 34 -7z m267 0 c0 -8 -4 -12 -9 -9 -5 3 -6 10 -3 15 9 13 12 11 12 -6z m60 0 c0 -8 -4 -12 -9 -9 -5 3 -6 10 -3 15 9 13 12 11 12 -6z m200 -2 c0 -9 -4 -10 -14 -2 -7 6 -13 12 -13 14 0 1 6 2 13 2 8 0 14 -6 14 -14z m213 13 c0 -2 -7 -7 -16 -10 -8 -3 -12 -2 -9 4 6 10 25 14 25 6z m11 -19 c-10 -9 -11 -8 -5 6 3 10 9 15 12 12 3 -3 0 -11 -7 -18z m174 -9 c2 -20 1 -20 -11 -3 -7 10 -11 22 -8 27 8 13 17 2 19 -24z m-1045 18 c0 -2 -7 -7 -16 -10 -8 -3 -12 -2 -9 4 6 10 25 14 25 6z m-3424 -44 c-15 -15 -15 -15 -4 10 7 15 15 23 17 17 2 -6 -4 -18 -13 -27z m3334 34 c0 -3 -5 -8 -12 -12 -7 -4 -8 -3 -4 4 7 12 16 16 16 8z m50 0 c0 -3 -5 -8 -12 -12 -7 -4 -8 -3 -4 4 7 12 16 16 16 8z m275 -6 c3 -5 4 -10 1 -10 -3 0 -8 5 -11 10 -3 6 -4 10 -1 10 3 0 8 -4 11 -10z m181 1 c-4 -5 0 -12 6 -14 8 -3 6 -6 -4 -6 -18 -1 -24 10 -11 22 9 10 15 8 9 -2z m313 -32 c13 -11 19 -19 14 -19 -6 0 -16 7 -23 15 -7 8 -15 13 -19 11 -3 -2 -15 6 -26 17 l-20 20 25 -13 c14 -7 36 -21 49 -31z m726 31 c3 -5 4 -10 1 -10 -3 0 -8 5 -11 10 -3 6 -4 10 -1 10 3 0 8 -4 11 -10z m-1338 -6 c-3 -3 -12 -4 -19 -1 -8 3 -5 6 6 6 11 1 17 -2 13 -5z m371 -19 c-3 -3 -9 2 -12 12 -6 14 -5 15 5 6 7 -7 10 -15 7 -18z m597 7 c-3 -3 -11 0 -18 7 -9 10 -8 11 6 5 10 -3 15 -9 12 -12z m42 1 c-4 -3 -7 0 -7 7 0 7 3 10 7 7 3 -4 3 -10 0 -14z m-4744 -18 c4 3 5 2 2 -2 -12 -16 -34 -10 -32 9 1 17 3 17 13 4 6 -9 14 -14 17 -11z m4481 16 c4 -5 -4 -7 -16 -4 -22 4 -23 4 -4 -11 11 -9 15 -16 9 -16 -14 0 -34 25 -26 33 9 10 31 9 37 -2z m573 -8 c-4 -3 -7 0 -7 7 0 7 3 10 7 7 3 -4 3 -10 0 -14z m-5025 -16 c-7 -8 -10 -16 -7 -19 3 -2 -1 -5 -9 -5 -12 0 -11 5 2 23 9 12 19 20 21 18 2 -2 -1 -10 -7 -17z m35 6 c-4 -3 -7 0 -7 7 0 7 3 10 7 7 3 -4 3 -10 0 -14z m100 1 c0 -13 -25 -12 -51 3 -16 9 -14 10 16 9 19 0 35 -6 35 -12z m3685 -6 c-7 -7 -12 -8 -12 -2 0 14 12 26 19 19 2 -3 -1 -11 -7 -17z m923 12 c-3 -5 -12 -10 -18 -10 -7 0 -6 4 3 10 19 12 23 12 15 0z m333 -8 c9 -10 18 -25 20 -33 1 -8 -4 -6 -13 5 -13 18 -20 15 -16 -7 1 -4 -8 -2 -19 5 -11 7 -20 17 -20 22 0 4 6 3 13 -3 18 -14 30 -2 16 16 -17 20 -2 16 19 -5z m-1558 4 c0 -2 -6 -9 -14 -15 -11 -9 -16 -9 -22 0 -4 8 -3 9 4 5 7 -4 12 -2 12 3 0 6 5 11 10 11 6 0 10 -2 10 -4z m1137 -3 c-4 -3 -10 -3 -14 0 -3 4 0 7 7 7 7 0 10 -3 7 -7z m-4470 -10 c-4 -3 -10 -3 -14 0 -3 4 0 7 7 7 7 0 10 -3 7 -7z m3938 -21 c15 -12 22 -22 16 -22 -7 0 -9 -5 -5 -12 4 -8 3 -10 -2 -5 -5 5 -9 14 -9 20 0 5 -6 12 -14 15 -10 3 -11 0 -5 -9 5 -9 -1 -8 -19 4 -15 10 -33 15 -39 11 -6 -4 -8 -3 -4 4 3 5 0 12 -6 15 -7 2 3 4 23 2 20 -1 49 -11 64 -23z m-4100 8 c3 -5 4 -10 1 -10 -3 0 -8 5 -11 10 -3 6 -4 10 -1 10 3 0 8 -4 11 -10z m3162 3 c-4 -3 1 -12 11 -20 15 -13 15 -13 -6 -3 -19 9 -23 30 -5 30 4 0 3 -3 0 -7z m113 3 c0 -3 -5 -8 -12 -12 -7 -4 -8 -3 -4 4 7 12 16 16 16 8z m37 -18 c0 -13 -1 -17 -4 -10 -3 6 -9 12 -14 12 -6 0 -7 -5 -3 -12 5 -7 3 -8 -6 -3 -10 6 -9 11 5 22 11 7 19 13 20 13 0 0 1 -10 2 -22z m58 -8 c-4 -6 -13 -9 -21 -6 -8 3 -14 1 -14 -3 0 -5 6 -12 13 -14 9 -4 9 -6 0 -6 -21 -2 -25 20 -7 40 18 20 43 11 29 -11z m135 20 c-12 -8 -12 -10 -1 -10 9 0 11 -7 8 -21 -4 -15 -2 -19 8 -15 7 2 18 -1 24 -8 8 -9 4 -12 -14 -12 -14 0 -25 4 -25 9 0 5 -6 7 -13 4 -8 -3 -20 -1 -28 4 -12 7 -12 9 1 10 8 1 21 1 28 0 14 -2 16 15 2 24 -13 8 -3 25 13 25 7 0 6 -4 -3 -10z m226 -15 c-3 -14 -1 -25 4 -25 4 0 11 -7 14 -16 5 -13 4 -14 -7 -6 -8 7 -18 8 -22 4 -5 -4 -5 -1 -1 6 4 7 2 12 -6 12 -9 0 -9 3 2 10 13 9 7 14 -12 11 -5 0 -8 4 -8 10 0 6 7 9 15 5 8 -3 15 -1 15 4 0 6 2 10 5 10 3 0 3 -11 1 -25z m87 0 c-3 -9 0 -22 7 -30 7 -9 8 -15 2 -15 -12 0 -33 55 -25 64 10 10 22 -4 16 -19z m654 11 c0 -8 -8 -11 -20 -8 -13 3 -18 1 -13 -6 3 -6 1 -14 -6 -18 -7 -4 -10 -4 -6 1 4 4 2 15 -5 23 -6 9 -7 13 -2 10 7 -4 41 3 51 11 0 1 1 -5 1 -13z m28 4 c3 -5 4 -10 1 -10 -3 0 -8 5 -11 10 -3 6 -4 10 -1 10 3 0 8 -4 11 -10z m176 -7 c13 -16 12 -17 -3 -4 -17 13 -22 21 -14 21 2 0 10 -8 17 -17z m39 13 c0 -3 -5 -8 -12 -12 -7 -4 -8 -3 -4 4 7 12 16 16 16 8z m-1503 -13 c-4 -3 -10 -3 -14 0 -3 4 0 7 7 7 7 0 10 -3 7 -7z m558 -3 c3 -6 -1 -7 -9 -4 -18 7 -21 14 -7 14 6 0 13 -4 16 -10z m962 -22 c-3 -7 -5 -2 -5 12 0 14 2 19 5 13 2 -7 2 -19 0 -25z m-72 12 c3 -6 -1 -7 -9 -4 -18 7 -21 14 -7 14 6 0 13 -4 16 -10z m465 -15 c14 -19 14 -19 -2 -6 -10 7 -18 18 -18 24 0 6 1 8 3 6 1 -2 9 -13 17 -24z m-5175 5 c3 -6 -1 -7 -9 -4 -18 7 -21 14 -7 14 6 0 13 -4 16 -10z m37 3 c-6 -2 -9 -10 -6 -15 4 -7 2 -8 -4 -4 -18 11 -14 26 6 25 10 0 12 -3 4 -6z m4538 -37 c0 -6 -7 -1 -15 10 -8 10 -15 23 -15 28 0 6 7 1 15 -10 8 -10 15 -23 15 -28z m190 34 c0 -5 -5 -10 -11 -10 -5 0 -7 5 -4 10 3 6 8 10 11 10 2 0 4 -4 4 -10z m-1548 -29 c-5 -3 -11 -13 -14 -21 -3 -10 -6 -8 -10 8 -4 14 -2 20 5 15 7 -4 8 0 3 12 -5 15 -4 16 9 5 9 -7 12 -16 7 -19z m1295 12 c-4 -3 -7 0 -7 7 0 7 3 10 7 7 3 -4 3 -10 0 -14z m290 0 c-4 -3 -7 0 -7 7 0 7 3 10 7 7 3 -4 3 -10 0 -14z m358 -3 c3 -5 4 -10 1 -10 -3 0 -8 5 -11 10 -3 6 -4 10 -1 10 3 0 8 -4 11 -10z m-5100 -10 c3 -5 4 -10 1 -10 -3 0 -8 5 -11 10 -3 6 -4 10 -1 10 3 0 8 -4 11 -10z m3360 0 c-3 -5 -12 -10 -18 -10 -7 0 -6 4 3 10 19 12 23 12 15 0z m1129 2 c3 -5 -1 -9 -9 -9 -8 0 -12 4 -9 9 3 4 7 8 9 8 2 0 6 -4 9 -8z m233 -7 c0 -8 -4 -12 -8 -9 -4 2 -10 0 -14 -6 -3 -5 -1 -10 4 -10 6 0 10 -4 9 -9 -2 -5 1 -11 6 -12 5 -2 10 4 12 14 1 11 6 22 10 25 4 4 5 0 2 -8 -3 -8 2 -20 10 -26 12 -9 12 -13 2 -19 -9 -5 -11 -4 -6 3 4 7 3 12 -2 12 -17 0 -22 -13 -9 -28 9 -13 9 -14 0 -8 -8 4 -13 2 -13 -5 0 -16 -11 -5 -13 13 -2 7 -10 24 -20 38 -9 13 -17 29 -17 35 0 5 4 4 9 -3 6 -10 10 -10 21 3 15 19 17 19 17 0z m-966 -18 c-10 -9 -11 -8 -5 6 3 10 9 15 12 12 3 -3 0 -11 -7 -18z m1334 13 c3 -5 4 -10 1 -10 -3 0 -8 5 -11 10 -3 6 -4 10 -1 10 3 0 8 -4 11 -10z m50 1 c3 -5 1 -12 -5 -16 -6 -4 -7 -12 -3 -18 4 -7 1 -7 -9 1 -9 8 -14 20 -11 28 6 16 19 18 28 5z m-5061 -12 c-4 -7 -44 0 -44 7 0 2 11 3 24 2 14 -1 23 -5 20 -9z m121 -5 c-15 -11 -15 -13 2 -23 16 -9 16 -10 -4 -8 -12 0 -19 5 -17 9 3 4 -1 8 -8 9 -10 0 -10 2 0 6 6 2 10 8 8 12 -3 4 4 7 15 7 18 0 19 -1 4 -12z m720 6 c3 -5 4 -10 1 -10 -3 0 -8 5 -11 10 -3 6 -4 10 -1 10 3 0 8 -4 11 -10z m55 0 c0 -5 -5 -10 -11 -10 -5 0 -7 5 -4 10 3 6 8 10 11 10 2 0 4 -4 4 -10z m34 1 c7 -11 -22 -36 -31 -27 -3 3 -1 6 5 6 6 0 9 7 6 15 -6 16 11 21 20 6z m139 -6 c-3 -9 -8 -14 -10 -11 -3 3 -2 9 2 15 9 16 15 13 8 -4z m81 3 c-3 -4 -9 -8 -15 -8 -5 0 -9 4 -9 8 0 5 7 9 15 9 8 0 12 -4 9 -9z m39 -3 c4 -8 3 -16 -1 -19 -4 -3 -9 4 -9 15 -2 23 3 25 10 4z m1692 5 c3 -5 1 -10 -4 -10 -6 0 -11 5 -11 10 0 6 2 10 4 10 3 0 8 -4 11 -10z m215 0 c0 -5 -5 -10 -11 -10 -5 0 -7 5 -4 10 3 6 8 10 11 10 2 0 4 -4 4 -10z m-244 -22 c-1 -14 -8 -23 -19 -24 -13 -2 -14 -1 -1 3 8 3 13 11 10 18 -2 7 -2 16 1 19 10 9 10 8 9 -16z m476 -30 c5 1 6 -2 3 -9 -7 -11 -65 36 -65 53 0 5 12 -4 26 -19 15 -15 31 -27 36 -25z m-3257 32 c3 -5 4 -10 1 -10 -3 0 -8 5 -11 10 -3 6 -4 10 -1 10 3 0 8 -4 11 -10z m2847 -8 c-10 -3 -10 -7 -1 -18 6 -8 16 -11 22 -7 6 3 7 1 3 -6 -5 -8 -15 -6 -33 9 -14 11 -30 17 -36 13 -6 -3 -7 -1 -3 5 4 6 14 8 23 5 11 -4 14 -3 9 5 -5 8 -1 10 10 5 12 -4 14 -8 6 -11z m405 12 c-3 -3 -12 -4 -19 -1 -8 3 -5 6 6 6 11 1 17 -2 13 -5z m1760 -1 c-4 -3 -10 -3 -14 0 -3 4 0 7 7 7 7 0 10 -3 7 -7z m-2117 -7 c0 -3 -5 -8 -12 -12 -7 -4 -8 -3 -4 4 7 12 16 16 16 8z m110 -11 c-7 -8 -17 -15 -22 -15 -11 0 14 29 26 30 5 0 3 -7 -4 -15z m280 11 c0 -3 -5 -8 -12 -12 -7 -4 -8 -3 -4 4 7 12 16 16 16 8z m349 -10 c10 -11 9 -14 -4 -12 -8 1 -21 8 -27 14 -9 9 -8 12 4 12 8 0 21 -6 27 -14z m733 7 c-6 -3 -9 -10 -5 -16 4 -7 -1 -6 -10 2 -21 17 -21 17 6 18 12 0 16 -1 9 -4z m-673 -6 c-2 -1 -15 -11 -29 -22 l-25 -20 19 23 c11 12 24 22 29 22 6 0 8 -1 6 -3z m1328 -4 c-4 -3 -10 -3 -14 0 -3 4 0 7 7 7 7 0 10 -3 7 -7z m30 -11 c-9 -2 -14 -8 -11 -14 4 -7 2 -8 -5 -4 -9 6 -9 11 0 22 6 7 16 11 23 7 7 -5 5 -9 -7 -11z m-4960 -7 c0 -8 -4 -12 -9 -9 -5 3 -6 10 -3 15 9 13 12 11 12 -6z m683 -7 c0 -12 -3 -18 -7 -15 -3 4 -13 1 -21 -6 -13 -10 -14 -9 -7 3 10 16 28 39 33 40 1 0 2 -10 2 -22z m70 16 c0 -8 -19 -13 -24 -6 -3 5 1 9 9 9 8 0 15 -2 15 -3z m527 -11 c-4 -3 -7 0 -7 7 0 7 3 10 7 7 3 -4 3 -10 0 -14z m2058 7 c3 -5 1 -10 -4 -10 -6 0 -11 5 -11 10 0 6 2 10 4 10 3 0 8 -4 11 -10z m290 0 c3 -5 4 -10 1 -10 -3 0 -8 5 -11 10 -3 6 -4 10 -1 10 3 0 8 -4 11 -10z m620 0 c3 -5 4 -10 1 -10 -3 0 -8 5 -11 10 -3 6 -4 10 -1 10 3 0 8 -4 11 -10z m50 1 c3 -5 2 -12 -3 -15 -5 -3 -9 1 -9 9 0 17 3 19 12 6z m-3585 -5 c0 -3 -5 -8 -12 -12 -7 -4 -8 -3 -4 4 7 12 16 16 16 8z m2887 -11 c0 -8 -4 -12 -9 -9 -5 3 -6 10 -3 15 9 13 12 11 12 -6z m943 11 c0 -3 -4 -8 -10 -11 -5 -3 -10 -1 -10 4 0 6 5 11 10 11 6 0 10 -2 10 -4z m-3645 -16 c3 -5 4 -10 1 -10 -3 0 -8 5 -11 10 -3 6 -4 10 -1 10 3 0 8 -4 11 -10z m2755 0 c0 -5 -5 -10 -11 -10 -5 0 -7 5 -4 10 3 6 8 10 11 10 2 0 4 -4 4 -10z m-3630 -4 c0 -3 -5 -8 -12 -12 -7 -4 -8 -3 -4 4 7 12 16 16 16 8z m32 -5 c7 11 8 9 4 -5 -5 -16 -2 -17 21 -13 16 4 22 4 15 1 -9 -4 -7 -10 6 -22 9 -10 13 -14 8 -9 -16 11 -28 8 -19 -5 4 -7 -7 -2 -24 12 -18 14 -32 32 -32 40 1 12 2 12 6 1 5 -11 7 -11 15 0z m87 -3 c7 11 9 11 14 -2 4 -9 3 -15 -1 -15 -20 3 -32 -2 -27 -11 4 -6 9 -8 13 -6 4 2 7 -8 7 -24 0 -17 -4 -26 -12 -23 -6 3 -9 11 -6 18 2 8 1 20 -3 27 -5 7 -10 22 -11 33 -3 16 -1 17 7 5 8 -12 12 -13 19 -2z m386 2 c3 -5 4 -10 1 -10 -3 0 -8 5 -11 10 -3 6 -4 10 -1 10 3 0 8 -4 11 -10z m35 6 c0 -3 -5 -8 -12 -12 -7 -4 -8 -3 -4 4 7 12 16 16 16 8z m68 -21 c-3 -3 -9 2 -12 12 -6 14 -5 15 5 6 7 -7 10 -15 7 -18z m582 21 c0 -3 -5 -8 -12 -12 -7 -4 -8 -3 -4 4 7 12 16 16 16 8z m52 -4 c3 8 6 7 10 -4 8 -20 -17 -18 -35 2 -10 12 -9 12 5 2 13 -10 17 -10 20 0z m1599 -9 c13 -16 12 -17 -3 -4 -17 13 -22 21 -14 21 2 0 10 -8 17 -17z m395 -1 c-1 -7 -8 -18 -16 -25 -11 -9 -11 -8 0 7 13 18 13 19 -2 13 -9 -3 -21 0 -27 7 -7 9 -3 12 18 11 17 0 28 -5 27 -13z m424 14 c0 -3 -5 -8 -12 -12 -7 -4 -8 -3 -4 4 7 12 16 16 16 8z m575 -6 c3 -5 4 -10 1 -10 -3 0 -8 5 -11 10 -3 6 -4 10 -1 10 3 0 8 -4 11 -10z m-3415 -4 c0 -2 -7 -7 -16 -10 -8 -3 -12 -2 -9 4 6 10 25 14 25 6z m56 -24 c-9 -9 -37 8 -31 18 5 8 11 7 21 -1 8 -6 12 -14 10 -17z m1677 11 c-6 -17 -5 -17 14 0 16 14 20 15 20 2 0 -8 -3 -13 -5 -10 -3 3 -11 0 -18 -6 -14 -12 -29 4 -19 21 10 16 15 11 8 -7z m61 2 c3 -8 1 -15 -4 -15 -6 0 -10 7 -10 15 0 8 2 15 4 15 2 0 6 -7 10 -15z m212 -7 l19 -23 -22 18 c-21 18 -21 18 -25 -3 l-3 -21 -13 22 c-8 11 -9 18 -3 15 5 -4 12 -2 16 4 8 14 9 13 31 -12z m170 -18 c12 -31 12 -33 -1 -16 -8 11 -15 26 -15 33 0 7 -4 13 -9 13 -5 0 -8 -8 -6 -17 1 -10 0 -12 -2 -5 -3 7 -8 10 -12 8 -4 -3 -8 1 -8 8 0 28 39 10 53 -24z m1535 30 c3 -20 4 -25 11 -36 4 -6 1 -11 -7 -11 -8 0 -12 4 -9 9 3 4 1 8 -5 8 -5 0 -9 9 -8 20 1 20 16 28 18 10z m-4041 -11 c0 -6 7 -8 18 -4 14 5 15 4 4 -6 -10 -11 -15 -10 -29 4 -11 11 -13 17 -5 17 7 0 12 -5 12 -11z m95 -7 c-3 -3 -11 0 -18 7 -9 10 -8 11 6 5 10 -3 15 -9 12 -12z m60 -1 c-3 -6 -11 -11 -16 -11 -5 0 -4 6 3 14 14 16 24 13 13 -3z m554 12 c-3 -19 2 -27 10 -15 6 11 10 11 19 0 8 -10 5 -13 -14 -14 -13 -1 -24 1 -24 5 0 15 -36 8 -60 -13 -14 -11 -22 -17 -18 -12 4 5 3 15 -3 22 -7 9 -6 12 8 9 10 -1 23 2 30 7 7 5 17 7 22 4 5 -4 12 -2 16 4 7 12 16 13 14 3z m1986 -3 c3 -5 4 -10 1 -10 -3 0 -8 5 -11 10 -3 6 -4 10 -1 10 3 0 8 -4 11 -10z m1315 -5 c0 -8 -4 -15 -10 -15 -5 0 -7 7 -4 15 4 8 8 15 10 15 2 0 4 -7 4 -15z m-3675 -24 c2 -12 0 -19 -6 -16 -5 4 -7 11 -4 16 4 5 1 9 -5 9 -6 0 -8 5 -5 11 9 13 15 7 20 -20z m990 19 c3 -6 -1 -7 -9 -4 -18 7 -21 14 -7 14 6 0 13 -4 16 -10z m1442 -5 c0 -8 -4 -12 -9 -9 -5 3 -6 10 -3 15 9 13 12 11 12 -6z m100 8 c-4 -3 -10 -3 -14 0 -3 4 0 7 7 7 7 0 10 -3 7 -7z m914 -8 c8 5 11 4 6 0 -4 -5 0 -18 8 -31 12 -19 12 -23 0 -28 -10 -3 -12 0 -8 11 4 11 2 14 -5 9 -8 -4 -10 -2 -6 7 3 8 -2 17 -10 20 -9 4 -16 12 -16 19 0 10 2 10 9 -1 5 -8 14 -10 22 -6z m-3796 -4 c3 -5 2 -12 -3 -15 -5 -3 -9 1 -9 9 0 17 3 19 12 6z m377 -26 c3 -13 1 -22 -3 -19 -9 5 -13 44 -5 44 2 0 6 -11 8 -25z m1741 10 c-3 -9 -8 -14 -10 -11 -3 3 -2 9 2 15 9 16 15 13 8 -4z m800 2 c4 3 7 1 7 -5 0 -17 -16 -15 -31 6 -12 15 -12 16 2 5 9 -7 19 -10 22 -6z m-556 -4 c-4 -3 -10 -3 -14 0 -3 4 0 7 7 7 7 0 10 -3 7 -7z m1670 -10 c-4 -3 -7 0 -7 7 0 7 3 10 7 7 3 -4 3 -10 0 -14z m-3920 -25 c-3 -7 -5 -2 -5 12 0 14 2 19 5 13 2 -7 2 -19 0 -25z m27 10 c-5 -8 -1 -9 10 -5 10 4 15 3 11 -3 -11 -17 -34 -11 -32 9 0 11 5 17 9 15 5 -3 5 -10 2 -16z m2023 5 c-4 -3 -7 0 -7 7 0 7 3 10 7 7 3 -4 3 -10 0 -14z m728 -2 c-2 -5 3 -17 11 -27 15 -18 15 -18 11 4 -3 12 -1 20 4 16 5 -3 9 -12 9 -20 0 -8 8 -14 17 -14 13 0 14 3 5 12 -7 7 -12 19 -12 27 0 8 3 11 8 7 4 -4 7 -13 7 -18 0 -6 6 -13 14 -16 8 -3 11 0 7 7 -4 6 -2 11 4 11 7 0 10 -6 7 -14 -4 -9 1 -16 11 -19 9 -2 -8 -3 -38 -2 -30 2 -57 4 -60 5 -3 1 -7 2 -10 2 -3 0 -5 12 -5 28 -1 16 3 26 7 24 5 -3 6 -9 3 -13z m-3111 -7 c4 -10 2 -13 -6 -8 -7 5 -9 2 -6 -7 4 -10 -1 -15 -16 -16 -11 0 -15 1 -8 4 17 7 15 20 -3 20 -8 0 -15 -4 -15 -9 0 -5 -5 -6 -11 -2 -15 9 9 23 33 19 10 -2 18 0 18 6 0 14 7 11 14 -7z m86 12 c0 -3 -5 -8 -12 -12 -7 -4 -8 -3 -4 4 7 12 16 16 16 8z m30 0 c0 -3 -5 -8 -12 -12 -7 -4 -8 -3 -4 4 7 12 16 16 16 8z m24 -5 c3 -5 -2 -15 -12 -22 -15 -12 -16 -12 -5 2 7 9 10 19 6 22 -3 4 -4 7 0 7 3 0 8 -4 11 -9z m891 -12 c-4 -5 -12 -9 -18 -8 -9 0 -8 2 1 6 6 2 9 10 6 15 -4 7 -2 8 5 4 6 -4 9 -12 6 -17z m1135 4 c0 -3 -6 -3 -14 0 -20 8 -28 -4 -15 -20 6 -7 9 -13 5 -13 -3 0 -9 0 -13 0 -11 0 -11 23 0 37 8 11 37 8 37 -4z m505 9 c-3 -3 0 -11 7 -19 6 -8 7 -13 2 -11 -5 1 -20 -4 -34 -11 l-25 -12 23 18 c16 13 19 22 12 29 -8 8 -6 11 5 11 8 0 13 -3 10 -5z m-2618 -8 c-3 -3 -12 -4 -19 -1 -8 3 -5 6 6 6 11 1 17 -2 13 -5z m528 -4 c3 -5 4 -10 1 -10 -3 0 -8 5 -11 10 -3 6 -4 10 -1 10 3 0 8 -4 11 -10z m1483 0 c-2 -5 0 -10 5 -10 4 0 12 0 18 0 5 0 7 6 3 13 -4 6 -3 9 1 4 5 -4 10 -18 11 -30 2 -12 0 -16 -2 -9 -8 17 -27 15 -21 -3 4 -8 1 -17 -6 -21 -7 -4 -9 -3 -4 1 4 5 1 18 -7 31 -8 12 -12 24 -9 28 9 9 13 7 11 -4z m-2161 -7 c-4 -3 -10 -3 -14 0 -3 4 0 7 7 7 7 0 10 -3 7 -7z m990 0 c-4 -3 -10 -3 -14 0 -3 4 0 7 7 7 7 0 10 -3 7 -7z m153 -13 c-24 -15 -36 -11 -14 4 10 8 21 12 24 10 2 -3 -2 -9 -10 -14z m1345 10 c3 -5 4 -10 1 -10 -3 0 -8 5 -11 10 -3 6 -4 10 -1 10 3 0 8 -4 11 -10z m238 3 c-7 -2 -19 -2 -25 0 -7 3 -2 5 12 5 14 0 19 -2 13 -5z m457 3 c0 -3 -5 -8 -12 -12 -7 -4 -8 -3 -4 4 7 12 16 16 16 8z m977 -13 c-4 -3 -7 0 -7 7 0 7 3 10 7 7 3 -4 3 -10 0 -14z m-3962 -3 c3 -6 -1 -7 -9 -4 -18 7 -21 14 -7 14 6 0 13 -4 16 -10z m55 0 c0 -5 -5 -10 -11 -10 -5 0 -7 5 -4 10 3 6 8 10 11 10 2 0 4 -4 4 -10z m2030 4 c0 -8 -19 -13 -24 -6 -3 5 1 9 9 9 8 0 15 -2 15 -3z m2125 -3 c-3 -2 0 -10 6 -18 9 -10 7 -13 -9 -13 -12 0 -24 4 -27 10 -4 6 1 7 12 4 17 -5 17 -5 -1 10 -18 14 -18 15 2 13 12 0 19 -3 17 -6z m-1929 -27 c1 -9 0 -13 -4 -10 -3 4 -7 14 -8 22 -1 9 0 13 4 10 3 -4 7 -14 8 -22z m398 10 c3 -8 2 -12 -4 -9 -6 3 -10 10 -10 16 0 14 7 11 14 -7z m-1709 -12 c-3 -3 -11 0 -18 7 -9 10 -8 11 6 5 10 -3 15 -9 12 -12z m1132 3 c0 -8 -3 -13 -5 -10 -3 3 -11 0 -19 -6 -18 -16 -16 -4 3 15 19 20 21 20 21 1z m-2086 -4 c7 11 10 12 21 1 7 -8 9 -13 3 -12 -5 2 -12 1 -15 0 -17 -6 -40 -7 -40 -1 0 14 15 22 19 10 2 -8 6 -7 12 2z m246 2 c-4 -3 -10 -3 -14 0 -3 4 0 7 7 7 7 0 10 -3 7 -7z m636 0 c-7 -2 -13 -11 -13 -19 0 -8 -5 -14 -10 -14 -7 0 -7 6 0 20 6 11 16 20 23 19 9 0 9 -2 0 -6z m1662 -2 c3 -5 2 -12 -3 -15 -5 -3 -9 1 -9 9 0 17 3 19 12 6z m1412 2 c-4 -3 -10 -3 -14 0 -3 4 0 7 7 7 7 0 10 -3 7 -7z m-3210 -18 c0 -8 -4 -12 -9 -9 -5 3 -6 10 -3 15 9 13 12 11 12 -6z m383 1 c0 -3 -5 -8 -12 -12 -7 -4 -8 -3 -4 4 7 12 16 16 16 8z m1480 0 c0 -3 -5 -8 -12 -12 -7 -4 -8 -3 -4 4 7 12 16 16 16 8z m75 -19 c-11 -6 -13 -12 -7 -16 7 -4 8 -12 2 -21 -8 -12 -10 -11 -11 5 -1 11 -1 23 0 28 0 4 -5 7 -11 7 -9 0 -9 3 1 9 8 5 21 7 29 4 12 -5 11 -8 -3 -16z m-1658 6 c-4 -3 -10 -3 -14 0 -3 4 0 7 7 7 7 0 10 -3 7 -7z m120 -10 c-4 -3 -7 0 -7 7 0 7 3 10 7 7 3 -4 3 -10 0 -14z m770 0 c0 -9 -4 -10 -14 -2 -7 6 -13 12 -13 14 0 1 6 2 13 2 8 0 14 -6 14 -14z m717 -13 c-6 -6 -10 -3 -10 10 0 13 4 16 10 10 7 -7 7 -13 0 -20z m1343 23 c-4 -3 -10 -3 -14 0 -3 4 0 7 7 7 7 0 10 -3 7 -7z m247 -25 c-9 -14 -23 2 -17 18 4 12 8 13 14 3 4 -7 5 -17 3 -21z m-3574 18 c0 -3 -5 -8 -12 -12 -7 -4 -8 -3 -4 4 7 12 16 16 16 8z m35 -6 c3 -5 4 -10 1 -10 -3 0 -8 5 -11 10 -3 6 -4 10 -1 10 3 0 8 -4 11 -10z m43 -6 c-4 -11 -28 -14 -28 -4 0 8 22 20 28 14 2 -1 2 -6 0 -10z m460 9 c-1 -5 3 -18 10 -30 10 -17 9 -23 0 -29 -7 -4 -10 -3 -5 1 4 5 1 18 -7 31 -8 12 -12 24 -9 28 9 8 13 8 11 -1z m703 -10 c13 -16 12 -17 -3 -4 -17 13 -22 21 -14 21 2 0 10 -8 17 -17z m197 -8 c-3 -3 -9 2 -12 12 -6 14 -5 15 5 6 7 -7 10 -15 7 -18z m202 0 c0 -2 -6 -7 -12 -11 -7 -4 -10 -4 -6 1 4 4 0 14 -10 22 -15 13 -15 13 6 3 12 -6 22 -13 22 -15z m-1431 2 c8 -10 7 -14 -2 -14 -8 0 -14 6 -14 14 0 7 1 13 2 13 2 0 8 -6 14 -13z m26 3 c3 -5 4 -10 1 -10 -3 0 -8 5 -11 10 -3 6 -4 10 -1 10 3 0 8 -4 11 -10z m1722 4 c-3 -3 -12 -4 -19 -1 -8 3 -5 6 6 6 11 1 17 -2 13 -5z m1381 -29 c0 -14 -1 -25 -2 -23 -1 2 -8 12 -16 22 -13 17 -13 18 -1 11 11 -6 13 -4 8 9 -4 9 -3 15 2 12 5 -3 9 -17 9 -31z m-2961 18 c-4 -3 -10 -3 -14 0 -3 4 0 7 7 7 7 0 10 -3 7 -7z m843 -3 c0 -5 -5 -10 -11 -10 -5 0 -7 5 -4 10 3 6 8 10 11 10 2 0 4 -4 4 -10z m860 -14 c14 -18 14 -18 -7 -6 -12 8 -19 18 -16 23 3 4 6 7 7 5 1 -2 8 -12 16 -22z m-2053 -3 c-4 -3 -7 0 -7 7 0 7 3 10 7 7 3 -4 3 -10 0 -14z m1241 -13 c-1 -17 -4 -33 -8 -35 -4 -2 -5 6 -4 18 1 12 3 28 3 35 2 26 10 10 9 -18z m737 20 c3 -5 4 -10 1 -10 -3 0 -8 5 -11 10 -3 6 -4 10 -1 10 3 0 8 -4 11 -10z m-1485 -4 c0 -2 -8 -10 -17 -17 -16 -13 -17 -12 -4 4 13 16 21 21 21 13z m3067 -13 c-4 -3 -7 0 -7 7 0 7 3 10 7 7 3 -4 3 -10 0 -14z m-3600 -10 c-4 -3 -7 0 -7 7 0 7 3 10 7 7 3 -4 3 -10 0 -14z m68 7 c3 -5 4 -10 1 -10 -3 0 -8 5 -11 10 -3 6 -4 10 -1 10 3 0 8 -4 11 -10z m150 0 c3 -6 -1 -7 -9 -4 -18 7 -21 14 -7 14 6 0 13 -4 16 -10z m1446 -15 c3 -14 -5 -31 -27 -55 -24 -25 -30 -38 -22 -47 6 -7 14 -10 19 -7 5 3 9 0 9 -5 0 -17 -10 -13 -47 19 -18 17 -29 30 -24 30 5 0 13 -5 16 -10 5 -8 11 -7 21 1 7 6 11 16 7 22 -3 6 -1 7 5 3 14 -8 35 31 28 51 -5 13 -9 13 -24 2 -15 -13 -16 -12 -4 3 17 22 35 19 43 -7z m396 8 c-4 -3 -7 0 -7 7 0 7 3 10 7 7 3 -4 3 -10 0 -14z m-2007 -15 c0 -6 -6 -5 -15 2 -8 7 -15 14 -15 16 0 2 7 1 15 -2 8 -4 15 -11 15 -16z m734 10 c-3 -4 -11 -5 -19 -1 -21 7 -19 12 4 10 11 0 18 -5 15 -9z m273 5 c-4 -3 -10 -3 -14 0 -3 4 0 7 7 7 7 0 10 -3 7 -7z m410 -10 c-4 -3 -7 0 -7 7 0 7 3 10 7 7 3 -4 3 -10 0 -14z m663 -4 c0 -5 -4 -9 -8 -9 -5 0 -9 7 -9 15 0 8 4 12 9 9 4 -3 8 -9 8 -15z m-1760 -4 c7 -9 8 -15 2 -15 -5 0 -12 7 -16 15 -3 8 -4 15 -2 15 2 0 9 -7 16 -15z m166 3 c4 -7 4 -10 -1 -6 -4 4 -15 2 -24 -5 -14 -11 -14 -10 -2 6 16 20 18 21 27 5z m301 5 c-4 -3 -10 -3 -14 0 -3 4 0 7 7 7 7 0 10 -3 7 -7z m670 0 c-4 -3 -10 -3 -14 0 -3 4 0 7 7 7 7 0 10 -3 7 -7z m590 1 c-3 -3 -12 -4 -19 -1 -8 3 -5 6 6 6 11 1 17 -2 13 -5z m-1870 -17 c2 -3 0 -8 -6 -12 -6 -3 -11 -1 -11 5 0 8 -6 8 -21 0 -11 -7 -23 -9 -27 -6 -3 3 0 6 7 6 7 0 10 4 7 9 -6 8 42 7 51 -2z m890 6 c-4 -3 -1 -13 6 -22 11 -14 10 -14 -5 -2 -21 15 -23 31 -6 31 6 0 8 -3 5 -7z m516 -8 c-3 -9 -8 -14 -10 -11 -3 3 -2 9 2 15 9 16 15 13 8 -4z m-1068 -5 c3 -5 4 -10 1 -10 -3 0 -8 5 -11 10 -3 6 -4 10 -1 10 3 0 8 -4 11 -10z m125 -1 c0 -5 -4 -7 -10 -4 -5 3 -10 -2 -10 -11 0 -10 -3 -15 -6 -11 -9 9 3 37 16 37 5 0 10 -5 10 -11z m145 1 c3 -6 -1 -7 -9 -4 -18 7 -21 14 -7 14 6 0 13 -4 16 -10z m690 0 c3 -5 4 -10 1 -10 -3 0 -8 5 -11 10 -3 6 -4 10 -1 10 3 0 8 -4 11 -10z m-1171 -16 c3 -8 2 -12 -4 -9 -6 3 -10 10 -10 16 0 14 7 11 14 -7z m180 7 c3 -5 -2 -15 -12 -22 -15 -12 -16 -12 -5 2 7 9 10 19 6 22 -3 4 -4 7 0 7 3 0 8 -4 11 -9z m703 -8 c-4 -3 -7 0 -7 7 0 7 3 10 7 7 3 -4 3 -10 0 -14z m274 0 c13 -16 12 -17 -3 -4 -17 13 -22 21 -14 21 2 0 10 -8 17 -17z m-1491 -3 c0 -5 -8 -10 -17 -10 -15 0 -16 2 -3 10 19 12 20 12 20 0z m220 6 c0 -3 -5 -8 -12 -12 -7 -4 -8 -3 -4 4 7 12 16 16 16 8z m595 -23 l18 -28 -21 19 c-12 11 -22 23 -22 28 0 14 7 9 25 -19z m165 18 c0 -5 -7 -12 -16 -15 -14 -5 -15 -4 -4 9 14 17 20 19 20 6z m270 0 c0 -5 -7 -12 -16 -15 -14 -5 -15 -4 -4 9 14 17 20 19 20 6z m407 -29 c-21 -23 -22 -33 -2 -26 21 9 38 -5 26 -20 -6 -7 -7 -17 -3 -22 4 -5 -2 -1 -14 9 -11 9 -24 14 -29 10 -4 -5 -6 -3 -3 2 3 6 2 19 -2 30 -9 24 18 61 34 45 6 -6 4 -16 -7 -28z m-1490 21 c-4 -3 -10 -3 -14 0 -3 4 0 7 7 7 7 0 10 -3 7 -7z m298 -3 c3 -5 4 -10 1 -10 -3 0 -8 5 -11 10 -3 6 -4 10 -1 10 3 0 8 -4 11 -10z m75 6 c0 -3 -5 -8 -12 -12 -7 -4 -8 -3 -4 4 7 12 16 16 16 8z m297 -13 c-4 -3 -7 0 -7 7 0 7 3 10 7 7 3 -4 3 -10 0 -14z m20 -10 c-4 -3 -7 0 -7 7 0 7 3 10 7 7 3 -4 3 -10 0 -14z m250 0 c-4 -3 -7 0 -7 7 0 7 3 10 7 7 3 -4 3 -10 0 -14z m-1150 -15 c-3 -8 -6 -5 -6 6 -1 11 2 17 5 13 3 -3 4 -12 1 -19z m183 18 c0 -3 -5 -8 -12 -12 -7 -4 -8 -3 -4 4 7 12 16 16 16 8z m312 -10 c6 4 5 -2 -1 -15 -15 -27 -16 -27 -17 7 -1 15 1 21 3 14 3 -6 9 -9 15 -6z m528 10 c0 -3 -5 -8 -12 -12 -7 -4 -8 -3 -4 4 7 12 16 16 16 8z m710 -6 c0 -5 -5 -10 -11 -10 -5 0 -7 5 -4 10 3 6 8 10 11 10 2 0 4 -4 4 -10z m-549 -31 c-5 -13 -10 -19 -10 -12 -1 15 10 45 15 40 3 -2 0 -15 -5 -28z m-471 11 c0 -5 -5 -10 -11 -10 -5 0 -7 5 -4 10 3 6 8 10 11 10 2 0 4 -4 4 -10z m195 1 c3 -5 2 -12 -3 -15 -5 -3 -9 1 -9 9 0 17 3 19 12 6z m752 2 c-4 -3 -10 -3 -14 0 -3 4 0 7 7 7 7 0 10 -3 7 -7z m113 -24 c0 -5 -5 -9 -12 -9 -6 0 -8 3 -5 7 4 3 1 13 -6 22 -11 14 -10 14 6 2 9 -7 17 -17 17 -22z m-1587 8 c7 3 4 -3 -6 -14 -9 -11 -14 -23 -10 -28 5 -4 3 -5 -4 -2 -6 4 -10 15 -8 25 2 9 4 22 5 27 1 6 4 4 7 -3 2 -6 10 -9 16 -5z m686 -13 c-14 -18 -24 -11 -15 11 3 9 11 13 16 10 8 -5 7 -11 -1 -21z m151 16 c0 -5 -2 -10 -4 -10 -3 0 -8 5 -11 10 -3 6 -1 10 4 10 6 0 11 -4 11 -10z m188 -19 c-1 -16 -5 -28 -9 -25 -4 2 -10 -2 -12 -8 -4 -9 -6 -10 -6 -1 -1 6 4 15 9 18 6 3 10 15 10 26 0 10 2 19 5 19 3 0 4 -13 3 -29z m-502 -16 c-3 -23 -12 -26 -13 -5 -1 11 2 20 7 20 4 0 7 -7 6 -15z m1124 -21 c0 -2 -7 0 -17 3 -11 4 -14 3 -9 -5 5 -8 2 -10 -9 -5 -13 5 -14 7 -3 14 12 8 4 13 -15 10 -5 -1 -6 3 -2 9 5 8 55 -15 55 -26z m-953 4 c-3 -8 -6 -5 -6 6 -1 11 2 17 5 13 3 -3 4 -12 1 -19z m-554 -8 c4 0 5 4 2 10 -3 6 1 7 10 3 13 -5 14 -7 3 -14 -7 -5 -9 -9 -4 -9 5 0 2 -8 -7 -18 -10 -10 -14 -23 -10 -27 5 -5 0 -3 -9 4 -10 7 -18 21 -17 30 0 13 2 13 8 -2 6 -17 9 -17 19 -4 10 12 9 16 -5 22 -10 5 -25 7 -33 6 -13 -2 -13 -1 0 8 9 7 18 7 24 1 6 -6 14 -10 19 -10z m124 3 c-4 -3 -7 0 -7 7 0 7 3 10 7 7 3 -4 3 -10 0 -14z m560 -15 c2 -30 1 -31 -7 -10 -6 13 -8 28 -4 33 8 14 10 11 11 -23z m750 15 c-4 -3 -7 0 -7 7 0 7 3 10 7 7 3 -4 3 -10 0 -14z m-1080 -10 c-4 -3 -7 0 -7 7 0 7 3 10 7 7 3 -4 3 -10 0 -14z m-207 3 c0 -2 -8 -10 -17 -17 -16 -13 -17 -12 -4 4 13 16 21 21 21 13z m415 -15 c3 -5 2 -12 -3 -15 -5 -3 -9 1 -9 9 0 17 3 19 12 6z m321 -27 c1 -14 0 -23 -3 -20 -4 3 -8 18 -9 32 -2 14 0 24 3 20 3 -3 7 -17 9 -32z m660 24 c3 -4 -1 -5 -10 -4 -8 1 -18 5 -22 8 -3 4 1 5 10 4 8 -1 18 -5 22 -8z m-1699 -15 c-4 -3 -7 0 -7 7 0 7 3 10 7 7 3 -4 3 -10 0 -14z m530 10 c-4 -3 -10 -3 -14 0 -3 4 0 7 7 7 7 0 10 -3 7 -7z m1128 -3 c3 -5 4 -10 1 -10 -3 0 -8 5 -11 10 -3 6 -4 10 -1 10 3 0 8 -4 11 -10z m-1328 -17 c-4 -3 -7 0 -7 7 0 7 3 10 7 7 3 -4 3 -10 0 -14z m-30 1 c-3 -3 -12 -4 -19 -1 -8 3 -5 6 6 6 11 1 17 -2 13 -5z m1406 -14 c9 -11 13 -20 9 -20 -4 0 -15 9 -25 20 -9 11 -13 20 -9 20 4 0 15 -9 25 -20z m-1693 -4 c0 -3 -5 -8 -12 -12 -7 -4 -8 -3 -4 4 7 12 16 16 16 8z m125 -6 c3 -5 4 -10 1 -10 -3 0 -8 5 -11 10 -3 6 -4 10 -1 10 3 0 8 -4 11 -10z m355 -1 c0 -4 -11 -6 -24 -5 -13 0 -22 4 -20 8 6 9 44 6 44 -3z m-200 -3 c0 -3 -4 -8 -10 -11 -5 -3 -10 -1 -10 4 0 6 5 11 10 11 6 0 10 -2 10 -4z m767 -15 c0 -11 -5 -18 -9 -15 -4 3 -5 11 -1 19 7 21 12 19 10 -4z m97 -15 c3 -16 2 -25 -1 -22 -4 4 -9 19 -11 34 -4 35 5 25 12 -12z m-823 11 c-7 -7 -14 -8 -21 -1 -6 6 -2 10 12 11 16 2 18 -1 9 -10z m378 -31 c-2 -2 -13 8 -23 22 l-19 27 24 -22 c12 -12 21 -24 18 -27z m71 34 c0 -5 -5 -10 -11 -10 -5 0 -7 5 -4 10 3 6 8 10 11 10 2 0 4 -4 4 -10z m27 -7 c-4 -3 -7 0 -7 7 0 7 3 10 7 7 3 -4 3 -10 0 -14z m-800 0 c-4 -3 -10 -3 -14 0 -3 4 0 7 7 7 7 0 10 -3 7 -7z m123 3 c0 -2 -7 -7 -16 -10 -8 -3 -12 -2 -9 4 6 10 25 14 25 6z m307 -13 c-4 -3 -7 0 -7 7 0 7 3 10 7 7 3 -4 3 -10 0 -14z m44 -6 c-10 -9 -11 -8 -5 6 3 10 9 15 12 12 3 -3 0 -11 -7 -18z m1259 19 c0 -3 -5 -8 -12 -12 -7 -4 -8 -3 -4 4 7 12 16 16 16 8z m-1443 -13 c-4 -3 -10 -3 -14 0 -3 4 0 7 7 7 7 0 10 -3 7 -7z m462 -7 c9 -10 8 -15 -2 -19 -8 -3 -13 3 -13 14 0 23 0 23 15 5z m-73 -8 c4 -7 3 -8 -4 -4 -7 4 -12 2 -12 -5 0 -7 -3 -10 -6 -6 -6 5 3 27 11 27 2 0 7 -5 11 -12z m-621 -28 c3 -5 4 -10 1 -10 -3 0 -8 5 -11 10 -3 6 -4 10 -1 10 3 0 8 -4 11 -10z m32 -5 c0 -8 -4 -15 -9 -15 -10 0 -11 14 -1 23 9 10 10 9 10 -8z m307 4 c-2 -4 1 -9 8 -12 7 -2 4 -2 -7 0 -11 3 -29 5 -40 4 -13 0 -15 3 -8 7 16 10 53 10 47 1z m56 7 c0 -3 -5 -8 -12 -12 -7 -4 -8 -3 -4 4 7 12 16 16 16 8z m630 0 c0 -3 -5 -8 -12 -12 -7 -4 -8 -3 -4 4 7 12 16 16 16 8z m73 -45 c-4 -6 -43 30 -43 40 0 5 10 -2 23 -14 13 -12 22 -24 20 -26z m-866 32 c-4 -3 -10 -3 -14 0 -3 4 0 7 7 7 7 0 10 -3 7 -7z m499 -5 c4 -6 3 -8 -2 -5 -6 3 -16 2 -24 -3 -12 -7 -12 -11 1 -27 13 -16 12 -17 -3 -5 -13 10 -17 10 -21 0 -4 -10 -6 -10 -6 0 -1 11 33 52 43 52 3 0 8 -5 12 -12z m-746 -18 c0 -5 6 -8 13 -6 6 1 9 1 5 -1 -4 -2 -4 -12 -1 -21 3 -9 4 -15 2 -12 -2 3 -13 15 -23 28 -11 12 -14 22 -8 22 7 0 12 -4 12 -10z m360 -5 c0 -1 -8 -5 -18 -7 -11 -3 -19 0 -19 7 0 7 8 10 19 7 10 -2 18 -6 18 -7z m707 -2 c-4 -3 -7 0 -7 7 0 7 3 10 7 7 3 -4 3 -10 0 -14z m-778 -19 c4 3 8 -1 8 -9 0 -13 -3 -13 -17 0 -9 8 -20 12 -24 8 -4 -4 -4 1 0 11 6 16 8 17 16 2 5 -9 13 -14 17 -12z m764 -9 c4 -8 3 -16 -1 -19 -4 -3 -9 4 -9 15 -2 23 3 25 10 4z m22 5 c3 -5 4 -10 1 -10 -3 0 -8 5 -11 10 -3 6 -4 10 -1 10 3 0 8 -4 11 -10z m41 -15 c-1 -9 -6 -15 -12 -15 -9 0 -13 19 -6 33 6 12 20 -2 18 -18z m-771 5 c-3 -5 -11 -10 -16 -10 -6 0 -7 5 -4 10 3 6 11 10 16 10 6 0 7 -4 4 -10z m-38 -26 c8 -2 18 -6 21 -10 4 -4 -1 -4 -10 -1 -10 4 -18 2 -18 -2 0 -5 5 -11 12 -13 7 -3 5 -7 -6 -11 -10 -4 -15 -3 -11 3 9 14 -8 12 -25 -2 -8 -7 -6 -3 3 9 11 12 14 24 9 27 -6 3 -12 0 -15 -6 -3 -7 -4 -3 -4 9 1 18 4 20 15 10 8 -6 21 -12 29 -13z m303 22 c0 -3 -5 -8 -12 -12 -7 -4 -8 -3 -4 4 7 12 16 16 16 8z m-3 -41 c0 -8 -4 -12 -9 -9 -5 3 -6 10 -3 15 9 13 12 11 12 -6z m530 -20 c0 -8 -3 -13 -5 -10 -3 3 -11 -3 -19 -13 -16 -19 -7 4 10 26 12 15 14 15 14 -3z m-530 -12 c-4 -3 -10 -3 -14 0 -3 4 0 7 7 7 7 0 10 -3 7 -7z m-325 -11 c3 7 7 8 10 3 3 -6 0 -15 -6 -21 -10 -9 -16 -7 -26 10 -12 19 -11 20 2 8 13 -10 17 -10 20 0z m385 -9 c-4 -3 -7 0 -7 7 0 7 3 10 7 7 3 -4 3 -10 0 -14z m-37 4 c0 -2 -10 -12 -22 -23 l-23 -19 19 23 c18 21 26 27 26 19z m17 -24 c-4 -3 -7 0 -7 7 0 7 3 10 7 7 3 -4 3 -10 0 -14z m507 -8 c-8 -12 -11 -25 -7 -30 5 -4 2 -5 -5 -1 -8 5 -9 13 -2 25 5 10 7 20 5 23 -3 3 1 5 9 5 12 0 12 -3 0 -22z m-27 8 c-4 -3 -10 -3 -14 0 -3 4 0 7 7 7 7 0 10 -3 7 -7z m57 -24 c-2 -4 2 -10 8 -12 8 -4 9 -6 2 -6 -6 -1 -17 5 -23 12 -8 10 -7 14 4 14 8 0 12 -4 9 -8z m-514 -5 c0 -8 -19 -13 -24 -6 -3 5 1 9 9 9 8 0 15 -2 15 -3z m-397 -19 c-3 -9 -8 -14 -10 -11 -3 3 -2 9 2 15 9 16 15 13 8 -4z m361 -1 c3 -8 2 -12 -4 -9 -6 3 -10 10 -10 16 0 14 7 11 14 -7z m-28 -12 c-3 -3 0 -12 6 -21 10 -13 10 -14 -2 -4 -16 15 -23 46 -8 37 5 -3 7 -9 4 -12z m609 -20 c-8 -8 -25 10 -19 20 4 6 9 5 15 -3 4 -7 6 -15 4 -17z m-558 -19 c-4 -3 -7 0 -7 7 0 7 3 10 7 7 3 -4 3 -10 0 -14z m-7 -38 c0 -2 -9 -3 -19 -2 -11 0 -18 5 -15 9 4 6 34 0 34 -7z m-15 -24 c3 -5 2 -12 -3 -15 -5 -3 -9 1 -9 9 0 17 3 19 12 6z m22 -28 c-4 -3 -7 0 -7 7 0 7 3 10 7 7 3 -4 3 -10 0 -14z m-13 -19 c3 -8 2 -12 -4 -9 -6 3 -10 10 -10 16 0 14 7 11 14 -7z"/>
<path d="M1545 3240 c3 -5 8 -10 11 -10 2 0 4 5 4 10 0 6 -5 10 -11 10 -5 0 -7 -4 -4 -10z"/>
<path d="M1483 2743 c4 -3 10 -3 14 0 3 4 0 7 -7 7 -7 0 -10 -3 -7 -7z"/>
<path d="M4445 1830 c-3 -5 -1 -10 4 -10 6 0 11 5 11 10 0 6 -2 10 -4 10 -3 0 -8 -4 -11 -10z"/>
<path d="M3735 1820 c-3 -5 -1 -10 4 -10 6 0 11 5 11 10 0 6 -2 10 -4 10 -3 0 -8 -4 -11 -10z"/>
<path d="M5514 1748 c-4 -7 -3 -8 4 -4 7 4 12 9 12 12 0 8 -9 4 -16 -8z"/>
<path d="M3330 1365 c-8 -9 -8 -15 -2 -15 12 0 26 19 19 26 -2 2 -10 -2 -17 -11z"/>
<path d="M3345 1310 c4 -6 11 -8 16 -5 14 9 11 15 -7 15 -8 0 -12 -5 -9 -10z"/>
</g>
<g id="layer103" fill="#272425" stroke="none">
<path d="M0 1930 l0 -1930 2900 0 2900 0 0 1930 0 1930 -2900 0 -2900 0 0 -1930z m1494 1399 c-3 -5 4 -9 14 -9 11 0 38 -21 61 -47 54 -61 63 -73 56 -73 -3 0 5 -10 16 -21 17 -17 19 -23 8 -30 -8 -5 -11 -9 -6 -9 4 0 -5 -13 -19 -30 -15 -16 -31 -27 -36 -24 -5 3 -7 0 -6 -8 2 -7 -2 -12 -9 -11 -8 2 -9 -6 -3 -27 5 -17 6 -30 3 -30 -3 0 6 -10 21 -21 15 -12 25 -27 22 -35 -3 -8 0 -11 8 -8 7 3 16 -2 20 -11 3 -9 11 -13 17 -9 9 5 10 -2 6 -22 -3 -16 -4 -23 -1 -16 4 9 13 7 35 -9 16 -11 27 -24 24 -29 -3 -4 2 -13 10 -20 8 -7 12 -16 9 -21 -3 -5 0 -9 7 -9 16 0 5 -80 -13 -91 -7 -5 -9 -9 -5 -9 4 0 2 -10 -5 -22 -7 -13 -11 -31 -9 -42 1 -10 -2 -15 -7 -12 -13 8 -9 -23 4 -32 12 -9 17 -30 17 -62 0 -14 2 -19 4 -12 3 6 8 11 11 9 4 -2 18 8 32 21 14 14 20 22 13 19 -7 -5 -9 0 -6 13 3 11 9 18 13 15 4 -2 5 7 2 20 -3 17 1 27 13 31 13 5 14 9 3 15 -8 6 -9 12 -3 17 6 4 11 18 11 32 2 31 13 132 20 185 4 22 11 46 18 54 8 11 8 13 -1 7 -10 -5 -13 6 -13 47 0 29 -5 80 -11 113 -6 32 -12 66 -13 74 0 8 -13 28 -28 44 -15 16 -25 33 -21 39 3 5 1 7 -5 3 -19 -12 -26 17 -6 31 20 15 94 15 94 0 0 -5 6 -4 14 2 15 13 86 12 86 -1 0 -5 12 -5 26 -2 17 4 25 3 21 -3 -3 -5 4 -9 16 -9 13 1 23 -6 25 -18 3 -13 0 -16 -10 -10 -10 6 -10 5 1 -9 9 -12 10 -17 2 -17 -7 0 -10 -3 -8 -7 7 -12 -12 -55 -21 -49 -5 3 -5 -23 -1 -57 4 -34 7 -64 6 -67 -1 -3 4 -15 11 -27 7 -13 10 -23 6 -23 -3 0 -1 -7 6 -15 6 -8 9 -19 5 -25 -3 -5 -2 -10 3 -10 19 0 22 -54 4 -69 -15 -12 -15 -12 5 -7 18 6 22 2 28 -23 4 -17 3 -36 -1 -42 -4 -7 -3 -9 3 -6 12 8 23 -14 23 -43 0 -27 -21 -70 -31 -64 -5 3 -6 -3 -2 -12 4 -12 3 -15 -5 -10 -8 5 -10 1 -5 -11 6 -16 4 -16 -18 2 -13 11 -18 13 -11 4 6 -9 9 -18 6 -22 -7 -7 74 6 84 13 1 2 5 3 10 5 4 1 20 7 37 14 16 7 37 10 47 8 10 -3 16 -1 13 3 -9 14 73 33 142 34 35 1 63 4 63 9 0 4 5 7 11 7 5 0 8 -4 5 -8 -2 -4 23 -7 57 -6 58 1 123 -9 157 -23 47 -19 57 -14 84 42 15 30 32 55 37 55 5 0 9 7 9 15 0 8 5 15 12 15 6 0 9 3 5 6 -3 3 5 24 18 45 29 44 46 110 33 124 -5 6 -22 25 -39 43 -26 29 -30 40 -28 80 3 60 6 65 28 44 10 -9 30 -26 45 -36 15 -11 25 -25 22 -32 -3 -8 0 -11 8 -8 8 3 45 -15 83 -39 54 -35 69 -51 71 -72 1 -14 -1 -24 -6 -21 -4 2 -8 -18 -10 -45 -2 -27 1 -49 6 -49 4 0 22 16 39 35 17 19 30 35 28 35 -2 0 3 16 11 36 18 44 16 123 -4 144 -16 15 -32 20 -70 22 -13 0 -21 6 -19 12 2 6 13 10 23 8 15 -2 16 -1 4 7 -9 6 -19 6 -26 1 -6 -6 -15 -6 -19 -2 -5 4 -5 1 -1 -5 4 -7 3 -13 -2 -13 -12 0 -37 30 -26 30 5 0 2 5 -6 10 -13 8 -13 13 -2 31 8 11 9 18 3 14 -6 -3 -11 -1 -11 5 0 7 41 10 121 9 130 -1 153 -4 142 -23 -4 -6 1 -5 10 2 18 15 61 7 51 -10 -5 -7 -2 -8 5 -3 17 10 49 -26 44 -50 -7 -44 -7 -141 1 -154 6 -9 2 -19 -14 -31 -17 -13 -20 -19 -10 -25 8 -5 11 -4 7 2 -7 11 17 26 26 17 9 -9 -5 -44 -16 -37 -6 4 -7 1 -3 -6 5 -7 0 -18 -10 -26 -11 -8 -15 -15 -10 -15 5 0 3 -7 -4 -15 -7 -8 -10 -21 -7 -30 4 -8 2 -17 -3 -20 -6 -4 -10 -12 -10 -18 0 -7 4 -6 10 3 18 28 -2 -123 -26 -195 -27 -82 -36 -127 -25 -120 5 2 11 -10 15 -27 4 -21 2 -34 -6 -40 -10 -6 -9 -8 2 -8 12 0 12 -2 2 -9 -11 -7 -10 -9 3 -14 9 -4 13 -3 10 2 -3 5 0 13 6 16 14 9 135 -51 143 -71 5 -12 2 -15 -9 -10 -10 3 -13 2 -10 -5 4 -5 15 -7 25 -4 12 4 27 -6 49 -30 17 -19 34 -35 38 -36 5 0 17 -2 28 -5 32 -8 175 -10 175 -2 0 4 8 6 18 6 9 0 79 2 155 6 107 5 137 3 137 -6 0 -10 2 -10 9 0 6 10 43 12 167 9 87 -2 175 -7 194 -9 66 -10 113 -20 139 -31 14 -5 31 -11 36 -12 6 0 9 -7 7 -15 -3 -11 0 -11 12 -1 11 9 22 9 50 -3 20 -8 36 -13 36 -11 0 3 12 0 28 -6 24 -10 116 -31 197 -46 17 -2 36 -10 44 -16 12 -10 13 -9 7 2 -7 10 -2 12 25 6 19 -5 40 -7 47 -6 6 1 25 3 41 4 16 1 28 4 26 6 -6 5 47 46 60 46 5 0 9 8 7 17 -3 20 23 31 35 15 14 -19 16 -67 3 -67 -6 0 -8 -4 -5 -10 9 -14 -8 -12 -25 3 -12 10 -12 9 -2 -4 6 -9 9 -19 6 -22 -4 -4 4 -11 18 -16 34 -13 89 -61 82 -72 -3 -5 -1 -8 4 -7 5 2 42 -30 83 -71 41 -41 76 -74 79 -74 3 1 4 -3 2 -9 -1 -5 2 -7 6 -4 5 3 17 -3 27 -14 17 -18 14 -25 -8 -21 -5 1 -6 -3 -2 -8 3 -6 12 -8 20 -4 15 5 21 -12 8 -20 -5 -2 -2 -2 5 -1 14 4 139 -113 130 -121 -8 -8 -58 13 -58 24 0 5 5 11 12 13 7 3 5 7 -6 11 -9 4 -15 3 -11 -2 3 -5 1 -12 -5 -16 -5 -3 -10 -1 -10 4 0 6 -6 11 -14 11 -7 0 -20 8 -27 17 -12 14 -12 16 0 8 10 -5 12 -4 7 4 -4 6 -12 9 -17 5 -7 -4 -77 42 -99 66 -3 3 -18 13 -33 23 -15 10 -25 22 -22 27 4 6 -1 7 -11 3 -13 -5 -16 -3 -11 10 4 11 2 14 -8 11 -8 -3 -25 6 -38 20 -13 14 -29 26 -35 26 -6 0 -14 5 -18 12 -5 7 -3 8 6 3 9 -5 11 -4 6 4 -4 6 -15 10 -24 9 -9 -2 -16 3 -15 10 2 6 -1 12 -6 12 -6 0 -8 9 -6 20 2 12 0 18 -6 15 -5 -4 -7 -11 -4 -16 14 -22 -25 -6 -45 19 -12 15 -18 20 -15 12 4 -8 -4 -2 -18 13 -15 17 -28 24 -32 17 -3 -6 -11 -8 -16 -5 -15 10 -10 -2 8 -16 11 -10 14 -10 9 -1 -4 6 -3 12 3 12 5 0 12 -4 15 -9 8 -12 -21 -34 -34 -26 -6 4 -4 -9 4 -30 9 -20 13 -42 9 -48 -3 -5 -1 -7 4 -4 11 7 28 -37 24 -60 -1 -7 3 -13 9 -13 6 0 8 -4 5 -10 -3 -5 -2 -10 3 -10 9 0 39 -79 34 -93 -1 -4 2 -7 7 -7 7 0 17 -23 26 -60 0 -3 6 -15 13 -28 11 -19 10 -23 -3 -28 -8 -3 -15 -13 -15 -22 0 -13 3 -12 14 4 14 18 15 18 24 -6 5 -14 7 -32 4 -40 -3 -8 -1 -12 3 -7 5 4 17 -14 27 -40 31 -82 31 -89 0 -48 -17 22 -28 43 -26 46 2 4 -3 9 -11 13 -8 3 -15 10 -15 16 0 6 -11 26 -25 44 -14 18 -25 37 -25 43 0 5 -9 18 -19 27 -11 10 -22 28 -25 42 -4 13 -11 24 -16 24 -6 0 -10 9 -10 21 0 11 -4 17 -10 14 -8 -5 -15 9 -8 18 1 1 -11 15 -25 31 -21 22 -26 37 -23 58 2 16 0 26 -5 22 -5 -3 -7 -11 -3 -17 3 -7 -6 2 -21 18 -16 20 -24 37 -20 51 3 13 -2 27 -12 35 -12 10 -14 10 -9 2 4 -7 3 -13 -2 -13 -6 0 -12 7 -16 15 -8 21 -103 21 -103 0 0 -8 4 -12 8 -9 7 4 29 -50 29 -69 -1 -4 6 -20 14 -35 24 -42 57 -132 48 -132 -4 0 -1 -4 7 -9 8 -5 14 -23 13 -40 0 -17 3 -29 8 -26 9 6 51 -111 42 -119 -3 -3 1 -6 8 -6 7 0 10 -3 7 -7 -4 -3 -2 -12 4 -20 6 -7 8 -13 4 -13 -4 0 -2 -7 5 -15 7 -9 10 -18 7 -22 -4 -3 -2 -12 5 -20 6 -7 8 -16 6 -19 -6 -5 -69 93 -72 111 -1 6 -13 26 -26 45 -14 19 -24 37 -22 40 1 3 -9 22 -22 42 -16 24 -21 40 -14 44 6 4 14 1 18 -6 5 -8 9 -8 13 4 3 8 2 18 -4 21 -5 4 -7 11 -4 16 3 5 -1 6 -10 2 -12 -4 -13 -8 -5 -13 8 -5 6 -9 -6 -14 -20 -8 -17 -10 -38 31 -12 24 -13 33 -3 36 7 3 5 6 -5 6 -11 1 -16 8 -13 20 2 13 -1 18 -9 15 -7 -3 -20 11 -29 31 -10 20 -13 34 -7 30 5 -3 10 -2 10 2 0 5 -9 14 -21 21 -12 7 -19 16 -16 19 3 2 -4 14 -15 25 -12 12 -18 29 -16 43 4 20 1 22 -19 19 -12 -2 -23 0 -23 4 0 5 -12 7 -26 4 -21 -4 -25 -2 -19 9 5 8 4 10 0 6 -13 -12 -15 -37 -2 -34 6 1 16 -21 22 -49 7 -28 16 -57 20 -64 6 -9 4 -11 -5 -5 -8 5 -11 4 -6 -3 3 -6 2 -13 -4 -17 -5 -3 -10 -1 -10 5 0 6 -4 8 -10 5 -5 -3 -10 -2 -10 3 0 5 -9 12 -21 15 -13 4 -18 10 -13 18 5 8 3 10 -5 5 -8 -5 -14 0 -18 13 -3 12 -10 21 -15 21 -5 0 -6 5 -3 10 3 6 2 10 -4 10 -6 0 -17 14 -26 30 -12 24 -22 30 -48 30 -17 0 -42 -3 -54 -6 -20 -6 -21 -8 -7 -45 7 -22 15 -51 17 -65 2 -14 16 -42 33 -62 16 -20 29 -40 29 -44 0 -3 4 -10 9 -15 5 -5 6 -3 2 5 -10 17 9 15 24 -3 10 -12 10 -15 -1 -15 -31 0 -60 13 -55 25 2 6 0 18 -6 26 -8 11 -9 11 -5 -3 4 -12 0 -16 -14 -15 -10 1 -19 5 -19 10 0 4 -4 6 -9 2 -6 -3 -13 0 -18 7 -4 7 -17 18 -27 24 -22 12 -75 90 -54 79 7 -3 6 -1 -3 7 -9 7 -19 23 -23 36 -7 21 -11 22 -54 16 -26 -4 -52 -7 -59 -7 -20 0 -23 -24 -7 -57 9 -17 17 -36 18 -43 1 -7 5 -17 8 -23 4 -6 9 -22 12 -37 8 -45 18 -71 37 -95 10 -13 16 -32 14 -43 -2 -11 0 -17 6 -14 5 4 7 11 4 16 -4 5 1 9 9 9 9 0 16 -4 16 -10 0 -5 7 -10 15 -10 8 0 15 -4 15 -9 0 -5 -19 -8 -42 -6 -58 3 -58 3 -58 16 0 5 5 7 12 3 7 -4 8 -3 4 5 -6 9 -11 9 -22 0 -11 -9 -18 -7 -31 8 -10 10 -13 12 -8 4 7 -11 7 -13 -2 -8 -18 11 -80 92 -63 83 12 -6 12 -5 -1 6 -24 20 -50 78 -36 79 7 0 4 4 -6 8 -10 4 -19 11 -20 16 -1 16 -24 35 -40 35 -21 0 -128 -41 -152 -58 -20 -14 -20 -14 1 -8 13 4 26 1 34 -9 7 -8 9 -15 4 -15 -4 0 1 -6 12 -14 17 -13 18 -17 5 -38 -13 -21 -13 -22 3 -9 19 16 18 17 40 -27 10 -19 29 -47 44 -64 15 -17 26 -34 24 -39 -1 -5 2 -9 7 -9 5 0 16 -6 23 -14 8 -7 29 -21 48 -31 19 -10 40 -24 48 -31 11 -12 9 -14 -15 -14 -16 0 -35 6 -42 13 -11 10 -13 10 -7 0 5 -9 -1 -13 -17 -13 -26 0 -52 23 -43 38 3 6 -2 16 -11 23 -14 12 -16 12 -8 -1 16 -27 13 -48 -7 -42 -10 2 -18 9 -18 15 0 6 -3 8 -6 4 -10 -9 -66 22 -59 33 4 6 -1 7 -11 3 -13 -5 -15 -3 -9 7 6 9 4 12 -7 8 -16 -7 -105 58 -100 74 1 5 -1 7 -6 4 -5 -3 -35 23 -68 56 -32 34 -50 55 -39 47 18 -13 19 -13 7 3 -12 15 -18 15 -63 2 -27 -8 -54 -12 -59 -9 -16 10 -20 -12 -5 -25 8 -7 15 -22 15 -34 0 -15 3 -17 9 -8 6 11 13 7 30 -16 27 -38 61 -118 54 -126 -4 -3 -2 -6 4 -6 14 0 35 -49 27 -62 -4 -6 -2 -8 3 -5 17 11 35 -20 28 -45 -5 -17 -4 -19 4 -9 8 12 19 6 58 -33 40 -40 44 -47 23 -41 -42 12 -90 37 -90 47 0 5 -4 7 -9 4 -12 -8 -111 42 -111 55 0 6 -4 8 -10 4 -5 -3 -18 3 -29 14 -10 10 -27 24 -37 31 -16 9 -16 11 -2 6 10 -3 19 -2 22 2 3 4 -4 9 -15 9 -18 2 -59 35 -136 111 -18 19 -33 31 -33 27 0 -3 -5 -3 -10 0 -8 5 -7 12 2 23 12 16 11 16 -7 1 -11 -9 -27 -14 -35 -12 -13 4 -13 3 0 -6 13 -10 13 -13 -4 -26 -10 -8 -23 -16 -29 -18 -6 -2 -3 -16 7 -34 18 -36 20 -47 8 -39 -5 3 -9 -1 -9 -9 0 -8 5 -13 10 -12 5 1 11 -5 13 -13 6 -28 26 -145 28 -162 1 -10 6 -21 11 -25 4 -5 5 -1 0 7 -4 8 9 -2 30 -22 20 -21 42 -38 47 -38 6 0 6 -6 -1 -14 -10 -12 -8 -13 9 -9 24 6 74 -33 63 -50 -3 -6 -1 -7 5 -3 12 7 64 -73 55 -87 -3 -5 -16 1 -29 14 -13 12 -21 25 -19 29 3 4 -5 10 -16 13 -12 3 -18 10 -14 17 3 6 3 9 -2 8 -16 -5 -92 36 -86 45 3 6 1 7 -6 3 -7 -4 -20 -4 -29 0 -9 4 -24 8 -32 10 -30 6 -89 37 -85 45 3 4 1 10 -5 14 -5 3 -10 1 -10 -6 0 -16 -54 34 -91 85 -23 30 -26 42 -18 53 9 11 8 12 -5 7 -9 -3 -16 -2 -16 3 0 5 -14 24 -31 43 -17 19 -25 26 -18 16 12 -17 12 -19 -1 -14 -8 3 -22 -1 -31 -9 -9 -8 -27 -15 -39 -16 -22 -1 -22 -2 -15 -127 9 -159 12 -196 21 -245 12 -64 10 -90 -4 -87 -8 1 -11 -2 -7 -7 3 -6 12 -8 20 -4 14 5 19 -8 18 -45 -1 -6 3 -12 8 -12 5 0 5 -7 2 -17 -4 -11 -3 -14 5 -9 15 9 15 1 0 -27 -11 -21 -10 -21 7 -7 11 9 16 10 11 2 -4 -7 -1 -15 9 -18 12 -5 13 -9 4 -20 -10 -12 -9 -13 5 -8 9 3 16 1 16 -5 0 -7 -7 -14 -16 -18 -12 -4 -31 10 -65 48 -27 29 -49 59 -49 66 0 7 -4 13 -8 13 -12 0 -43 70 -37 81 4 5 2 9 -4 9 -9 0 -42 88 -47 125 -3 31 -33 115 -62 175 -24 49 -30 55 -57 54 -49 -3 -50 -3 -71 -19 -14 -11 -15 -14 -2 -9 14 5 16 -2 14 -58 -4 -92 -13 -158 -24 -171 -6 -7 -11 -16 -11 -22 -7 -60 -26 -91 -53 -86 -5 0 -8 -4 -8 -10 0 -6 7 -9 15 -5 11 4 13 1 6 -12 -43 -80 -53 -118 -61 -229 -5 -65 -9 -120 -10 -123 0 -3 -8 7 -16 23 -8 15 -12 32 -9 37 3 6 2 10 -3 10 -15 0 -22 36 -29 133 -5 88 12 251 27 242 4 -2 6 9 4 26 -2 16 0 28 4 25 4 -2 5 16 3 40 -2 28 1 44 8 44 8 0 8 6 2 18 -11 20 -36 114 -34 123 1 4 -19 10 -45 14 -26 3 -54 8 -64 10 -14 3 -16 -5 -11 -66 7 -90 -3 -143 -24 -135 -13 5 -14 4 -3 -9 10 -13 8 -22 -13 -54 -14 -21 -42 -56 -61 -77 -20 -21 -44 -56 -53 -77 -14 -30 -21 -36 -37 -31 -21 6 -21 6 -1 -10 12 -9 15 -15 7 -16 -7 0 -11 -4 -7 -9 3 -5 -5 -33 -17 -61 l-23 -52 0 100 c0 55 -3 98 -7 95 -5 -2 -8 11 -9 29 0 18 -2 42 -5 53 -17 84 -16 126 2 147 19 22 19 22 0 8 -18 -14 -19 -13 -12 5 4 11 9 27 11 35 1 8 8 14 15 12 8 -2 10 3 6 13 -7 20 11 58 24 50 6 -3 7 1 4 9 -4 10 -1 16 9 16 8 0 14 8 13 18 0 9 5 16 12 14 8 -1 11 2 8 7 -4 5 2 16 12 23 10 7 22 20 27 28 5 9 0 8 -13 -4 -12 -11 -22 -14 -22 -8 0 6 -7 9 -15 6 -8 -4 -15 -1 -15 6 0 7 -6 10 -13 7 -7 -3 -24 1 -38 9 -33 18 -39 17 -39 -7 0 -11 -4 -18 -9 -15 -5 4 -7 -3 -4 -14 3 -11 -2 -32 -12 -46 -9 -15 -12 -23 -6 -20 11 7 0 -32 -17 -58 -3 -6 -7 -18 -9 -26 -1 -8 -7 -16 -13 -18 -5 -2 -8 -8 -5 -12 3 -5 -9 -38 -27 -75 -24 -48 -37 -64 -48 -60 -12 5 -12 4 -3 -6 15 -15 -2 -53 -20 -43 -9 5 -9 4 -1 -5 7 -8 8 -27 4 -51 -4 -22 -5 -52 -3 -67 4 -22 2 -25 -7 -13 -23 31 -49 88 -43 94 4 3 2 6 -4 6 -13 0 -35 58 -27 71 3 5 0 9 -7 9 -7 0 -5 8 7 21 10 11 14 20 9 19 -31 -7 -36 1 -34 52 3 73 22 133 51 160 13 13 15 16 5 8 -11 -8 -18 -10 -16 -5 38 85 63 135 70 135 5 0 9 7 9 15 0 14 12 20 33 16 5 -1 6 3 2 8 -3 6 -12 8 -20 4 -8 -3 -15 0 -15 6 0 6 -3 10 -7 10 -22 -4 -33 2 -27 13 5 8 2 9 -10 5 -10 -4 -26 -3 -36 3 -15 8 -19 5 -24 -26 -4 -19 -14 -38 -22 -41 -9 -3 -12 -12 -9 -24 4 -11 2 -19 -4 -19 -6 0 -10 -3 -10 -7 3 -20 -2 -34 -11 -28 -6 3 -7 -1 -4 -9 3 -9 2 -16 -4 -16 -5 0 -13 -12 -16 -26 -5 -17 -12 -24 -21 -20 -9 3 -12 0 -9 -9 7 -17 -22 -62 -49 -76 -18 -10 -19 -9 -12 27 20 106 25 148 25 216 1 139 -13 167 -81 168 -19 0 -41 6 -48 13 -10 10 -11 8 -5 -7 5 -14 4 -17 -4 -12 -13 8 -11 -14 3 -46 7 -18 -9 -102 -25 -128 -7 -11 -13 -6 -26 25 -9 22 -17 47 -18 56 0 8 -9 23 -19 33 -9 10 -15 21 -12 26 3 5 -7 6 -22 3 -16 -3 -32 -6 -38 -7 -5 -1 -16 -5 -22 -9 -7 -5 -17 -6 -22 -2 -10 5 -21 -21 -25 -58 -4 -34 -29 -97 -39 -97 -4 0 -6 4 -2 9 3 6 0 13 -7 18 -25 16 -40 53 -27 69 9 11 8 15 -5 20 -21 8 -148 -56 -154 -78 -2 -10 -8 -18 -13 -18 -5 0 -6 -6 -3 -13 3 -8 -2 -20 -11 -27 -8 -7 -15 -20 -15 -28 0 -32 -31 27 -33 63 -1 19 -8 37 -15 40 -6 2 -12 0 -12 -6 0 -6 -4 -7 -10 -4 -5 3 -10 1 -10 -5 0 -6 -4 -9 -9 -5 -5 3 -12 1 -16 -5 -3 -5 -17 -10 -30 -10 -31 0 -131 37 -149 55 -7 8 -16 12 -19 9 -3 -3 -8 0 -13 7 -5 8 -3 10 6 4 8 -5 11 -4 6 3 -4 6 -14 8 -23 5 -12 -5 -15 -2 -10 9 4 12 1 14 -14 11 -11 -3 -19 0 -19 6 0 7 -4 10 -9 6 -6 -3 -14 3 -20 12 -6 10 -11 14 -11 9 0 -4 -9 2 -21 15 -11 13 -17 17 -13 9 5 -10 0 -9 -14 4 -12 11 -22 16 -22 12 0 -4 -6 -4 -12 1 -15 9 -20 10 -54 12 -16 1 -23 5 -18 13 4 7 3 8 -5 4 -14 -9 -73 3 -67 13 3 4 -8 7 -24 6 -17 -1 -30 2 -30 7 0 5 -6 6 -13 2 -9 -6 -9 -4 1 8 10 13 10 18 1 24 -8 4 -9 3 -5 -4 4 -7 3 -12 -3 -12 -14 0 -25 45 -15 61 4 8 3 9 -4 5 -7 -4 -12 -1 -12 9 0 15 21 14 72 -4 9 -3 49 -4 88 -3 62 3 72 6 80 25 6 16 2 28 -13 45 -11 12 -17 22 -13 22 5 0 3 6 -3 14 -7 8 -21 12 -31 9 -11 -3 -20 -1 -20 3 0 5 -15 10 -33 11 -17 1 -43 5 -57 8 l-25 7 25 14 c36 20 153 14 120 -6 -7 -5 2 -7 21 -5 22 2 53 -8 94 -31 33 -18 72 -35 87 -38 15 -2 33 -8 39 -12 17 -10 109 -12 109 -1 0 4 4 6 9 2 5 -3 12 -1 16 4 3 5 14 8 25 6 11 -2 20 0 20 4 0 4 25 14 55 21 43 10 60 21 85 51 36 45 188 125 221 116 12 -3 19 -3 16 -1 -3 3 9 19 26 36 18 16 31 33 30 36 0 4 3 6 9 4 5 -1 7 2 3 8 -9 15 13 50 33 50 15 0 15 2 2 10 -12 8 -12 10 -1 10 8 0 11 3 8 7 -4 3 -2 12 4 20 6 7 8 13 4 13 -4 0 -2 7 5 15 14 16 34 10 24 -7 -4 -7 -2 -8 4 -4 9 5 8 12 0 26 -9 14 -14 16 -20 7 -5 -7 -8 1 -8 19 0 17 3 34 7 38 4 4 6 25 4 48 -1 22 1 38 6 35 4 -3 9 10 10 29 2 49 5 64 13 64 4 0 7 6 8 13 3 54 38 108 55 85 7 -10 8 -10 5 0 -2 8 -8 13 -13 13 -17 0 -27 41 -13 50 14 9 30 -10 21 -25 -3 -5 -1 -6 5 -2 19 11 -4 45 -26 39 -13 -3 -22 4 -30 22 -17 37 -14 43 8 16 11 -13 20 -19 20 -14 0 14 -35 44 -43 37 -4 -4 -10 2 -14 12 -3 10 -15 31 -26 46 -11 15 -16 31 -12 39 6 8 4 11 -7 7 -9 -4 -21 4 -32 23 -9 16 -14 29 -9 29 4 0 2 4 -6 9 -13 8 -13 15 -1 50 7 22 18 38 23 34 6 -3 7 -1 3 6 -4 6 13 42 40 82 43 65 46 74 40 115 -4 36 -3 44 10 44 8 0 13 4 10 9 -3 4 6 6 19 3 14 -2 22 -8 19 -13z m-1007 -1366 c-4 -3 -7 0 -7 7 0 7 3 10 7 7 3 -4 3 -10 0 -14z m4460 -10 c-4 -3 -7 0 -7 7 0 7 3 10 7 7 3 -4 3 -10 0 -14z m-239 -95 c21 -21 13 -27 -18 -17 -16 6 -30 15 -30 20 0 13 34 11 48 -3z m-1613 -1026 c-8 -9 -35 20 -28 31 4 6 11 3 19 -8 8 -10 12 -21 9 -23z"/>
<path d="M1463 3303 c4 -3 10 -3 14 0 3 4 0 7 -7 7 -7 0 -10 -3 -7 -7z"/>
<path d="M1893 3295 c0 -8 4 -12 9 -9 5 3 6 10 3 15 -9 13 -12 11 -12 -6z"/>
<path d="M1545 3280 c3 -5 8 -10 11 -10 3 0 2 5 -1 10 -3 6 -8 10 -11 10 -3 0 -2 -4 1 -10z"/>
<path d="M1817 3269 c7 -7 15 -10 18 -7 3 3 -2 9 -12 12 -14 6 -15 5 -6 -5z"/>
<path d="M1563 3253 c4 -3 10 -3 14 0 3 4 0 7 -7 7 -7 0 -10 -3 -7 -7z"/>
<path d="M1545 3240 c3 -5 8 -10 11 -10 3 0 2 5 -1 10 -3 6 -8 10 -11 10 -3 0 -2 -4 1 -10z"/>
<path d="M3005 3241 c-3 -5 -2 -12 3 -15 5 -3 9 1 9 9 0 17 -3 19 -12 6z"/>
<path d="M3193 3243 c4 -3 10 -3 14 0 3 4 0 7 -7 7 -7 0 -10 -3 -7 -7z"/>
<path d="M1565 3210 c3 -5 8 -10 11 -10 3 0 2 5 -1 10 -3 6 -8 10 -11 10 -3 0 -2 -4 1 -10z"/>
<path d="M2997 3209 c7 -7 15 -10 18 -7 3 3 -2 9 -12 12 -14 6 -15 5 -6 -5z"/>
<path d="M3093 3193 c4 -3 1 -13 -6 -22 -11 -14 -10 -14 5 -2 16 12 16 31 1 31 -4 0 -3 -3 0 -7z"/>
<path d="M1606 3168 c3 -5 10 -6 15 -3 13 9 11 12 -6 12 -8 0 -12 -4 -9 -9z"/>
<path d="M1416 3162 c-3 -5 1 -9 9 -9 8 0 12 4 9 9 -3 4 -7 8 -9 8 -2 0 -6 -4 -9 -8z"/>
<path d="M2810 3166 c0 -2 8 -10 18 -17 15 -13 16 -12 3 4 -13 16 -21 21 -21 13z"/>
<path d="M1606 3134 c-5 -14 -4 -15 9 -4 17 14 19 20 6 20 -5 0 -12 -7 -15 -16z"/>
<path d="M1413 3133 c4 -3 10 -3 14 0 3 4 0 7 -7 7 -7 0 -10 -3 -7 -7z"/>
<path d="M2845 3120 c3 -5 8 -10 11 -10 3 0 2 5 -1 10 -3 6 -8 10 -11 10 -3 0 -2 -4 1 -10z"/>
<path d="M3156 3102 c-2 -4 4 -8 14 -8 10 0 16 4 14 8 -3 4 -9 8 -14 8 -5 0 -11 -4 -14 -8z"/>
<path d="M2905 3090 c-4 -6 -12 -7 -18 -4 -7 4 -9 4 -5 -1 4 -4 2 -15 -4 -24 -10 -13 -10 -14 1 -4 7 6 19 9 26 7 7 -3 16 -1 20 5 4 7 -1 8 -12 4 -16 -6 -16 -5 -4 10 7 9 11 17 8 17 -3 0 -9 -5 -12 -10z"/>
<path d="M2850 3079 c0 -5 5 -7 10 -4 6 3 10 8 10 11 0 2 -4 4 -10 4 -5 0 -10 -5 -10 -11z"/>
<path d="M2954 3072 c3 -5 0 -13 -6 -15 -9 -4 -10 -6 -1 -6 17 -1 25 16 12 25 -7 4 -9 3 -5 -4z"/>
<path d="M3166 3063 c-6 -14 -5 -15 5 -6 7 7 10 15 7 18 -3 3 -9 -2 -12 -12z"/>
<path d="M3286 3067 c3 -10 9 -15 12 -12 3 3 0 11 -7 18 -10 9 -11 8 -5 -6z"/>
<path d="M3314 3068 c-4 -7 -3 -8 4 -4 12 7 16 16 8 16 -3 0 -8 -5 -12 -12z"/>
<path d="M1530 3061 c0 -5 7 -12 16 -15 14 -5 15 -4 4 9 -14 17 -20 19 -20 6z"/>
<path d="M3179 3043 c-13 -16 -12 -17 4 -4 9 7 17 15 17 17 0 8 -8 3 -21 -13z"/>
<path d="M3153 3014 c0 -8 3 -12 5 -9 3 3 11 0 19 -6 7 -6 13 -7 13 -3 0 5 -8 14 -18 21 -15 9 -19 8 -19 -3z"/>
<path d="M2010 2991 c0 -6 4 -13 10 -16 6 -3 7 1 4 9 -7 18 -14 21 -14 7z"/>
<path d="M1523 2975 c0 -8 4 -12 9 -9 5 3 6 10 3 15 -9 13 -12 11 -12 -6z"/>
<path d="M1575 2981 c-3 -5 -2 -12 3 -15 5 -3 9 1 9 9 0 17 -3 19 -12 6z"/>
<path d="M3153 2983 c4 -3 10 -3 14 0 3 4 0 7 -7 7 -7 0 -10 -3 -7 -7z"/>
<path d="M3290 2971 c0 -6 4 -13 10 -16 6 -3 7 1 4 9 -7 18 -14 21 -14 7z"/>
<path d="M1400 2920 c0 -7 3 -10 7 -7 3 4 3 10 0 14 -4 3 -7 0 -7 -7z"/>
<path d="M1424 2918 c-4 -7 -3 -8 4 -4 12 7 16 16 8 16 -3 0 -8 -5 -12 -12z"/>
<path d="M1880 2915 c-7 -9 -11 -17 -9 -20 3 -2 10 5 17 15 14 24 10 26 -8 5z"/>
<path d="M2027 2909 c7 -7 15 -10 18 -7 3 3 -2 9 -12 12 -14 6 -15 5 -6 -5z"/>
<path d="M1894 2898 c-4 -7 -3 -8 4 -4 7 4 12 9 12 12 0 8 -9 4 -16 -8z"/>
<path d="M2851 2897 c-8 -10 -7 -14 2 -14 8 0 14 6 14 14 0 7 -1 13 -2 13 -2 0 -8 -6 -14 -13z"/>
<path d="M3285 2900 c3 -5 8 -10 11 -10 3 0 2 5 -1 10 -3 6 -8 10 -11 10 -3 0 -2 -4 1 -10z"/>
<path d="M2834 2840 c0 -13 4 -16 10 -10 7 7 7 13 0 20 -6 6 -10 3 -10 -10z"/>
<path d="M1715 2789 c-4 -6 -5 -12 -2 -15 2 -3 7 2 10 11 7 17 1 20 -8 4z"/>
<path d="M1734 2768 c-4 -7 -3 -8 4 -4 7 4 12 9 12 12 0 8 -9 4 -16 -8z"/>
<path d="M2775 2750 c3 -5 8 -10 11 -10 3 0 2 5 -1 10 -3 6 -8 10 -11 10 -3 0 -2 -4 1 -10z"/>
<path d="M2290 2710 c0 -7 3 -10 7 -7 3 4 3 10 0 14 -4 3 -7 0 -7 -7z"/>
<path d="M2255 2699 c-4 -6 -5 -12 -2 -15 2 -3 7 2 10 11 7 17 1 20 -8 4z"/>
<path d="M2005 2690 c3 -5 8 -10 11 -10 3 0 2 5 -1 10 -3 6 -8 10 -11 10 -3 0 -2 -4 1 -10z"/>
<path d="M2695 2680 c3 -5 8 -10 11 -10 3 0 2 5 -1 10 -3 6 -8 10 -11 10 -3 0 -2 -4 1 -10z"/>
<path d="M1480 2670 c-12 -8 -12 -10 -1 -10 11 0 11 -3 0 -17 -11 -15 -11 -16 1 -6 8 7 15 20 16 28 3 18 3 17 -16 5z"/>
<path d="M1685 2670 c3 -5 8 -10 11 -10 3 0 2 5 -1 10 -3 6 -8 10 -11 10 -3 0 -2 -4 1 -10z"/>
<path d="M2647 2669 c7 -7 15 -10 18 -7 3 3 -2 9 -12 12 -14 6 -15 5 -6 -5z"/>
<path d="M2185 2660 c3 -5 8 -10 11 -10 3 0 2 5 -1 10 -3 6 -8 10 -11 10 -3 0 -2 -4 1 -10z"/>
<path d="M2234 2658 c-4 -7 -3 -8 4 -4 7 4 12 9 12 12 0 8 -9 4 -16 -8z"/>
<path d="M2294 2658 c-4 -7 -3 -8 4 -4 12 7 16 16 8 16 -3 0 -8 -5 -12 -12z"/>
<path d="M2144 2648 c-4 -7 -3 -8 4 -4 12 7 16 16 8 16 -3 0 -8 -5 -12 -12z"/>
<path d="M3233 2634 c4 -4 1 -14 -6 -23 -11 -14 -10 -15 8 -1 11 8 21 15 23 16 2 1 -5 5 -15 8 -9 4 -14 4 -10 0z"/>
<path d="M3229 2573 c-13 -16 -12 -17 4 -4 9 7 17 15 17 17 0 8 -8 3 -21 -13z"/>
<path d="M1503 2573 c4 -3 10 -3 14 0 3 4 0 7 -7 7 -7 0 -10 -3 -7 -7z"/>
<path d="M1813 2563 c0 -9 4 -10 14 -2 7 6 13 12 13 14 0 1 -6 2 -13 2 -8 0 -14 -6 -14 -14z"/>
<path d="M1713 2543 c4 -3 10 -3 14 0 3 4 0 7 -7 7 -7 0 -10 -3 -7 -7z"/>
<path d="M1684 2528 c-4 -7 -3 -8 4 -4 12 7 16 16 8 16 -3 0 -8 -5 -12 -12z"/>
<path d="M1795 2530 c3 -5 8 -10 11 -10 2 0 4 5 4 10 0 6 -5 10 -11 10 -5 0 -7 -4 -4 -10z"/>
<path d="M1780 2510 c0 -7 3 -10 7 -7 3 4 3 10 0 14 -4 3 -7 0 -7 -7z"/>
<path d="M3203 2503 c4 -3 10 -3 14 0 3 4 0 7 -7 7 -7 0 -10 -3 -7 -7z"/>
<path d="M1425 2480 c3 -5 8 -10 11 -10 3 0 2 5 -1 10 -3 6 -8 10 -11 10 -3 0 -2 -4 1 -10z"/>
<path d="M1783 2483 c4 -3 10 -3 14 0 3 4 0 7 -7 7 -7 0 -10 -3 -7 -7z"/>
<path d="M3205 2470 c3 -5 8 -10 11 -10 3 0 2 5 -1 10 -3 6 -8 10 -11 10 -3 0 -2 -4 1 -10z"/>
<path d="M3209 2448 c-9 -30 -6 -37 12 -28 23 13 25 30 4 30 -8 0 -15 -1 -16 -2z m18 -15 c-4 -3 -10 -3 -14 0 -3 4 0 7 7 7 7 0 10 -3 7 -7z"/>
<path d="M1426 2407 c3 -10 9 -15 12 -12 3 3 0 11 -7 18 -10 9 -11 8 -5 -6z"/>
<path d="M3363 2375 c0 -8 4 -12 9 -9 5 3 6 10 3 15 -9 13 -12 11 -12 -6z"/>
<path d="M3460 2260 c0 -7 3 -10 7 -7 3 4 3 10 0 14 -4 3 -7 0 -7 -7z"/>
<path d="M4267 2259 c7 -7 15 -10 18 -7 3 3 -2 9 -12 12 -14 6 -15 5 -6 -5z"/>
<path d="M1405 2250 c3 -5 8 -10 11 -10 3 0 2 5 -1 10 -3 6 -8 10 -11 10 -3 0 -2 -4 1 -10z"/>
<path d="M3825 2250 c3 -5 8 -10 11 -10 3 0 2 5 -1 10 -3 6 -8 10 -11 10 -3 0 -2 -4 1 -10z"/>
<path d="M4427 2249 c7 -7 15 -10 18 -7 3 3 -2 9 -12 12 -14 6 -15 5 -6 -5z"/>
<path d="M4500 2230 c0 -7 3 -10 7 -7 3 4 3 10 0 14 -4 3 -7 0 -7 -7z"/>
<path d="M4536 2217 c3 -10 9 -15 12 -12 3 3 0 11 -7 18 -10 9 -11 8 -5 -6z"/>
<path d="M4495 2180 c3 -5 8 -10 11 -10 3 0 2 5 -1 10 -3 6 -8 10 -11 10 -3 0 -2 -4 1 -10z"/>
<path d="M4683 2173 c4 -3 10 -3 14 0 3 4 0 7 -7 7 -7 0 -10 -3 -7 -7z"/>
<path d="M1330 2150 c0 -7 3 -10 7 -7 3 4 3 10 0 14 -4 3 -7 0 -7 -7z"/>
<path d="M1295 2139 c-4 -6 -5 -12 -2 -15 2 -3 7 2 10 11 7 17 1 20 -8 4z"/>
<path d="M4823 2143 c4 -3 10 -3 14 0 3 4 0 7 -7 7 -7 0 -10 -3 -7 -7z"/>
<path d="M4890 2120 c0 -7 3 -10 7 -7 3 4 3 10 0 14 -4 3 -7 0 -7 -7z"/>
<path d="M4993 2113 c4 -3 1 -13 -6 -22 -11 -14 -10 -14 5 -2 16 12 16 31 1 31 -4 0 -3 -3 0 -7z"/>
<path d="M5125 2110 c-4 -6 -12 -7 -18 -4 -7 4 -8 3 -4 -1 13 -15 34 -14 34 1 0 17 -4 18 -12 4z"/>
<path d="M1274 2098 c-4 -7 -3 -8 4 -4 12 7 16 16 8 16 -3 0 -8 -5 -12 -12z"/>
<path d="M1334 2098 c-4 -7 -3 -8 4 -4 12 7 16 16 8 16 -3 0 -8 -5 -12 -12z"/>
<path d="M5080 2101 c0 -6 4 -13 10 -16 6 -3 7 1 4 9 -7 18 -14 21 -14 7z"/>
<path d="M5163 2083 c4 -3 10 -3 14 0 3 4 0 7 -7 7 -7 0 -10 -3 -7 -7z"/>
<path d="M4501 2066 c-9 -11 -9 -16 1 -22 7 -4 10 -4 6 1 -4 4 -3 14 3 22 6 7 9 13 6 13 -2 0 -10 -6 -16 -14z"/>
<path d="M4534 2068 c-4 -7 -3 -8 4 -4 7 4 12 9 12 12 0 8 -9 4 -16 -8z"/>
<path d="M4670 2070 c-8 -5 -10 -10 -5 -10 6 0 17 5 25 10 8 5 11 10 5 10 -5 0 -17 -5 -25 -10z"/>
<path d="M5125 2070 c-3 -6 1 -7 9 -4 18 7 21 14 7 14 -6 0 -13 -4 -16 -10z"/>
<path d="M4393 2051 c10 -12 9 -14 -8 -7 -11 4 -16 4 -12 0 4 -4 1 -14 -6 -23 -10 -12 -7 -12 12 2 28 18 36 44 15 44 -11 0 -11 -3 -1 -16z"/>
<path d="M4580 2060 c-8 -5 -12 -12 -9 -15 4 -3 12 1 19 10 14 17 11 19 -10 5z"/>
<path d="M5196 2061 c3 -3 15 -6 27 -6 13 -1 21 -6 19 -14 -1 -7 2 -9 9 -6 16 11 -6 29 -36 31 -14 0 -23 -2 -19 -5z"/>
<path d="M4460 2050 c0 -7 3 -10 7 -7 3 4 3 10 0 14 -4 3 -7 0 -7 -7z"/>
<path d="M1066 2042 c-2 -4 4 -8 14 -8 10 0 16 4 14 8 -3 4 -9 8 -14 8 -5 0 -11 -4 -14 -8z"/>
<path d="M4345 2040 c3 -5 8 -10 11 -10 3 0 2 5 -1 10 -3 6 -8 10 -11 10 -3 0 -2 -4 1 -10z"/>
<path d="M4594 2038 c-4 -7 -3 -8 4 -4 7 4 12 9 12 12 0 8 -9 4 -16 -8z"/>
<path d="M1055 2010 c3 -5 8 -10 11 -10 3 0 2 5 -1 10 -3 6 -8 10 -11 10 -3 0 -2 -4 1 -10z"/>
<path d="M5213 2013 c4 -3 10 -3 14 0 3 4 0 7 -7 7 -7 0 -10 -3 -7 -7z"/>
<path d="M5249 2018 c-5 -18 -6 -38 -1 -34 7 8 12 36 6 36 -2 0 -4 -1 -5 -2z"/>
<path d="M4314 1998 c-4 -7 -3 -8 4 -4 7 4 12 9 12 12 0 8 -9 4 -16 -8z"/>
<path d="M4543 1995 c0 -8 4 -12 9 -9 5 3 6 10 3 15 -9 13 -12 11 -12 -6z"/>
<path d="M4135 1991 c-3 -5 -2 -12 3 -15 5 -3 9 1 9 9 0 17 -3 19 -12 6z"/>
<path d="M4759 1988 c17 -22 27 -23 35 -2 5 13 4 14 -7 6 -10 -9 -17 -8 -27 1 -12 10 -12 9 -1 -5z"/>
<path d="M5295 1980 c3 -5 8 -10 11 -10 3 0 2 5 -1 10 -3 6 -8 10 -11 10 -3 0 -2 -4 1 -10z"/>
<path d="M531 1967 c-1 -11 -6 -15 -13 -11 -7 4 -8 3 -4 -4 5 -8 13 -9 24 -3 21 10 44 3 36 -11 -5 -7 -2 -8 6 -3 10 6 10 11 -3 20 -9 7 -13 16 -9 21 4 4 0 3 -10 -4 -13 -10 -17 -10 -21 0 -3 8 -6 6 -6 -5z"/>
<path d="M5266 1971 c-4 -5 -2 -12 3 -15 5 -4 12 -2 15 3 4 5 2 12 -3 15 -5 4 -12 2 -15 -3z"/>
<path d="M4087 1954 c3 -8 10 -12 16 -11 7 1 11 -3 10 -10 -2 -7 3 -10 11 -7 12 5 12 9 -2 23 -20 20 -42 23 -35 5z"/>
<path d="M611 1951 c-10 -6 -9 -10 3 -14 8 -3 18 -2 21 3 8 13 -9 20 -24 11z"/>
<path d="M4753 1953 c4 -3 10 -3 14 0 3 4 0 7 -7 7 -7 0 -10 -3 -7 -7z"/>
<path d="M4816 1951 c-3 -5 2 -15 12 -22 15 -12 16 -12 5 2 -7 9 -10 19 -6 22 3 4 4 7 0 7 -3 0 -8 -4 -11 -9z"/>
<path d="M1005 1940 c-4 -6 -11 -7 -17 -4 -7 4 -8 2 -4 -5 6 -9 11 -9 22 0 14 11 18 19 10 19 -3 0 -8 -5 -11 -10z"/>
<path d="M913 1933 c4 -3 10 -3 14 0 3 4 0 7 -7 7 -7 0 -10 -3 -7 -7z"/>
<path d="M4773 1933 c4 -3 10 -3 14 0 3 4 0 7 -7 7 -7 0 -10 -3 -7 -7z"/>
<path d="M4801 1906 c-9 -11 -9 -16 1 -22 7 -4 10 -4 6 1 -4 4 -3 14 3 22 6 7 9 13 6 13 -2 0 -10 -6 -16 -14z"/>
<path d="M3844 1898 c-4 -7 -3 -8 4 -4 7 4 12 9 12 12 0 8 -9 4 -16 -8z"/>
<path d="M3903 1903 c4 -3 10 -3 14 0 3 4 0 7 -7 7 -7 0 -10 -3 -7 -7z"/>
<path d="M4345 1898 c28 -17 51 -20 36 -5 -6 6 -21 12 -33 14 -22 3 -22 2 -3 -9z"/>
<path d="M4393 1903 c4 -3 10 -3 14 0 3 4 0 7 -7 7 -7 0 -10 -3 -7 -7z"/>
<path d="M5373 1893 c4 -3 10 -3 14 0 3 4 0 7 -7 7 -7 0 -10 -3 -7 -7z"/>
<path d="M4820 1876 c0 -2 8 -10 18 -17 15 -13 16 -12 3 4 -13 16 -21 21 -21 13z"/>
<path d="M5360 1876 c0 -2 8 -10 18 -17 15 -13 16 -12 3 4 -13 16 -21 21 -21 13z"/>
<path d="M5393 1873 c4 -3 10 -3 14 0 3 4 0 7 -7 7 -7 0 -10 -3 -7 -7z"/>
<path d="M334 1849 c-3 -6 -2 -15 4 -21 6 -6 12 -6 17 3 6 8 4 10 -5 4 -10 -6 -12 -4 -7 8 7 19 2 23 -9 6z"/>
<path d="M493 1853 c4 -3 10 -3 14 0 3 4 0 7 -7 7 -7 0 -10 -3 -7 -7z"/>
<path d="M4410 1850 c0 -7 3 -10 7 -7 3 4 3 10 0 14 -4 3 -7 0 -7 -7z"/>
<path d="M3870 1840 c0 -7 3 -10 7 -7 3 4 3 10 0 14 -4 3 -7 0 -7 -7z"/>
<path d="M5416 1841 c-4 -5 -2 -12 3 -15 5 -4 12 -2 15 3 4 5 2 12 -3 15 -5 4 -12 2 -15 -3z"/>
<path d="M375 1829 c-4 -6 -5 -12 -2 -15 2 -3 7 2 10 11 7 17 1 20 -8 4z"/>
<path d="M4144 1809 c-2 -33 4 -33 11 -1 2 12 1 24 -3 26 -4 2 -8 -9 -8 -25z"/>
<path d="M4185 1830 c3 -5 8 -10 11 -10 3 0 2 5 -1 10 -3 6 -8 10 -11 10 -3 0 -2 -4 1 -10z"/>
<path d="M3710 1820 c0 -7 3 -10 7 -7 3 4 3 10 0 14 -4 3 -7 0 -7 -7z"/>
<path d="M4095 1820 c-3 -5 -5 -10 -3 -11 33 -8 38 -7 27 7 -14 17 -16 17 -24 4z"/>
<path d="M4844 1818 c-4 -7 -3 -8 4 -4 12 7 16 16 8 16 -3 0 -8 -5 -12 -12z"/>
<path d="M3745 1810 c3 -5 8 -10 11 -10 3 0 2 5 -1 10 -3 6 -8 10 -11 10 -3 0 -2 -4 1 -10z"/>
<path d="M3870 1810 c0 -7 3 -10 7 -7 3 4 3 10 0 14 -4 3 -7 0 -7 -7z"/>
<path d="M4856 1801 c-3 -4 1 -17 10 -27 14 -18 15 -18 5 2 -6 12 -7 24 -4 28 3 3 4 6 0 6 -3 0 -8 -4 -11 -9z"/>
<path d="M5100 1800 c0 -7 3 -10 7 -7 3 4 3 10 0 14 -4 3 -7 0 -7 -7z"/>
<path d="M5443 1803 c4 -3 10 -3 14 0 3 4 0 7 -7 7 -7 0 -10 -3 -7 -7z"/>
<path d="M3706 1788 c3 -5 10 -6 15 -3 13 9 11 12 -6 12 -8 0 -12 -4 -9 -9z"/>
<path d="M5065 1790 c3 -5 11 -10 16 -10 6 0 7 5 4 10 -3 6 -11 10 -16 10 -6 0 -7 -4 -4 -10z"/>
<path d="M3729 1773 c-13 -17 -13 -17 6 -3 11 8 22 16 24 17 2 2 0 3 -6 3 -6 0 -17 -8 -24 -17z"/>
<path d="M3865 1780 c3 -5 8 -10 11 -10 3 0 2 5 -1 10 -3 6 -8 10 -11 10 -3 0 -2 -4 1 -10z"/>
<path d="M5094 1768 c-4 -7 -3 -8 4 -4 12 7 16 16 8 16 -3 0 -8 -5 -12 -12z"/>
<path d="M5473 1773 c4 -3 10 -3 14 0 3 4 0 7 -7 7 -7 0 -10 -3 -7 -7z"/>
<path d="M4135 1760 c-3 -5 -1 -10 4 -10 6 0 11 5 11 10 0 6 -2 10 -4 10 -3 0 -8 -4 -11 -10z"/>
<path d="M1395 1750 c-4 -6 -12 -7 -18 -3 -7 4 -5 -2 3 -13 22 -29 24 -30 17 -13 -3 9 0 22 6 28 6 6 8 11 5 11 -4 0 -10 -5 -13 -10z"/>
<path d="M1652 1744 c-7 -8 -8 -14 -3 -14 10 0 25 19 20 25 -2 1 -10 -3 -17 -11z"/>
<path d="M3543 1753 c4 -3 10 -3 14 0 3 4 0 7 -7 7 -7 0 -10 -3 -7 -7z"/>
<path d="M3813 1753 c4 -3 10 -3 14 0 3 4 0 7 -7 7 -7 0 -10 -3 -7 -7z"/>
<path d="M4190 1750 c0 -7 3 -10 7 -7 3 4 3 10 0 14 -4 3 -7 0 -7 -7z"/>
<path d="M624 1738 c-4 -7 -3 -8 4 -4 12 7 16 16 8 16 -3 0 -8 -5 -12 -12z"/>
<path d="M1283 1743 c4 -3 10 -3 14 0 3 4 0 7 -7 7 -7 0 -10 -3 -7 -7z"/>
<path d="M1414 1738 c-4 -7 -3 -8 4 -4 7 4 12 9 12 12 0 8 -9 4 -16 -8z"/>
<path d="M3380 1746 c0 -2 8 -10 18 -17 15 -13 16 -12 3 4 -13 16 -21 21 -21 13z"/>
<path d="M3415 1740 c3 -5 8 -10 11 -10 3 0 2 5 -1 10 -3 6 -8 10 -11 10 -3 0 -2 -4 1 -10z"/>
<path d="M5123 1735 c0 -8 4 -12 9 -9 5 3 6 10 3 15 -9 13 -12 11 -12 -6z"/>
<path d="M3929 1723 c-13 -16 -12 -17 4 -4 9 7 17 15 17 17 0 8 -8 3 -21 -13z"/>
<path d="M4220 1730 c0 -7 3 -10 7 -7 3 4 3 10 0 14 -4 3 -7 0 -7 -7z"/>
<path d="M1354 1718 c-4 -7 -3 -8 4 -4 7 4 12 9 12 12 0 8 -9 4 -16 -8z"/>
<path d="M5135 1709 c-4 -6 -4 -13 -1 -16 3 -4 6 -1 6 6 0 7 5 9 12 5 7 -4 8 -3 4 4 -9 15 -13 15 -21 1z"/>
<path d="M3583 1703 c4 -3 10 -3 14 0 3 4 0 7 -7 7 -7 0 -10 -3 -7 -7z"/>
<path d="M3940 1700 c0 -5 5 -10 11 -10 5 0 7 5 4 10 -3 6 -8 10 -11 10 -2 0 -4 -4 -4 -10z"/>
<path d="M3525 1690 c3 -5 8 -10 11 -10 3 0 2 5 -1 10 -3 6 -8 10 -11 10 -3 0 -2 -4 1 -10z"/>
<path d="M3555 1690 c3 -5 8 -10 11 -10 3 0 2 5 -1 10 -3 6 -8 10 -11 10 -3 0 -2 -4 1 -10z"/>
<path d="M724 1668 c-4 -7 -3 -8 4 -4 12 7 16 16 8 16 -3 0 -8 -5 -12 -12z"/>
<path d="M1146 1669 c3 -5 10 -7 15 -4 5 4 9 2 9 -4 0 -5 -9 -13 -21 -16 -11 -4 -18 -9 -16 -12 3 -2 15 1 27 7 24 13 22 32 -3 36 -9 1 -15 -2 -11 -7z"/>
<path d="M1769 1663 c-13 -16 -12 -17 4 -4 9 7 17 15 17 17 0 8 -8 3 -21 -13z"/>
<path d="M1888 1668 c8 -10 9 -17 2 -20 -5 -1 0 -9 12 -17 20 -13 22 -12 11 1 -7 8 -11 17 -8 20 3 3 -3 11 -12 19 -16 13 -17 12 -5 -3z"/>
<path d="M3230 1670 c0 -7 3 -10 7 -7 3 4 3 10 0 14 -4 3 -7 0 -7 -7z"/>
<path d="M3464 1665 c1 -8 6 -18 11 -22 4 -4 5 -3 2 4 -4 6 -2 13 5 15 8 3 6 6 -4 10 -10 4 -15 2 -14 -7z"/>
<path d="M784 1658 c-4 -7 -3 -8 4 -4 7 4 12 9 12 12 0 8 -9 4 -16 -8z"/>
<path d="M1505 1660 c3 -5 8 -10 11 -10 3 0 2 5 -1 10 -3 6 -8 10 -11 10 -3 0 -2 -4 1 -10z"/>
<path d="M1820 1667 c0 -3 11 -12 23 -20 20 -13 24 -13 24 -1 0 8 -2 12 -5 9 -3 -2 -13 0 -23 6 -11 5 -19 8 -19 6z"/>
<path d="M3884 1658 c-4 -7 -3 -8 4 -4 7 4 12 9 12 12 0 8 -9 4 -16 -8z"/>
<path d="M735 1651 c-3 -5 -2 -12 3 -15 5 -3 9 1 9 9 0 17 -3 19 -12 6z"/>
<path d="M1254 1643 c2 -10 6 -17 10 -16 15 3 16 11 2 22 -12 10 -14 9 -12 -6z"/>
<path d="M3206 1643 c-6 -14 -5 -15 5 -6 7 7 10 15 7 18 -3 3 -9 -2 -12 -12z"/>
<path d="M3623 1653 c4 -3 10 -3 14 0 3 4 0 7 -7 7 -7 0 -10 -3 -7 -7z"/>
<path d="M4913 1647 c0 -7 11 -21 25 -31 l25 -19 -23 31 c-27 37 -27 36 -27 19z"/>
<path d="M1771 1637 c-8 -10 -7 -14 2 -14 8 0 14 6 14 14 0 7 -1 13 -2 13 -2 0 -8 -6 -14 -13z"/>
<path d="M3493 1643 c4 -3 10 -3 14 0 3 4 0 7 -7 7 -7 0 -10 -3 -7 -7z"/>
<path d="M765 1629 c-4 -6 -5 -12 -2 -15 2 -3 7 2 10 11 7 17 1 20 -8 4z"/>
<path d="M3603 1633 c4 -3 10 -3 14 0 3 4 0 7 -7 7 -7 0 -10 -3 -7 -7z"/>
<path d="M3630 1630 c0 -7 3 -10 7 -7 3 4 3 10 0 14 -4 3 -7 0 -7 -7z"/>
<path d="M1792 1614 c-7 -8 -8 -14 -3 -14 10 0 25 19 20 25 -2 1 -10 -3 -17 -11z"/>
<path d="M3224 1618 c-4 -7 -3 -8 4 -4 12 7 16 16 8 16 -3 0 -8 -5 -12 -12z"/>
<path d="M3480 1625 c0 -7 30 -13 34 -7 3 4 -4 9 -15 9 -10 1 -19 0 -19 -2z"/>
<path d="M781 1604 c0 -11 3 -14 6 -6 3 7 2 16 -1 19 -3 4 -6 -2 -5 -13z"/>
<path d="M4025 1610 c3 -5 8 -10 11 -10 3 0 2 5 -1 10 -3 6 -8 10 -11 10 -3 0 -2 -4 1 -10z"/>
<path d="M934 1588 c-4 -7 -3 -8 4 -4 7 4 12 9 12 12 0 8 -9 4 -16 -8z"/>
<path d="M1000 1596 c0 -2 7 -7 16 -10 8 -3 12 -2 9 4 -6 10 -25 14 -25 6z"/>
<path d="M3017 1589 c7 -7 15 -10 18 -7 3 3 -2 9 -12 12 -14 6 -15 5 -6 -5z"/>
<path d="M3055 1590 c-3 -6 1 -7 9 -4 18 7 21 14 7 14 -6 0 -13 -4 -16 -10z"/>
<path d="M2973 1574 c19 -23 23 -39 7 -29 -5 3 -10 1 -10 -4 0 -17 15 -13 35 9 17 18 17 20 2 14 -12 -4 -16 -2 -14 7 2 8 2 10 -1 6 -2 -4 -11 -2 -20 5 -14 11 -14 9 1 -8z"/>
<path d="M3577 1567 c3 -5 -1 -13 -8 -18 -10 -6 -10 -9 -2 -9 7 0 17 8 22 18 7 14 6 19 -4 19 -8 0 -11 -5 -8 -10z"/>
<path d="M1940 1560 c10 -6 11 -10 3 -10 -7 0 -13 -5 -13 -11 0 -8 5 -8 15 1 16 13 11 30 -8 30 -7 0 -6 -4 3 -10z"/>
<path d="M1983 1543 c4 -3 10 -3 14 0 3 4 0 7 -7 7 -7 0 -10 -3 -7 -7z"/>
<path d="M3104 1528 c-4 -7 -3 -8 4 -4 7 4 12 9 12 12 0 8 -9 4 -16 -8z"/>
<path d="M1735 1510 c3 -5 8 -10 11 -10 3 0 2 5 -1 10 -3 6 -8 10 -11 10 -3 0 -2 -4 1 -10z"/>
<path d="M3684 1496 c-10 -8 -25 -12 -34 -9 -13 4 -13 3 0 -5 10 -8 18 -8 27 -1 7 6 17 8 22 5 5 -4 12 -2 15 3 11 16 -10 21 -30 7z"/>
<path d="M1720 1480 c0 -7 3 -10 7 -7 3 4 3 10 0 14 -4 3 -7 0 -7 -7z"/>
<path d="M2897 1479 c7 -7 15 -10 18 -7 3 3 -2 9 -12 12 -14 6 -15 5 -6 -5z"/>
<path d="M3690 1460 c0 -7 3 -10 7 -7 3 4 3 10 0 14 -4 3 -7 0 -7 -7z"/>
<path d="M1885 1450 c3 -5 8 -10 11 -10 3 0 2 5 -1 10 -3 6 -8 10 -11 10 -3 0 -2 -4 1 -10z"/>
<path d="M2201 1427 c2 -1 13 -9 24 -17 19 -14 19 -14 6 3 -7 9 -18 17 -24 17 -6 0 -8 -1 -6 -3z"/>
<path d="M2535 1420 c3 -5 8 -10 11 -10 3 0 2 5 -1 10 -3 6 -8 10 -11 10 -3 0 -2 -4 1 -10z"/>
<path d="M1673 1413 c4 -6 4 -13 0 -16 -5 -2 -3 -2 4 -1 6 2 14 -2 17 -9 3 -8 5 -8 5 -1 1 6 -7 18 -16 25 -9 8 -14 9 -10 2z"/>
<path d="M2330 1410 c0 -7 3 -10 7 -7 3 4 3 10 0 14 -4 3 -7 0 -7 -7z"/>
<path d="M3163 1413 c4 -3 10 -3 14 0 3 4 0 7 -7 7 -7 0 -10 -3 -7 -7z"/>
<path d="M2193 1395 c0 -8 4 -12 9 -9 4 3 8 9 8 15 0 5 -4 9 -8 9 -5 0 -9 -7 -9 -15z"/>
<path d="M2790 1400 c0 -7 3 -10 7 -7 3 4 3 10 0 14 -4 3 -7 0 -7 -7z"/>
<path d="M3182 1403 c-6 -2 -10 -9 -6 -14 8 -14 21 -11 21 6 0 8 -1 15 -1 14 -1 0 -7 -3 -14 -6z"/>
<path d="M2015 1381 c-3 -5 -2 -12 3 -15 5 -3 9 1 9 9 0 17 -3 19 -12 6z"/>
<path d="M2211 1377 c-8 -10 -7 -14 2 -14 8 0 14 6 14 14 0 7 -1 13 -2 13 -2 0 -8 -6 -14 -13z"/>
<path d="M2495 1380 c3 -5 8 -10 11 -10 3 0 2 5 -1 10 -3 6 -8 10 -11 10 -3 0 -2 -4 1 -10z"/>
<path d="M2530 1370 c0 -7 3 -10 7 -7 3 4 3 10 0 14 -4 3 -7 0 -7 -7z"/>
<path d="M2550 1360 c0 -7 3 -10 7 -7 3 4 3 10 0 14 -4 3 -7 0 -7 -7z"/>
<path d="M2833 1353 c4 -3 10 -3 14 0 3 4 0 7 -7 7 -7 0 -10 -3 -7 -7z"/>
<path d="M3255 1350 c3 -5 8 -10 11 -10 3 0 2 5 -1 10 -3 6 -8 10 -11 10 -3 0 -2 -4 1 -10z"/>
<path d="M3314 1348 c-4 -7 -3 -8 4 -4 12 7 16 16 8 16 -3 0 -8 -5 -12 -12z"/>
<path d="M3353 1353 c4 -3 10 -3 14 0 3 4 0 7 -7 7 -7 0 -10 -3 -7 -7z"/>
<path d="M2145 1339 c-4 -6 -5 -12 -2 -15 2 -3 7 2 10 11 7 17 1 20 -8 4z"/>
<path d="M1820 1324 c0 -8 5 -12 10 -9 6 4 8 11 5 16 -9 14 -15 11 -15 -7z"/>
<path d="M2530 1330 c0 -7 3 -10 7 -7 3 4 3 10 0 14 -4 3 -7 0 -7 -7z"/>
<path d="M3350 1336 c0 -2 9 -6 20 -9 11 -3 18 -1 14 4 -5 9 -34 13 -34 5z"/>
<path d="M2513 1305 c0 -8 4 -12 9 -9 5 3 6 10 3 15 -9 13 -12 11 -12 -6z"/>
<path d="M2646 1303 c-6 -14 -5 -15 5 -6 7 7 10 15 7 18 -3 3 -9 -2 -12 -12z"/>
<path d="M3348 1313 c7 -3 16 -2 19 1 4 3 -2 6 -13 5 -11 0 -14 -3 -6 -6z"/>
<path d="M2326 1281 c-4 -5 -2 -12 3 -15 5 -4 12 -2 15 3 4 5 2 12 -3 15 -5 4 -12 2 -15 -3z"/>
<path d="M1936 1268 c3 -5 10 -6 15 -3 13 9 11 12 -6 12 -8 0 -12 -4 -9 -9z"/>
<path d="M2533 1268 c-11 -19 -13 -39 -1 -32 5 3 7 9 4 12 -3 3 -1 11 5 19 6 7 9 13 6 13 -3 0 -9 -6 -14 -12z"/>
<path d="M3453 1263 c4 -3 10 -3 14 0 3 4 0 7 -7 7 -7 0 -10 -3 -7 -7z"/>
<path d="M1926 1247 c3 -10 9 -15 12 -12 3 3 0 11 -7 18 -10 9 -11 8 -5 -6z"/>
<path d="M2100 1229 c0 -5 5 -7 10 -4 6 3 10 8 10 11 0 2 -4 4 -10 4 -5 0 -10 -5 -10 -11z"/>
<path d="M2860 1230 c0 -7 3 -10 7 -7 3 4 3 10 0 14 -4 3 -7 0 -7 -7z"/>
<path d="M1944 1218 c-4 -7 -3 -8 4 -4 12 7 16 16 8 16 -3 0 -8 -5 -12 -12z"/>
<path d="M2864 1188 c-4 -7 -3 -8 4 -4 12 7 16 16 8 16 -3 0 -8 -5 -12 -12z"/>
<path d="M2270 1175 c-7 -8 -9 -15 -4 -15 4 0 -1 -7 -12 -16 -18 -14 -18 -15 4 -4 13 7 21 14 18 17 -3 4 -1 12 5 20 6 7 9 13 6 13 -2 0 -10 -7 -17 -15z"/>
<path d="M2106 1172 c5 -4 12 -11 15 -15 3 -5 9 -2 12 5 3 9 -3 14 -15 15 -11 1 -16 -1 -12 -5z"/>
<path d="M2605 1169 c-4 -6 -5 -12 -2 -15 2 -3 7 2 10 11 7 17 1 20 -8 4z"/>
<path d="M2510 1140 c0 -7 3 -10 7 -7 3 4 3 10 0 14 -4 3 -7 0 -7 -7z"/>
<path d="M2565 1130 c3 -5 8 -10 11 -10 3 0 2 5 -1 10 -3 6 -8 10 -11 10 -3 0 -2 -4 1 -10z"/>
<path d="M2954 1108 c-4 -7 -3 -8 4 -4 12 7 16 16 8 16 -3 0 -8 -5 -12 -12z"/>
<path d="M1854 1098 c-4 -7 -3 -8 4 -4 12 7 16 16 8 16 -3 0 -8 -5 -12 -12z"/>
<path d="M2894 1098 c-4 -7 -3 -8 4 -4 12 7 16 16 8 16 -3 0 -8 -5 -12 -12z"/>
<path d="M2926 1095 c-9 -26 -7 -32 5 -12 6 10 9 21 6 23 -2 3 -7 -2 -11 -11z"/>
<path d="M1874 1088 c-4 -7 -3 -8 4 -4 12 7 16 16 8 16 -3 0 -8 -5 -12 -12z"/>
<path d="M2215 1090 c3 -5 8 -10 11 -10 3 0 2 5 -1 10 -3 6 -8 10 -11 10 -3 0 -2 -4 1 -10z"/>
<path d="M2966 1083 c-6 -14 -5 -15 5 -6 7 7 10 15 7 18 -3 3 -9 -2 -12 -12z"/>
<path d="M2145 1081 c-6 -11 13 -26 22 -17 4 3 1 6 -6 6 -7 0 -9 5 -6 10 3 6 4 10 1 10 -3 0 -7 -4 -11 -9z"/>
<path d="M2180 1086 c0 -2 8 -10 18 -17 15 -13 16 -12 3 4 -13 16 -21 21 -21 13z"/>
<path d="M1874 1058 c-4 -7 -3 -8 4 -4 12 7 16 16 8 16 -3 0 -8 -5 -12 -12z"/>
<path d="M2174 1038 c-4 -7 -3 -8 4 -4 12 7 16 16 8 16 -3 0 -8 -5 -12 -12z"/>
<path d="M2914 1038 c-4 -7 -3 -8 4 -4 7 4 12 9 12 12 0 8 -9 4 -16 -8z"/>
<path d="M2144 1012 c4 -3 14 -7 22 -8 9 -1 13 0 10 4 -4 3 -14 7 -22 8 -9 1 -13 0 -10 -4z"/>
<path d="M2979 1003 c-13 -16 -12 -17 4 -4 9 7 17 15 17 17 0 8 -8 3 -21 -13z"/>
<path d="M2485 940 c3 -5 8 -10 11 -10 3 0 2 5 -1 10 -3 6 -8 10 -11 10 -3 0 -2 -4 1 -10z"/>
<path d="M2473 913 c4 -3 10 -3 14 0 3 4 0 7 -7 7 -7 0 -10 -3 -7 -7z"/>
<path d="M2470 880 c0 -5 5 -10 11 -10 5 0 7 5 4 10 -3 6 -8 10 -11 10 -2 0 -4 -4 -4 -10z"/>
</g>
<g id="layer104" fill="#ffffff" stroke="none">
<path d="M0 1930 l0 -1930 2900 0 2900 0 0 1930 0 1930 -2900 0 -2900 0 0 -1930z m1535 1386 c39 -30 125 -142 125 -162 0 -8 -21 -37 -46 -64 -54 -58 -54 -57 41 -150 102 -100 123 -157 90 -237 -18 -42 -21 -83 -11 -130 10 -44 23 -41 46 10 32 72 51 186 57 342 7 194 -4 251 -59 311 -46 50 -45 69 4 83 73 20 260 -4 272 -35 3 -7 -4 -39 -14 -70 -11 -32 -20 -72 -20 -90 0 -17 20 -100 45 -183 51 -170 53 -191 26 -244 -11 -22 -14 -36 -8 -33 59 24 211 68 269 77 84 13 217 6 298 -16 30 -8 58 -15 62 -15 10 0 127 193 145 240 16 39 16 42 -5 68 -44 55 -51 68 -56 111 -7 67 13 93 45 55 18 -22 170 -134 182 -134 19 0 47 -33 47 -54 0 -12 -7 -30 -15 -40 -17 -22 -20 -66 -5 -66 16 0 69 80 81 122 21 79 -6 122 -85 137 -53 10 -71 23 -79 61 -12 50 -2 52 166 49 140 -4 158 -6 184 -25 27 -21 28 -25 28 -110 0 -49 4 -106 9 -126 7 -31 4 -45 -17 -80 -20 -35 -25 -61 -30 -144 -4 -72 -13 -119 -31 -167 -24 -64 -24 -68 -9 -121 14 -51 17 -55 59 -66 29 -8 67 -33 111 -73 102 -90 95 -89 344 -73 242 16 566 14 649 -4 30 -7 123 -31 205 -55 342 -98 463 -100 518 -5 21 35 36 35 56 -1 12 -22 12 -29 0 -54 l-14 -29 225 -224 c134 -133 220 -226 212 -229 -28 -11 -81 23 -298 187 -208 158 -227 171 -252 162 -15 -5 -26 -13 -25 -18 1 -5 22 -57 47 -117 69 -165 179 -458 173 -463 -5 -5 -134 189 -271 409 l-98 157 -40 0 c-34 0 -39 -3 -33 -17 95 -235 210 -561 202 -570 -10 -9 -73 97 -211 352 -118 219 -137 250 -160 253 -14 2 -26 1 -26 -2 0 -3 5 -28 11 -56 8 -39 18 -56 45 -76 68 -53 31 -60 -59 -12 -50 27 -68 44 -101 95 -22 35 -47 63 -55 64 -19 1 -75 -2 -78 -5 -1 -1 7 -33 18 -71 15 -58 27 -77 64 -113 49 -47 51 -65 7 -53 -91 27 -172 96 -199 171 -12 35 -22 49 -33 46 -8 -2 -36 -9 -61 -16 l-45 -12 22 -46 c13 -26 29 -73 35 -104 12 -58 29 -84 85 -124 35 -26 26 -39 -26 -37 -76 3 -144 60 -199 168 -49 96 -55 99 -126 73 -33 -12 -61 -22 -63 -24 -7 -5 148 -233 171 -250 14 -10 47 -32 73 -48 l49 -30 -45 -8 c-97 -17 -225 44 -379 183 l-101 90 -45 -7 c-48 -7 -54 -14 -29 -35 29 -24 73 -95 100 -164 20 -50 45 -87 91 -135 35 -37 63 -70 63 -74 0 -16 -45 -1 -148 50 -91 44 -130 70 -195 132 -45 42 -94 87 -109 101 l-28 24 -35 -19 c-40 -21 -40 -20 -20 -67 8 -19 19 -65 25 -103 18 -116 24 -128 107 -191 73 -55 123 -114 137 -160 11 -36 -10 -28 -67 26 -61 57 -69 61 -184 103 -72 26 -97 41 -138 82 -28 28 -66 77 -84 109 -18 31 -37 57 -41 57 -5 0 -29 -9 -52 -21 l-43 -21 7 -141 c11 -215 31 -311 89 -427 27 -54 49 -101 49 -105 0 -3 -19 4 -41 17 -93 52 -176 190 -225 373 -32 120 -77 215 -102 215 -57 -1 -60 -5 -64 -113 -5 -108 -15 -145 -94 -332 -33 -78 -38 -104 -43 -193 -4 -58 -10 -102 -16 -102 -5 0 -21 31 -34 68 -32 90 -33 235 -2 376 24 112 25 135 10 204 -14 67 -25 79 -86 86 l-52 7 11 -32 c14 -40 4 -139 -20 -192 -11 -23 -41 -69 -69 -102 -57 -68 -70 -91 -113 -201 -17 -44 -35 -82 -38 -86 -4 -4 -6 29 -4 72 2 44 -4 124 -12 178 -30 189 -20 255 59 362 l35 47 -56 22 c-31 11 -58 21 -60 21 -2 0 -4 -11 -4 -25 0 -40 -36 -139 -103 -280 -57 -119 -62 -136 -62 -198 0 -58 -2 -65 -13 -50 -33 43 -84 160 -98 222 -14 63 -14 75 0 132 9 35 37 107 63 159 26 52 47 99 48 103 0 4 -18 16 -41 26 l-41 19 -31 -77 c-34 -82 -128 -232 -151 -239 -10 -4 -12 6 -7 44 4 27 9 117 12 201 l6 151 -32 17 c-21 11 -44 15 -64 11 -31 -6 -31 -6 -31 -69 0 -34 -6 -77 -14 -94 -13 -33 -31 -44 -31 -20 0 17 -56 133 -67 140 -6 4 -33 -1 -61 -10 -48 -16 -52 -19 -52 -49 0 -17 -8 -51 -19 -73 l-18 -42 -27 31 c-14 17 -26 39 -26 48 -1 43 -15 44 -83 11 -50 -25 -67 -38 -67 -54 0 -11 -6 -30 -14 -41 -8 -11 -16 -31 -18 -44 -4 -24 -4 -24 -26 10 -12 19 -22 49 -22 67 l0 31 -49 -20 -49 -21 -64 22 c-35 13 -108 52 -163 87 -112 70 -127 77 -223 99 -137 32 -136 31 -152 113 -7 38 -6 42 9 37 31 -12 114 -25 162 -25 39 0 51 4 59 21 9 16 8 25 -6 40 -32 36 -81 59 -141 68 l-58 8 49 23 c63 29 105 23 210 -29 44 -22 110 -47 146 -57 l65 -17 109 31 c90 26 114 37 140 65 42 45 103 83 189 115 70 27 72 29 119 107 36 60 48 92 52 134 13 124 29 209 52 267 13 33 24 71 24 84 0 27 -39 99 -106 197 -62 90 -59 122 21 239 56 82 57 84 47 128 -5 25 -7 48 -3 52 12 12 73 -5 106 -30z"/>
</g>


</svg>