<!DOCTYPE svg PUBLIC "-//W3C//DTD SVG 20010904//EN" "http://www.w3.org/TR/2001/REC-SVG-20010904/DTD/svg10.dtd">
<svg version="1.0" xmlns="http://www.w3.org/2000/svg" width="246px" height="205px" viewBox="0 0 2460 2050" preserveAspectRatio="xMidYMid meet">
<g id="layer101" fill="#000000" stroke="none">
<path d="M0 1025 l0 -1025 1230 0 1230 0 0 1025 0 1025 -1230 0 -1230 0 0 -1025z"/>
</g>
<g id="layer102" fill="#ffffff" stroke="none">
<path d="M0 1025 l0 -1025 1230 0 1230 0 0 1025 0 1025 -1230 0 -1230 0 0 -1025z m1404 1000 c3 -9 18 -15 37 -15 17 0 48 -9 68 -19 20 -11 48 -22 62 -25 49 -11 85 -131 73 -244 -4 -42 -2 -77 6 -103 12 -36 11 -41 -12 -77 -14 -21 -29 -52 -32 -69 -8 -37 -28 -55 -78 -76 -21 -9 -38 -20 -38 -25 0 -10 258 -42 340 -42 140 0 321 48 499 131 46 22 86 38 88 36 2 -2 -21 -27 -50 -55 -79 -74 -289 -173 -591 -279 -150 -52 -192 -77 -270 -160 -39 -41 -91 -89 -116 -106 -25 -16 -90 -74 -145 -127 -87 -84 -109 -99 -165 -118 -42 -14 -88 -22 -135 -22 l-71 0 -53 -61 c-53 -59 -54 -62 -42 -94 13 -37 6 -108 -14 -141 -8 -11 -18 -40 -25 -62 -9 -36 -14 -42 -38 -42 -39 0 -129 -46 -183 -94 -88 -79 -126 -100 -189 -104 -49 -4 -63 -1 -86 17 -15 11 -33 21 -40 21 -19 0 -30 27 -37 86 -5 44 -3 51 11 50 18 -1 18 1 7 47 -4 15 -3 27 1 26 23 -4 32 3 27 20 -4 16 -1 19 16 14 15 -4 21 -1 21 11 0 19 16 21 23 4 3 -7 6 -4 7 7 1 18 2 18 15 -5 l14 -25 1 33 c0 18 4 31 9 27 5 -3 13 5 16 17 4 13 19 33 33 44 l27 22 -43 13 c-27 8 -55 27 -77 52 -19 22 -35 36 -35 32 0 -3 -15 3 -34 15 -25 15 -36 17 -42 9 -5 -8 -10 -6 -17 6 -9 18 -10 18 -23 0 -13 -17 -14 -17 -14 -2 0 22 -18 22 -42 0 -17 -15 -18 -15 -18 3 0 11 -5 25 -10 30 -7 7 -7 25 -2 50 6 32 14 43 47 59 33 17 56 20 135 17 52 -1 120 -6 150 -11 30 -5 60 -6 67 -4 7 3 21 24 32 47 10 25 40 61 70 86 35 30 48 47 41 54 -5 5 -10 24 -10 42 0 17 -3 45 -6 63 -6 31 -7 31 -34 14 -34 -19 -88 -12 -122 18 -13 11 -17 18 -10 14 6 -3 12 -1 12 5 0 7 9 5 22 -4 33 -23 66 -20 101 10 29 24 32 25 42 9 5 -10 17 -27 26 -38 l16 -21 26 29 c33 37 33 41 3 49 -27 7 -86 53 -86 67 0 4 7 6 15 3 13 -5 14 -2 5 22 -10 27 -9 27 22 -9 60 -69 114 -83 161 -42 l28 25 -11 102 c-17 152 0 228 58 265 48 31 142 117 142 131 0 19 -51 80 -85 102 -44 27 -114 50 -160 51 -65 1 -189 81 -148 96 7 2 9 11 6 19 -6 16 13 19 22 3 5 -6 22 -8 46 -4 24 4 45 3 53 -4 10 -8 12 -4 8 22 -5 31 -4 32 15 14 11 -10 27 -15 36 -11 9 3 51 -5 94 -19 43 -14 106 -29 141 -32 34 -4 65 -12 68 -17 4 -6 8 -37 9 -69 2 -33 13 -86 25 -119 22 -59 22 -60 4 -86 -34 -48 -44 -69 -44 -94 0 -31 -34 -89 -58 -96 -9 -3 -23 -8 -31 -10 -11 -3 -11 -7 -1 -20 9 -10 16 -12 24 -4 14 14 56 12 86 -5 14 -8 48 -14 76 -15 50 0 51 1 117 70 68 72 120 110 148 110 9 0 31 13 48 29 50 46 44 104 -22 214 -34 55 -113 107 -164 107 -17 0 -35 5 -38 11 -4 5 -18 14 -30 19 -26 10 -62 57 -51 67 3 4 12 1 18 -5 7 -7 25 -12 40 -12 25 0 28 4 28 32 0 29 1 30 13 14 9 -12 28 -18 60 -19 43 -2 47 0 47 21 0 25 15 30 24 7z"/>
</g>


</svg>